<?xml version="1.0" encoding="utf-8" ?>
<svg xmlns="http://www.w3.org/2000/svg" xmlns:xlink="http://www.w3.org/1999/xlink" width="881" height="881">
	<defs>
		<linearGradient id="gradient_0" gradientUnits="userSpaceOnUse" x1="320.13879" y1="508.15228" x2="357.3645" y2="159.16055">
			<stop offset="0" stop-color="#00B2D1"/>
			<stop offset="1" stop-color="#00C7D1"/>
		</linearGradient>
	</defs>
	<path fill="#43B7FF" transform="scale(1.37812 1.37812)" d="M381.92 161.334C391.832 161.741 455.175 211.756 468.413 220.974C473.621 224.6 484.517 229.71 482.336 237.442C480.946 242.364 466.568 252.293 462.346 255.913L408.193 301.893C402.735 306.491 385.65 326.714 381.524 309.138C380.65 305.417 389.891 284.955 391.912 281.78C385.716 282.25 379.754 284.298 373.929 286.369C313.905 307.709 278.006 366.18 251.991 420.853C239.922 443.87 233.193 470.488 216.286 490.633C199.031 511.192 193.349 475.284 192.797 463.626C192.023 447.286 195.802 430.347 199.762 414.591C221.187 329.357 283.871 208.114 384.885 203.31C383.339 199.021 382.146 194.602 380.62 190.304C377.777 182.298 367.853 163.961 381.92 161.334ZM397.192 189.872C399.057 194.77 407 211.989 404.968 216.278C401.883 222.794 389.501 219.657 383.884 219.862C326.127 221.97 279.812 275.416 253.529 321.729C230.866 361.663 205.947 427.06 208.971 473.377C217.06 465.297 228.514 433.148 234.882 419.896C266.612 354.509 301.677 294.143 375.172 268.735C390.692 263.37 427.143 251.695 406.42 281.78C425.164 267.242 442.785 251.144 460.92 235.861C444.323 224.919 427.947 211.094 411.572 199.417C407.92 196.813 401.129 191.529 397.192 189.872Z"/>
</svg>
