<?xml version="1.0" encoding="utf-8" ?>
<svg xmlns="http://www.w3.org/2000/svg" xmlns:xlink="http://www.w3.org/1999/xlink" width="102" height="81">
	<path fill="#43B7FF" transform="scale(0.1275 0.1275)" d="M411.991 171.578C451.625 171.108 491.325 171.564 530.965 171.565L566.83 171.57C591.607 171.578 611.887 173.608 612.214 203.998C612.378 219.216 614.005 262.062 610.65 274.45C604.368 297.647 582.317 296.354 563.928 296.353L540.153 296.337L490.783 296.335C482.429 296.331 473.983 295.978 465.643 296.337C451.608 307.964 439.328 322.638 426.655 335.702C424.202 338.23 421.841 340.397 418.073 340.341C403.574 340.126 407.616 307.761 407.826 296.337C384.729 289.688 382.593 274.496 382.557 254.61L382.554 211.498C382.589 189.926 387.879 174.596 411.991 171.578ZM415.989 191.113C407.302 191.797 403.816 194.62 402.973 203.276C401.833 214.971 401.601 253.492 403.115 264.782C405.738 284.339 424.968 269.464 427.487 286.061C428.383 291.959 427.691 298.454 427.764 304.433C462.581 271.7 443.621 276.69 493.115 276.692L552.206 276.697C559.796 276.708 576.125 277.57 582.726 276.144C596.642 273.138 592.256 250.117 592.231 239.774C592.203 228.006 592.662 216.09 592.25 204.338C591.644 187.054 574.548 191.09 562.216 191.089L415.989 191.113Z"/>
	<path fill="#43B7FF" transform="scale(0.1275 0.1275)" d="M236.718 166.938C247.762 165.496 279.655 211.915 287.731 221.988C304.932 243.441 314.817 242.606 292.874 264.439C288.743 268.549 284.763 273.194 280.103 276.697C308.041 321.775 347.191 362.757 391.454 392.25C396.906 395.883 402.574 399.204 407.826 403.128C416.814 396.828 436.442 374.398 444.999 373.61C450.594 373.095 457.594 380.256 461.585 383.43L476.683 395.303C485.979 402.725 494.898 410.62 504.068 418.196C510.434 423.455 530.314 434.727 524.328 445.463C520.446 452.426 505.938 460.465 499.95 467.597L499.623 467.992C486.278 476.995 475.438 489.758 459.635 494.7C435.966 502.1 409.489 487.138 389.027 476.438C313.841 437.125 245.657 368.805 204.851 294.51C189.919 267.324 168.629 230.786 194.11 202.762C200.649 195.57 229.056 169.245 236.718 166.938ZM236.718 192.532C224.353 202.035 204.837 214.166 202.704 231.21C199.896 253.659 244.166 320.264 259.579 339.772C299.635 390.467 350.122 435.353 408.641 463.544C451.243 484.066 453.971 479.486 490.457 448.454C493.47 445.821 496.441 443 499.623 440.579C492.702 435.33 486.105 429.619 479.373 424.127L446.468 397.254L446.119 397.499C438.813 402.689 431.875 409.851 425.546 416.167C408.598 433.082 409.248 428.112 389.455 415.414C345.872 387.454 305.963 349.647 275.879 307.425C249.816 270.846 252.871 277.559 281.401 246.611C276.135 240.147 238.534 193 236.718 192.532Z"/>
</svg>
