<?xml version="1.0" encoding="utf-8" ?>
<svg xmlns="http://www.w3.org/2000/svg" xmlns:xlink="http://www.w3.org/1999/xlink" width="1024" height="1024"  transform="scale(0.03)">
	<path fill="#0460BB" d="M815.148 271.106C822.286 274.009 882.327 338.64 891.69 348.269L946.523 403.693C950.624 407.793 962.981 422.238 966.637 424.168C970.89 440.365 972.181 458.244 973.547 474.884Q973.905 479.265 974.18 483.651Q974.455 488.038 974.646 492.429Q974.837 496.82 974.944 501.215Q975.052 505.608 975.076 510.004Q975.099 514.399 975.039 518.794Q974.98 523.189 974.836 527.582Q974.693 531.975 974.465 536.364Q974.238 540.754 973.927 545.138Q973.617 549.522 973.223 553.9Q972.829 558.277 972.351 562.647Q971.874 567.016 971.313 571.375Q970.753 575.735 970.11 580.083Q969.466 584.431 968.74 588.766Q968.014 593.101 967.206 597.421Q966.397 601.741 965.507 606.046Q964.616 610.35 963.644 614.636Q962.672 618.922 961.618 623.19Q960.564 627.457 959.43 631.703Q958.295 635.949 957.079 640.173Q955.864 644.397 954.568 648.597Q953.273 652.797 951.897 656.972Q950.522 661.146 949.067 665.294Q947.613 669.442 946.079 673.561Q944.546 677.68 942.935 681.769Q941.323 685.859 939.634 689.916Q937.945 693.974 936.179 697.999Q934.413 702.024 932.571 706.015Q930.729 710.005 928.811 713.96Q926.893 717.915 924.9 721.833Q922.907 725.75 920.84 729.629Q918.773 733.508 916.633 737.347Q914.492 741.186 912.279 744.983Q909.369 749.936 906.338 754.817Q903.307 759.697 900.156 764.501Q897.006 769.305 893.738 774.03Q890.47 778.754 887.087 783.397Q883.703 788.04 880.206 792.598Q876.709 797.156 873.101 801.627Q869.493 806.097 865.776 810.477Q862.059 814.857 858.234 819.144Q854.41 823.432 850.482 827.623Q846.553 831.815 842.522 835.908Q838.491 840.002 834.361 843.994Q830.23 847.987 826.003 851.877Q821.775 855.767 817.453 859.551Q813.13 863.335 808.716 867.012Q804.302 870.689 799.798 874.256Q795.295 877.822 790.705 881.277Q786.114 884.731 781.44 888.072Q776.767 891.412 772.012 894.636Q767.257 897.861 762.424 900.967Q757.591 904.073 752.683 907.058Q747.775 910.044 742.795 912.908Q737.815 915.772 732.766 918.513Q727.717 921.253 722.601 923.868Q717.486 926.483 712.308 928.971Q707.13 931.459 701.892 933.819Q696.654 936.178 691.36 938.408Q686.065 940.638 680.717 942.737Q675.369 944.835 669.971 946.802Q664.574 948.768 659.129 950.6Q653.684 952.433 648.196 954.13Q642.707 955.828 637.179 957.39Q631.65 958.952 626.085 960.377C570.144 975.07 510.403 977.892 453.079 970.879C442.541 969.59 429.734 968.319 419.658 965.075C416.151 958.931 400.516 945.758 394.586 939.786Q368.85 913.387 342.383 887.722C328.441 874.141 252.387 804.033 248.614 795.143C259.855 804.919 271.078 814.642 283.071 823.5Q287.429 826.744 291.878 829.863Q296.327 832.981 300.863 835.971Q305.399 838.96 310.019 841.819Q314.64 844.677 319.34 847.402Q324.04 850.127 328.816 852.716Q333.592 855.305 338.441 857.757Q343.289 860.208 348.206 862.519Q353.123 864.831 358.103 867Q363.084 869.17 368.125 871.196Q373.166 873.222 378.263 875.103Q383.36 876.984 388.509 878.718Q393.657 880.453 398.854 882.039Q404.05 883.625 409.289 885.061Q414.529 886.498 419.808 887.783Q425.086 889.069 430.399 890.203Q435.712 891.337 441.056 892.319C454.961 894.802 470.245 897.783 484.417 897.561C489.167 898.394 494.515 898.122 499.344 898.265Q516.486 898.901 533.614 897.971Q550.742 897.04 567.714 894.55C666.902 880.44 762.143 825.91 822.346 745.393Q824.679 742.271 826.948 739.102Q829.218 735.934 831.423 732.72Q833.628 729.507 835.767 726.249Q837.907 722.991 839.981 719.691Q842.054 716.391 844.06 713.05Q846.067 709.709 848.005 706.328Q849.944 702.947 851.814 699.527Q853.684 696.107 855.484 692.651Q857.285 689.194 859.015 685.702Q860.745 682.21 862.405 678.683Q864.064 675.157 865.652 671.598Q867.24 668.038 868.756 664.448Q870.272 660.857 871.715 657.237Q873.158 653.616 874.527 649.967Q875.897 646.318 877.192 642.643Q878.488 638.967 879.709 635.266Q880.93 631.565 882.077 627.84Q883.223 624.115 884.293 620.367Q885.364 616.62 886.359 612.851Q887.354 609.083 888.273 605.296Q889.191 601.508 890.033 597.702Q890.875 593.897 891.64 590.075Q892.405 586.254 893.093 582.418Q893.78 578.581 894.39 574.732Q895 570.883 895.532 567.022Q896.065 563.161 896.519 559.29Q896.973 555.419 897.349 551.54Q897.725 547.661 898.022 543.775Q898.32 539.889 898.539 535.997Q898.758 532.106 898.898 528.211Q899.038 524.316 899.1 520.419Q899.162 516.522 899.145 512.625C899.122 498.918 899.179 484.214 897.228 470.642C893.211 417.981 874.088 364.18 847.595 318.744C837.861 302.05 826.868 286.446 815.148 271.106Z"/>
	<path fill="#0788E4" d="M419.658 965.075C404.256 962.566 389.18 958.18 374.33 953.468C327.301 938.545 283.96 917.336 243.72 888.667Q239.054 885.346 234.471 881.91Q229.888 878.475 225.392 874.927Q220.895 871.38 216.488 867.722Q212.08 864.065 207.764 860.299Q203.448 856.534 199.226 852.663Q195.005 848.793 190.88 844.819Q186.755 840.845 182.73 836.771Q178.705 832.696 174.781 828.524Q170.857 824.351 167.038 820.083Q163.219 815.815 159.506 811.454Q155.793 807.093 152.189 802.641Q148.585 798.19 145.093 793.651Q141.6 789.111 138.22 784.487Q134.84 779.863 131.576 775.157Q128.311 770.451 125.164 765.666Q122.016 760.881 118.988 756.019Q115.96 751.158 113.053 746.223Q110.145 741.288 107.361 736.283Q104.576 731.278 101.916 726.206Q99.2563 721.134 96.7222 715.997Q94.1882 710.861 91.7818 705.663Q89.3754 700.466 87.0981 695.211Q84.8208 689.955 82.6739 684.645Q80.527 679.335 78.512 673.974Q76.4969 668.613 74.6148 663.203Q72.7327 657.794 70.9848 652.34Q69.2368 646.885 67.6241 641.39Q66.0114 635.894 64.5349 630.36Q63.0583 624.826 61.7189 619.257Q60.3795 613.689 59.178 608.089Q57.9765 602.489 56.9136 596.861Q55.8508 591.233 54.9272 585.58Q54.0141 580.035 53.2372 574.47Q52.4603 568.904 51.8201 563.321Q51.1799 557.738 50.6767 552.141Q50.1735 546.545 49.8077 540.937Q49.4419 535.329 49.2136 529.715Q48.9853 524.1 48.8948 518.481Q48.8042 512.862 48.8514 507.243Q48.8986 501.624 49.0836 496.007Q49.2685 490.391 49.5911 484.781Q49.9136 479.17 50.3736 473.57Q50.8336 467.969 51.4307 462.382Q52.0279 456.794 52.7618 451.223Q53.4957 445.651 54.366 440.1Q55.2363 434.548 56.2424 429.019Q57.2485 423.491 58.3899 417.988Q59.5312 412.486 60.8071 407.013Q62.0829 401.54 63.4926 396.101Q64.9022 390.661 66.4448 385.257Q67.9873 379.854 69.6619 374.489Q71.3365 369.125 73.142 363.804Q74.9476 358.482 76.883 353.207Q78.8185 347.931 80.8827 342.704Q82.9469 337.478 85.1386 332.303Q87.3303 327.129 89.6481 322.01Q91.966 316.89 94.4087 311.83Q96.8514 306.769 99.4174 301.769Q101.983 296.77 104.671 291.835Q107.359 286.9 110.167 282.032Q112.975 277.165 115.901 272.367Q118.828 267.57 121.871 262.846Q124.914 258.122 128.072 253.474Q131.23 248.825 134.501 244.256Q137.791 239.588 141.195 235.003Q144.599 230.417 148.116 225.918Q151.632 221.418 155.259 217.007Q158.885 212.596 162.62 208.275Q166.355 203.955 170.195 199.729Q174.036 195.502 177.98 191.372Q181.924 187.242 185.968 183.21Q190.013 179.179 194.156 175.249Q198.3 171.319 202.539 167.492Q206.778 163.666 211.11 159.945Q215.443 156.225 219.866 152.613Q224.289 149 228.801 145.499Q233.312 141.997 237.908 138.608Q242.505 135.219 247.184 131.945Q251.863 128.671 256.621 125.513Q261.379 122.356 266.214 119.317Q271.049 116.278 275.958 113.36Q280.867 110.441 285.846 107.645Q290.826 104.849 295.873 102.177Q300.92 99.5051 306.032 96.9587Q311.143 94.4124 316.316 91.9932Q321.489 89.5741 326.721 87.2836Q331.952 84.9931 337.238 82.8327Q342.525 80.6724 347.863 78.6434Q353.201 76.6145 358.588 74.7181Q363.974 72.8218 369.406 71.0594Q374.838 69.2969 380.312 67.6693Q385.786 66.0417 391.298 64.55Q396.811 63.0583 402.359 61.7034Q407.906 60.3485 413.486 59.1312Q419.065 57.9139 424.673 56.835Q430.281 55.7561 435.914 54.8163Q440.839 54.0104 445.78 53.3107Q450.722 52.6111 455.677 52.0181Q460.632 51.4251 465.599 50.939Q470.566 50.453 475.542 50.074Q480.518 49.6951 485.501 49.4235Q490.484 49.1519 495.472 48.9877Q500.46 48.8235 505.45 48.7669Q510.441 48.7102 515.431 48.7611Q520.421 48.812 525.409 48.9704Q530.397 49.1288 535.381 49.3946Q540.364 49.6605 545.341 50.0337Q550.317 50.4069 555.285 50.8872Q560.252 51.3675 565.208 51.9548Q570.164 52.542 575.106 53.236Q580.048 53.9299 584.974 54.7301Q589.9 55.5304 594.808 56.4366Q599.715 57.3428 604.602 58.3545Q609.489 59.3663 614.353 60.4831Q619.217 61.5999 624.056 62.8213Q628.895 64.0426 633.706 65.368Q638.518 66.6934 643.299 68.1221Q648.081 69.5508 652.831 71.0822Q657.581 72.6137 662.296 74.2471Q667.012 75.8805 671.691 77.6152Q676.371 79.3498 681.012 81.1849Q685.653 83.02 690.253 84.9547Q694.853 86.8894 699.411 88.9227Q703.968 90.9561 708.481 93.0871Q712.994 95.2182 717.459 97.446Q721.925 99.6739 726.342 101.997Q730.758 104.321 735.124 106.739Q739.49 109.157 743.802 111.669C757.705 119.731 771.019 128.88 784.082 138.229C875.34 203.537 948.2 312.88 966.637 424.168C962.981 422.238 950.624 407.793 946.523 403.693L891.69 348.269C882.327 338.64 822.286 274.009 815.148 271.106C796.379 248.303 776.525 227.39 753.524 208.75Q750.808 206.593 748.054 204.485Q745.3 202.377 742.509 200.319Q739.717 198.261 736.89 196.253Q734.062 194.245 731.199 192.288Q728.336 190.331 725.438 188.425Q722.54 186.52 719.609 184.667Q716.677 182.814 713.713 181.013Q710.749 179.213 707.753 177.465Q704.757 175.718 701.73 174.025Q698.704 172.332 695.647 170.693Q692.591 169.054 689.505 167.47Q686.42 165.887 683.307 164.358Q680.194 162.83 677.054 161.358Q673.914 159.885 670.748 158.469Q667.582 157.054 664.391 155.695Q661.2 154.336 657.986 153.034Q654.771 151.732 651.534 150.488Q648.296 149.244 645.037 148.059Q641.778 146.873 638.498 145.746Q635.218 144.619 631.919 143.55Q628.619 142.482 625.301 141.473Q621.983 140.464 618.648 139.514Q615.312 138.565 611.96 137.675Q608.608 136.785 605.241 135.956Q601.873 135.126 598.491 134.357Q595.11 133.588 591.715 132.88Q588.32 132.171 584.912 131.524Q581.505 130.876 578.087 130.29Q574.669 129.703 571.241 129.178Q567.813 128.653 564.376 128.189Q560.939 127.726 557.494 127.323Q554.049 126.921 550.598 126.581Q545.927 126.099 541.245 125.732Q536.563 125.365 531.874 125.113Q527.185 124.861 522.491 124.724Q517.796 124.587 513.1 124.565Q508.404 124.543 503.709 124.637Q499.014 124.73 494.323 124.939Q489.631 125.147 484.946 125.471Q480.261 125.794 475.586 126.233Q470.91 126.671 466.247 127.224Q461.583 127.777 456.935 128.444Q452.287 129.112 447.656 129.893Q443.025 130.674 438.415 131.568Q433.805 132.462 429.218 133.47Q424.631 134.477 420.071 135.596Q415.51 136.716 410.978 137.947Q406.446 139.178 401.946 140.52Q397.446 141.861 392.98 143.313Q388.514 144.765 384.085 146.326Q379.655 147.887 375.266 149.556Q370.877 151.225 366.529 153.001Q362.182 154.778 357.88 156.66Q353.578 158.543 349.323 160.53Q345.068 162.517 340.863 164.608Q336.658 166.7 332.506 168.893Q328.354 171.087 324.257 173.382Q320.16 175.677 316.12 178.071Q312.08 180.466 308.101 182.959Q304.121 185.452 300.204 188.042Q296.286 190.632 292.434 193.317Q288.581 196.003 284.796 198.782Q281.01 201.561 277.294 204.432Q273.578 207.303 269.933 210.264Q266.203 213.294 262.549 216.416Q258.895 219.538 255.32 222.749Q251.744 225.96 248.249 229.259Q244.754 232.557 241.342 235.941Q237.93 239.325 234.602 242.792Q231.274 246.26 228.033 249.808Q224.793 253.357 221.64 256.984Q218.488 260.612 215.427 264.316Q212.365 268.021 209.396 271.8Q206.427 275.579 203.553 279.43Q200.678 283.281 197.9 287.203Q195.121 291.124 192.441 295.112Q189.76 299.101 187.179 303.155Q184.597 307.209 182.117 311.325Q179.637 315.441 177.259 319.618Q174.882 323.794 172.608 328.028Q170.335 332.262 168.166 336.551Q165.998 340.84 163.936 345.181Q161.875 349.522 159.921 353.913Q157.968 358.304 156.123 362.741Q154.279 367.179 152.545 371.661Q150.811 376.143 149.188 380.667Q147.566 385.19 146.055 389.753Q144.545 394.315 143.148 398.913Q141.751 403.511 140.468 408.143Q139.185 412.774 138.017 417.436Q136.849 422.097 135.796 426.787Q134.744 431.476 133.808 436.189Q132.872 440.903 132.052 445.639Q131.233 450.374 130.531 455.128Q129.829 459.883 129.245 464.653Q128.661 469.423 128.195 474.206Q127.704 478.966 127.332 483.737Q126.959 488.508 126.705 493.287Q126.451 498.066 126.316 502.85Q126.181 507.633 126.165 512.419Q126.148 517.204 126.251 521.989Q126.353 526.773 126.574 531.553Q126.796 536.334 127.135 541.107Q127.475 545.881 127.934 550.644Q128.392 555.408 128.968 560.159Q129.545 564.909 130.239 569.644Q130.933 574.379 131.744 579.095Q132.556 583.812 133.484 588.506Q134.413 593.201 135.457 597.871Q136.502 602.541 137.662 607.184Q138.823 611.827 140.098 616.439Q141.373 621.052 142.762 625.631Q144.152 630.211 145.654 634.754Q147.157 639.298 148.772 643.802Q150.387 648.307 152.113 652.77Q153.84 657.234 155.676 661.653Q157.513 666.072 159.459 670.444Q161.404 674.816 163.458 679.139Q165.512 683.461 167.672 687.731Q169.833 692.001 172.099 696.216Q174.364 700.432 176.734 704.589Q179.104 708.747 181.576 712.844Q184.048 716.942 186.622 720.977Q189.195 725.011 191.867 728.981Q194.54 732.951 197.31 736.853Q200.081 740.755 202.947 744.587Q205.814 748.419 208.774 752.179Q211.735 755.939 214.788 759.624C225.382 772.421 236.731 783.593 248.614 795.143C252.387 804.033 328.441 874.141 342.383 887.722Q368.85 913.387 394.586 939.786C400.516 945.758 416.151 958.931 419.658 965.075Z"/>
	<path fill="#CAEAF9" d="M248.614 795.143C236.731 783.593 225.382 772.421 214.788 759.624Q211.735 755.939 208.774 752.179Q205.814 748.419 202.947 744.587Q200.081 740.755 197.31 736.853Q194.54 732.951 191.867 728.981Q189.195 725.011 186.622 720.977Q184.048 716.942 181.576 712.844Q179.104 708.747 176.734 704.589Q174.364 700.431 172.099 696.216Q169.833 692.001 167.672 687.731Q165.512 683.461 163.458 679.138Q161.404 674.816 159.459 670.444Q157.513 666.072 155.676 661.653Q153.84 657.234 152.113 652.77Q150.387 648.307 148.772 643.802Q147.157 639.297 145.654 634.754Q144.152 630.21 142.762 625.631Q141.373 621.052 140.098 616.439Q138.823 611.827 137.662 607.184Q136.502 602.541 135.457 597.871Q134.413 593.201 133.484 588.506Q132.556 583.812 131.744 579.095Q130.933 574.379 130.239 569.644Q129.545 564.909 128.968 560.159Q128.392 555.408 127.933 550.644Q127.475 545.881 127.135 541.107Q126.796 536.334 126.574 531.553Q126.353 526.773 126.251 521.989Q126.148 517.204 126.165 512.419Q126.181 507.633 126.316 502.85Q126.451 498.066 126.705 493.287Q126.959 488.508 127.332 483.737Q127.704 478.966 128.195 474.206Q128.661 469.423 129.245 464.653Q129.829 459.883 130.531 455.128Q131.233 450.374 132.052 445.639Q132.872 440.903 133.808 436.189Q134.744 431.476 135.796 426.787Q136.849 422.097 138.017 417.436Q139.185 412.774 140.468 408.143Q141.751 403.511 143.148 398.913Q144.545 394.315 146.055 389.753Q147.566 385.19 149.188 380.667Q150.811 376.143 152.545 371.661Q154.279 367.179 156.123 362.741Q157.968 358.304 159.921 353.913Q161.875 349.522 163.936 345.181Q165.998 340.84 168.166 336.551Q170.335 332.262 172.608 328.028Q174.882 323.794 177.259 319.618Q179.637 315.441 182.117 311.325Q184.597 307.209 187.179 303.155Q189.76 299.101 192.441 295.112Q195.121 291.124 197.9 287.203Q200.678 283.281 203.553 279.43Q206.427 275.579 209.396 271.8Q212.365 268.021 215.427 264.316Q218.488 260.612 221.64 256.984Q224.793 253.357 228.033 249.808Q231.274 246.26 234.602 242.792Q237.93 239.325 241.342 235.941Q244.754 232.557 248.249 229.259Q251.744 225.96 255.32 222.749Q258.895 219.538 262.549 216.416Q266.203 213.294 269.933 210.264Q273.578 207.303 277.294 204.432Q281.01 201.561 284.796 198.782Q288.581 196.003 292.434 193.317Q296.286 190.632 300.204 188.042Q304.121 185.452 308.101 182.959Q312.08 180.466 316.12 178.071Q320.16 175.677 324.257 173.382Q328.354 171.087 332.506 168.893Q336.658 166.7 340.863 164.608Q345.068 162.517 349.323 160.53Q353.578 158.543 357.88 156.66Q362.182 154.778 366.529 153.001Q370.877 151.225 375.266 149.556Q379.655 147.887 384.085 146.326Q388.514 144.765 392.98 143.313Q397.446 141.861 401.946 140.52Q406.446 139.178 410.978 137.947Q415.51 136.716 420.071 135.596Q424.631 134.477 429.218 133.47Q433.805 132.462 438.415 131.568Q443.025 130.674 447.656 129.893Q452.287 129.112 456.935 128.444Q461.583 127.777 466.247 127.224Q470.91 126.671 475.586 126.233Q480.261 125.794 484.946 125.471Q489.631 125.147 494.323 124.939Q499.014 124.73 503.709 124.637Q508.404 124.543 513.1 124.565Q517.796 124.587 522.49 124.724Q527.185 124.861 531.874 125.113Q536.563 125.365 541.245 125.732Q545.927 126.099 550.598 126.581Q554.049 126.921 557.494 127.323Q560.939 127.726 564.376 128.189Q567.813 128.653 571.241 129.178Q574.669 129.703 578.087 130.29Q581.505 130.876 584.912 131.524Q588.32 132.171 591.715 132.88Q595.11 133.588 598.491 134.357Q601.873 135.126 605.241 135.956Q608.608 136.785 611.96 137.675Q615.312 138.565 618.648 139.514Q621.983 140.464 625.301 141.473Q628.619 142.482 631.919 143.55Q635.218 144.619 638.498 145.746Q641.778 146.873 645.037 148.059Q648.296 149.244 651.534 150.488Q654.771 151.732 657.986 153.034Q661.2 154.336 664.391 155.695Q667.582 157.054 670.748 158.469Q673.914 159.885 677.054 161.358Q680.194 162.83 683.307 164.358Q686.42 165.887 689.505 167.47Q692.591 169.054 695.647 170.693Q698.704 172.332 701.731 174.025Q704.757 175.718 707.753 177.465Q710.749 179.213 713.713 181.013Q716.677 182.813 719.609 184.667Q722.54 186.52 725.438 188.425Q728.336 190.331 731.199 192.288Q734.062 194.245 736.89 196.253Q739.717 198.261 742.509 200.319Q745.3 202.377 748.054 204.485Q750.808 206.593 753.524 208.75C776.525 227.39 796.379 248.303 815.148 271.106C826.868 286.446 837.861 302.05 847.595 318.744C874.088 364.18 893.211 417.981 897.228 470.642C896.976 471.205 897.168 470.863 896.507 471.571C893.473 469.297 890.704 466.094 887.994 463.42Q879.2 454.765 870.559 445.957L827.836 403.062C821.05 396.324 814.47 389.287 807.384 382.866C790.377 367.106 774.477 349.75 758.032 333.383C738.624 314.067 718.387 295.308 699.561 275.439C695.277 279.348 691.232 283.624 687.108 287.708C669.695 274.783 651.99 263.261 632.431 253.795Q630.074 252.683 627.697 251.615Q625.32 250.547 622.923 249.522Q620.527 248.499 618.112 247.519Q615.697 246.54 613.264 245.605Q610.832 244.671 608.382 243.781Q605.932 242.892 603.467 242.048Q601.001 241.204 598.52 240.406Q596.039 239.608 593.544 238.857Q591.049 238.105 588.54 237.399Q586.031 236.694 583.51 236.035Q580.988 235.376 578.455 234.764Q575.922 234.151 573.378 233.586Q570.834 233.021 568.28 232.503Q565.726 231.986 563.162 231.515Q560.599 231.045 558.028 230.622Q555.456 230.199 552.877 229.824Q550.298 229.448 547.713 229.121Q545.128 228.794 542.536 228.514Q539.945 228.235 537.35 228.004Q534.754 227.772 532.154 227.589Q529.555 227.406 526.952 227.271Q524.35 227.136 521.745 227.049Q519.14 226.962 516.534 226.923Q513.929 226.885 511.323 226.894Q508.717 226.904 506.111 226.962Q503.506 227.02 500.902 227.126Q498.298 227.233 495.697 227.387Q493.095 227.541 490.497 227.744Q487.899 227.947 485.305 228.197Q482.711 228.448 480.122 228.747Q477.533 229.045 474.95 229.392Q472.367 229.739 469.791 230.133Q466.298 230.654 462.82 231.261Q459.341 231.868 455.879 232.561Q452.416 233.254 448.972 234.033Q445.528 234.812 442.104 235.676Q438.68 236.54 435.278 237.488Q431.877 238.437 428.5 239.469Q425.123 240.502 421.773 241.618Q418.423 242.734 415.102 243.933Q411.78 245.132 408.489 246.413Q405.199 247.693 401.941 249.055Q398.683 250.418 395.459 251.86Q392.236 253.302 389.05 254.824Q385.863 256.346 382.716 257.947Q379.568 259.547 376.461 261.225Q373.354 262.903 370.29 264.658Q367.225 266.412 364.205 268.242Q361.185 270.072 358.211 271.976Q355.238 273.881 352.312 275.858Q349.386 277.836 346.511 279.885Q343.635 281.934 340.811 284.055Q337.987 286.175 335.217 288.364Q332.446 290.554 329.731 292.811Q327.016 295.069 324.357 297.393Q321.699 299.717 319.099 302.106Q316.499 304.496 313.959 306.949Q311.419 309.402 308.94 311.917Q306.462 314.432 304.047 317.009Q301.631 319.585 299.281 322.22Q296.93 324.855 294.645 327.547Q292.361 330.24 290.144 332.988Q287.927 335.737 285.778 338.539Q283.63 341.342 281.552 344.197Q279.515 346.982 277.548 349.815Q275.58 352.649 273.682 355.53Q271.785 358.412 269.959 361.338Q268.132 364.265 266.378 367.236Q264.624 370.207 262.944 373.22Q261.263 376.233 259.657 379.286Q258.051 382.339 256.52 385.431Q254.989 388.523 253.535 391.651Q252.08 394.779 250.703 397.942Q249.326 401.105 248.026 404.301Q246.727 407.497 245.506 410.724Q244.286 413.951 243.145 417.207Q242.004 420.462 240.943 423.745Q239.882 427.028 238.902 430.336Q237.922 433.644 237.023 436.974Q236.125 440.305 235.308 443.657Q234.492 447.009 233.758 450.38Q233.024 453.751 232.372 457.139Q231.721 460.527 231.153 463.93Q230.585 467.332 230.101 470.748Q229.617 474.164 229.216 477.591Q228.816 481.017 228.5 484.453Q228.184 487.888 227.952 491.33Q227.72 494.772 227.573 498.219Q227.426 501.666 227.363 505.115Q227.3 508.565 227.322 512.014Q227.344 515.464 227.45 518.913Q227.557 522.361 227.748 525.805Q227.939 529.25 228.215 532.689Q228.49 536.128 228.85 539.559Q229.21 542.99 229.654 546.411Q230.097 549.833 230.625 553.242C239.929 615.385 268.635 669.135 312.668 713.519C315.233 720.976 343.947 748.426 350.875 755.638C359.772 764.898 368.233 774.578 377.152 783.802C401.186 808.656 425.995 832.986 450.647 857.235L479.467 885.832C483.375 889.708 488.011 893.306 491.433 897.588C489.121 897.53 486.717 897.33 484.417 897.561C470.245 897.783 454.961 894.802 441.056 892.319Q435.713 891.337 430.399 890.203Q425.086 889.069 419.808 887.783Q414.529 886.497 409.289 885.061Q404.05 883.625 398.854 882.038Q393.657 880.453 388.509 878.718Q383.36 876.984 378.263 875.103Q373.166 873.222 368.125 871.196Q363.084 869.17 358.103 867Q353.123 864.831 348.206 862.519Q343.289 860.208 338.441 857.757Q333.592 855.305 328.816 852.716Q324.04 850.127 319.34 847.402Q314.64 844.677 310.019 841.819Q305.399 838.96 300.863 835.971Q296.327 832.981 291.878 829.863Q287.429 826.744 283.071 823.5C271.078 814.642 259.855 804.919 248.614 795.143Z"/>
	<path fill="#0788E4" d="M312.668 713.519C268.635 669.135 239.929 615.385 230.625 553.242Q230.097 549.833 229.654 546.411Q229.21 542.99 228.85 539.559Q228.49 536.128 228.215 532.689Q227.939 529.25 227.748 525.805Q227.557 522.361 227.45 518.912Q227.344 515.464 227.322 512.014Q227.3 508.565 227.363 505.115Q227.426 501.666 227.573 498.219Q227.72 494.772 227.952 491.33Q228.184 487.888 228.5 484.453Q228.816 481.017 229.216 477.591Q229.617 474.164 230.101 470.748Q230.585 467.332 231.153 463.93Q231.721 460.527 232.372 457.139Q233.024 453.751 233.758 450.38Q234.492 447.009 235.308 443.657Q236.125 440.305 237.024 436.974Q237.922 433.643 238.902 430.336Q239.882 427.028 240.943 423.745Q242.004 420.462 243.145 417.207Q244.286 413.951 245.506 410.724Q246.727 407.497 248.026 404.301Q249.326 401.105 250.703 397.942Q252.08 394.779 253.535 391.651Q254.989 388.523 256.52 385.431Q258.051 382.339 259.657 379.286Q261.263 376.233 262.944 373.22Q264.624 370.207 266.378 367.236Q268.132 364.265 269.959 361.338Q271.785 358.412 273.682 355.53Q275.58 352.649 277.548 349.815Q279.515 346.982 281.552 344.197Q283.63 341.342 285.778 338.539Q287.927 335.737 290.144 332.988Q292.361 330.24 294.645 327.547Q296.93 324.855 299.281 322.22Q301.631 319.585 304.046 317.009Q306.462 314.432 308.94 311.917Q311.419 309.402 313.959 306.949Q316.499 304.496 319.099 302.106Q321.699 299.717 324.357 297.393Q327.016 295.069 329.731 292.811Q332.446 290.554 335.217 288.364Q337.987 286.175 340.811 284.055Q343.635 281.934 346.511 279.885Q349.386 277.836 352.312 275.858Q355.238 273.881 358.211 271.976Q361.185 270.072 364.205 268.242Q367.225 266.412 370.29 264.658Q373.354 262.903 376.461 261.225Q379.568 259.547 382.716 257.947Q385.863 256.346 389.05 254.824Q392.236 253.302 395.459 251.86Q398.683 250.418 401.941 249.056Q405.199 247.693 408.489 246.413Q411.78 245.132 415.102 243.933Q418.423 242.734 421.773 241.618Q425.123 240.502 428.5 239.469Q431.877 238.437 435.278 237.488Q438.68 236.54 442.104 235.676Q445.528 234.812 448.972 234.033Q452.416 233.254 455.879 232.561Q459.341 231.868 462.82 231.261Q466.298 230.654 469.791 230.133Q472.367 229.739 474.95 229.392Q477.533 229.045 480.122 228.747Q482.711 228.448 485.305 228.197Q487.899 227.947 490.497 227.744Q493.095 227.541 495.697 227.387Q498.298 227.233 500.902 227.126Q503.506 227.02 506.111 226.962Q508.717 226.904 511.323 226.894Q513.929 226.885 516.535 226.923Q519.14 226.962 521.745 227.049Q524.35 227.136 526.952 227.271Q529.555 227.406 532.154 227.589Q534.754 227.772 537.35 228.004Q539.945 228.235 542.536 228.514Q545.128 228.794 547.713 229.121Q550.298 229.448 552.877 229.824Q555.456 230.199 558.028 230.622Q560.599 231.045 563.162 231.515Q565.726 231.986 568.28 232.503Q570.834 233.021 573.378 233.586Q575.922 234.151 578.455 234.764Q580.988 235.376 583.51 236.035Q586.031 236.694 588.54 237.399Q591.049 238.105 593.544 238.857Q596.039 239.608 598.52 240.406Q601.001 241.204 603.467 242.048Q605.932 242.892 608.382 243.781Q610.832 244.671 613.264 245.605Q615.697 246.54 618.112 247.519Q620.527 248.498 622.923 249.522Q625.32 250.547 627.697 251.615Q630.074 252.683 632.431 253.795C651.99 263.261 669.695 274.783 687.108 287.708C691.232 283.624 695.277 279.348 699.561 275.439C718.387 295.308 738.624 314.067 758.032 333.383C774.477 349.75 790.377 367.106 807.384 382.866C814.47 389.287 821.05 396.324 827.836 403.062L870.559 445.957Q879.2 454.765 887.994 463.42C890.704 466.094 893.473 469.297 896.507 471.571C897.168 470.863 896.976 471.205 897.228 470.642C899.179 484.214 899.122 498.918 899.145 512.625Q899.162 516.522 899.1 520.419Q899.038 524.316 898.898 528.211Q898.758 532.106 898.539 535.997Q898.32 539.889 898.022 543.775Q897.725 547.661 897.349 551.54Q896.973 555.419 896.519 559.29Q896.065 563.161 895.532 567.022Q895 570.883 894.39 574.732Q893.78 578.581 893.092 582.418Q892.405 586.254 891.64 590.076Q890.875 593.897 890.033 597.703Q889.191 601.508 888.273 605.296Q887.354 609.083 886.359 612.851Q885.364 616.62 884.293 620.367Q883.223 624.115 882.077 627.84Q880.93 631.565 879.709 635.266Q878.488 638.967 877.192 642.643Q875.897 646.319 874.527 649.967Q873.158 653.616 871.715 657.237Q870.272 660.857 868.756 664.448Q867.24 668.038 865.652 671.598Q864.064 675.157 862.405 678.683Q860.745 682.21 859.015 685.702Q857.285 689.194 855.484 692.651Q853.684 696.107 851.814 699.527Q849.944 702.947 848.005 706.328Q846.067 709.709 844.06 713.05Q842.054 716.391 839.981 719.691Q837.907 722.991 835.767 726.249Q833.628 729.507 831.423 732.72Q829.218 735.934 826.948 739.102Q824.679 742.271 822.346 745.393C762.143 825.91 666.902 880.44 567.714 894.55Q550.742 897.04 533.614 897.971Q516.486 898.901 499.344 898.265C494.515 898.122 489.167 898.394 484.417 897.561C486.717 897.33 489.121 897.53 491.433 897.588C488.011 893.306 483.375 889.708 479.467 885.832L450.647 857.235C425.995 832.986 401.186 808.656 377.152 783.802C368.233 774.578 359.772 764.898 350.875 755.638C343.947 748.426 315.233 720.976 312.668 713.519Z"/>
	<path fill="#FEFEFE" d="M697.604 318.341C701.115 319.884 756.4 376.519 763.783 383.925C748.17 400.665 731.602 416.636 715.445 432.858L619.245 529.142L513.347 634.995C492.18 656.122 471.359 677.84 449.439 698.183L335.387 584.174Q312.067 561.278 289.081 538.046C282.108 530.916 274.731 523.889 268.294 516.272C273.628 508.844 281.652 502.169 288.133 495.706C303.515 480.365 319.231 465.334 334.22 449.608C372.06 488.765 411.97 525.973 450.31 564.648Q497.678 518.601 544.139 471.639L697.604 318.341Z"/>
	<path fill="#43B7FF" d="M312.668 713.519C268.635 669.135 239.929 615.385 230.625 553.242Q230.097 549.833 229.654 546.411Q229.21 542.99 228.85 539.559Q228.49 536.128 228.215 532.689Q227.939 529.25 227.748 525.805Q227.557 522.361 227.45 518.912Q227.344 515.464 227.322 512.014Q227.3 508.565 227.363 505.115Q227.426 501.666 227.573 498.219Q227.72 494.772 227.952 491.33Q228.184 487.888 228.5 484.453Q228.816 481.017 229.216 477.591Q229.617 474.164 230.101 470.748Q230.585 467.332 231.153 463.93Q231.721 460.527 232.372 457.139Q233.024 453.751 233.758 450.38Q234.492 447.009 235.308 443.657Q236.125 440.305 237.024 436.974Q237.922 433.643 238.902 430.336Q239.882 427.028 240.943 423.745Q242.004 420.462 243.145 417.207Q244.286 413.951 245.506 410.724Q246.727 407.497 248.026 404.301Q249.326 401.105 250.703 397.942Q252.08 394.779 253.535 391.651Q254.989 388.523 256.52 385.431Q258.051 382.339 259.657 379.286Q261.263 376.233 262.944 373.22Q264.624 370.207 266.378 367.236Q268.132 364.265 269.959 361.338Q271.785 358.412 273.682 355.53Q275.58 352.649 277.548 349.815Q279.515 346.982 281.552 344.197Q283.63 341.342 285.778 338.539Q287.927 335.737 290.144 332.988Q292.361 330.24 294.645 327.547Q296.93 324.855 299.281 322.22Q301.631 319.585 304.046 317.009Q306.462 314.432 308.94 311.917Q311.419 309.402 313.959 306.949Q316.499 304.496 319.099 302.106Q321.699 299.717 324.357 297.393Q327.016 295.069 329.731 292.811Q332.446 290.554 335.217 288.364Q337.987 286.175 340.811 284.055Q343.635 281.934 346.511 279.885Q349.386 277.836 352.312 275.858Q355.238 273.881 358.211 271.976Q361.185 270.072 364.205 268.242Q367.225 266.412 370.29 264.658Q373.354 262.903 376.461 261.225Q379.568 259.547 382.716 257.947Q385.863 256.346 389.05 254.824Q392.236 253.302 395.459 251.86Q398.683 250.418 401.941 249.056Q405.199 247.693 408.489 246.413Q411.78 245.132 415.102 243.933Q418.423 242.734 421.773 241.618Q425.123 240.502 428.5 239.469Q431.877 238.437 435.278 237.488Q438.68 236.54 442.104 235.676Q445.528 234.812 448.972 234.033Q452.416 233.254 455.879 232.561Q459.341 231.868 462.82 231.261Q466.298 230.654 469.791 230.133Q472.367 229.739 474.95 229.392Q477.533 229.045 480.122 228.747Q482.711 228.448 485.305 228.197Q487.899 227.947 490.497 227.744Q493.095 227.541 495.697 227.387Q498.298 227.233 500.902 227.126Q503.506 227.02 506.111 226.962Q508.717 226.904 511.323 226.894Q513.929 226.885 516.535 226.923Q519.14 226.962 521.745 227.049Q524.35 227.136 526.952 227.271Q529.555 227.406 532.154 227.589Q534.754 227.772 537.35 228.004Q539.945 228.235 542.536 228.514Q545.128 228.794 547.713 229.121Q550.298 229.448 552.877 229.824Q555.456 230.199 558.028 230.622Q560.599 231.045 563.162 231.515Q565.726 231.986 568.28 232.503Q570.834 233.021 573.378 233.586Q575.922 234.151 578.455 234.764Q580.988 235.376 583.51 236.035Q586.031 236.694 588.54 237.399Q591.049 238.105 593.544 238.857Q596.039 239.608 598.52 240.406Q601.001 241.204 603.467 242.048Q605.932 242.892 608.382 243.781Q610.832 244.671 613.264 245.605Q615.697 246.54 618.112 247.519Q620.527 248.498 622.923 249.522Q625.32 250.547 627.697 251.615Q630.074 252.683 632.431 253.795C651.99 263.261 669.695 274.783 687.108 287.708C683.966 291.587 680.091 295.066 676.569 298.604Q665.606 309.661 654.425 320.498L601.915 372.651L450.675 524.145C439.204 512.191 427.086 500.923 415.221 489.368L385.398 459.788Q359.471 434.915 334.121 409.454C311.549 430.105 289.404 453.382 267.683 475.083L244.87 497.779C240.419 502.188 235.565 506.468 231.62 511.341C230.105 513.213 229.535 514.474 229.45 516.904Q229.411 518.185 229.425 519.466C235.195 525.858 241.555 531.782 247.668 537.847L273.611 563.845L363.272 653.61C383.829 674.279 404.827 694.447 425.557 714.928C433.11 722.39 442.15 734.002 450.678 739.807C458.472 746.156 504.138 789.188 506.871 796.201C499.809 796.043 492.714 795.185 485.694 794.437Q480.916 793.915 476.158 793.237Q471.4 792.558 466.667 791.724Q461.933 790.89 457.23 789.902Q452.526 788.913 447.858 787.771Q443.189 786.629 438.56 785.334Q433.932 784.04 429.348 782.594Q424.764 781.149 420.23 779.554Q415.696 777.959 411.217 776.216Q406.738 774.474 402.318 772.585Q397.898 770.697 393.543 768.664Q389.188 766.632 384.901 764.458Q380.614 762.284 376.401 759.971Q372.188 757.658 368.053 755.208Q363.919 752.758 359.866 750.174Q355.814 747.589 351.848 744.874Q347.883 742.158 344.008 739.314C332.99 731.38 322.85 722.476 312.668 713.519Z"/>
	<path fill="#8BD1FB" d="M807.384 382.866C814.47 389.287 821.05 396.324 827.836 403.062L870.559 445.957Q879.2 454.765 887.994 463.42C890.704 466.094 893.473 469.297 896.507 471.571C897.168 470.863 896.976 471.205 897.228 470.642C899.179 484.214 899.122 498.918 899.145 512.625Q899.162 516.522 899.1 520.419Q899.038 524.316 898.898 528.211Q898.758 532.106 898.539 535.997Q898.32 539.889 898.022 543.775Q897.725 547.661 897.349 551.54Q896.973 555.419 896.519 559.29Q896.065 563.161 895.532 567.022Q895 570.883 894.39 574.732Q893.78 578.581 893.092 582.418Q892.405 586.254 891.64 590.076Q890.875 593.897 890.033 597.703Q889.191 601.508 888.273 605.296Q887.354 609.083 886.359 612.851Q885.364 616.62 884.293 620.367Q883.223 624.115 882.077 627.84Q880.93 631.565 879.709 635.266Q878.488 638.967 877.192 642.643Q875.897 646.319 874.527 649.967Q873.158 653.616 871.715 657.237Q870.272 660.857 868.756 664.448Q867.24 668.038 865.652 671.598Q864.064 675.157 862.405 678.683Q860.745 682.21 859.015 685.702Q857.285 689.194 855.484 692.651Q853.684 696.107 851.814 699.527Q849.944 702.947 848.005 706.328Q846.067 709.709 844.06 713.05Q842.054 716.391 839.981 719.691Q837.907 722.991 835.767 726.249Q833.628 729.507 831.423 732.72Q829.218 735.934 826.948 739.102Q824.679 742.271 822.346 745.393C762.143 825.91 666.902 880.44 567.714 894.55Q550.742 897.04 533.614 897.971Q516.486 898.901 499.344 898.265C494.515 898.122 489.167 898.394 484.417 897.561C486.717 897.33 489.121 897.53 491.433 897.588C488.011 893.306 483.375 889.708 479.467 885.832L450.647 857.235C425.995 832.986 401.186 808.656 377.152 783.802C368.233 774.578 359.772 764.898 350.875 755.638C343.947 748.426 315.233 720.976 312.668 713.519C322.85 722.476 332.99 731.38 344.008 739.314Q347.883 742.158 351.848 744.874Q355.814 747.589 359.866 750.174Q363.919 752.758 368.053 755.208Q372.188 757.658 376.401 759.971Q380.614 762.284 384.901 764.458Q389.188 766.632 393.543 768.664Q397.898 770.696 402.318 772.585Q406.738 774.473 411.217 776.216Q415.696 777.959 420.23 779.554Q424.764 781.149 429.348 782.594Q433.932 784.04 438.56 785.334Q443.189 786.629 447.858 787.771Q452.526 788.913 457.23 789.902Q461.933 790.89 466.667 791.724Q471.4 792.558 476.158 793.237Q480.916 793.915 485.694 794.437C492.714 795.185 499.809 796.043 506.871 796.201C504.138 789.188 458.472 746.156 450.678 739.807C456.183 733.509 462.755 727.65 468.668 721.705L509.46 681.025L625.404 565.172L734.462 455.742L763.505 426.645C769.091 421.041 774.573 415.141 780.55 409.958C784.15 407.118 787.333 403.076 790.547 399.778C796.098 394.081 801.813 388.545 807.384 382.866Z"/>
	<path fill="#0CB4D9" d="M450.678 739.807C456.183 733.509 462.755 727.65 468.668 721.705L509.46 681.025L625.404 565.172L734.462 455.742L763.505 426.645C769.091 421.041 774.573 415.141 780.55 409.958C805.485 491.818 804.76 569.529 763.992 646.148Q762.352 649.22 760.638 652.251Q758.924 655.282 757.137 658.271Q755.349 661.26 753.49 664.204Q751.631 667.149 749.701 670.047Q747.77 672.945 745.77 675.796Q743.77 678.647 741.701 681.448Q739.633 684.249 737.496 686.999Q735.36 689.749 733.158 692.447Q730.956 695.144 728.689 697.787Q726.421 700.431 724.091 703.018Q721.76 705.605 719.367 708.135Q716.974 710.665 714.521 713.136Q712.067 715.607 709.554 718.018Q707.041 720.429 704.471 722.778Q701.9 725.127 699.273 727.413Q696.646 729.699 693.964 731.92Q691.282 734.142 688.548 736.297Q685.813 738.453 683.026 740.541Q680.24 742.63 677.403 744.65Q674.567 746.671 671.682 748.621Q668.798 750.572 665.867 752.452Q662.936 754.332 659.96 756.141Q656.984 757.949 653.965 759.685Q650.946 761.42 647.886 763.082Q644.825 764.744 641.726 766.331Q638.626 767.918 635.489 769.429Q632.351 770.94 629.178 772.375Q626.005 773.809 622.798 775.166Q619.591 776.523 616.352 777.802Q613.113 779.081 609.844 780.281Q606.575 781.48 603.278 782.6Q599.98 783.72 596.657 784.76C567.901 793.494 536.946 797.769 506.871 796.201C504.138 789.188 458.472 746.156 450.678 739.807Z"/>
</svg>
