<?xml version="1.0" encoding="utf-8" ?>
<svg xmlns="http://www.w3.org/2000/svg" xmlns:xlink="http://www.w3.org/1999/xlink" width="1024" height="1024">
	<path fill="#FDFDFD" d="M0 0L1024 0L1024 1024L0 1024L0 0Z"/>
	<path fill="#43B7FF" d="M169.807 784.219C163.168 775.836 156.566 767.425 150.468 758.637C101.172 687.594 77.0651 607.213 75.3078 521.009C74.724 492.37 76.195 464.014 81.2826 435.789Q82.1964 430.487 83.2415 425.209Q84.2865 419.931 85.4622 414.681Q86.6379 409.43 87.9434 404.211Q89.249 398.991 90.6836 393.805Q92.1182 388.62 93.6811 383.471Q95.2439 378.323 96.9339 373.215Q98.624 368.107 100.44 363.042Q102.256 357.978 104.198 352.96Q106.139 347.942 108.204 342.973Q110.27 338.005 112.457 333.09Q114.645 328.174 116.954 323.314Q119.263 318.455 121.692 313.654Q124.121 308.853 126.668 304.114Q129.216 299.374 131.88 294.7Q134.544 290.025 137.323 285.418Q140.102 280.811 142.995 276.275Q145.887 271.738 148.892 267.274Q151.896 262.811 155.01 258.423Q158.124 254.036 161.346 249.727Q164.568 245.418 167.896 241.19Q171.224 236.962 174.655 232.818Q178.087 228.674 181.62 224.617Q185.154 220.559 188.787 216.59Q192.42 212.622 196.15 208.745Q199.88 204.867 203.706 201.084Q207.531 197.3 211.449 193.613Q215.367 189.925 219.376 186.336Q223.384 182.747 227.48 179.258Q231.576 175.77 235.757 172.384Q239.939 168.998 244.203 165.717Q248.467 162.435 252.811 159.261Q257.155 156.087 261.577 153.021Q264.745 150.823 267.95 148.681Q271.156 146.539 274.399 144.454Q277.641 142.369 280.92 140.341Q284.199 138.313 287.513 136.343Q290.827 134.372 294.175 132.461Q297.523 130.549 300.904 128.696Q304.285 126.844 307.698 125.051Q311.111 123.258 314.555 121.525Q317.999 119.792 321.473 118.12Q324.947 116.448 328.449 114.837Q331.952 113.226 335.482 111.677Q339.013 110.128 342.57 108.641Q346.127 107.154 349.71 105.729Q353.292 104.305 356.899 102.944Q360.506 101.583 364.137 100.285Q367.767 98.9872 371.42 97.7534Q375.072 96.5197 378.746 95.3502Q382.42 94.1807 386.113 93.0759Q389.807 91.9711 393.519 90.9312Q397.232 89.8914 400.962 88.9169Q404.692 87.9424 408.439 87.0335Q412.186 86.1246 415.948 85.2817Q419.71 84.4387 423.486 83.6619Q427.262 82.885 431.052 82.1746Q434.841 81.4642 438.642 80.8204Q442.443 80.1766 446.255 79.5996Q450.067 79.0226 453.889 78.5126Q457.71 78.0026 461.54 77.5598Q465.37 77.1169 469.207 76.7414Q473.044 76.3658 476.887 76.0576Q480.73 75.7495 484.578 75.5088Q488.426 75.2682 492.277 75.0951C523.434 73.5188 555.375 74.9657 586.099 80.5711Q591.493 81.5265 596.862 82.6152Q602.231 83.7039 607.571 84.9252Q612.911 86.1464 618.22 87.4995Q623.528 88.8526 628.802 90.3367Q634.075 91.8209 639.31 93.4351Q644.545 95.0493 649.738 96.7926Q654.932 98.5359 660.08 100.407Q665.229 102.279 670.33 104.277Q675.43 106.275 680.48 108.399Q685.53 110.523 690.525 112.771Q695.521 115.019 700.459 117.391Q705.397 119.762 710.276 122.255Q715.154 124.747 719.969 127.36Q724.784 129.973 729.532 132.704Q734.281 135.435 738.961 138.283Q743.641 141.131 748.248 144.094Q752.856 147.057 757.389 150.133Q761.922 153.209 766.377 156.396Q770.833 159.584 775.208 162.88Q779.583 166.177 783.875 169.581Q788.168 172.985 792.374 176.494Q796.581 180.003 800.699 183.616Q804.818 187.228 808.846 190.941Q812.874 194.654 816.808 198.466Q820.743 202.278 824.582 206.186Q828.421 210.093 832.162 214.095Q835.903 218.097 839.544 222.19Q843.185 226.283 846.723 230.465Q850.262 234.647 853.696 238.916Q857.129 243.184 860.457 247.536Q863.784 251.888 867.002 256.321Q870.22 260.755 873.328 265.266C924.59 342.113 950.409 425.779 948.816 518.267C948.38 543.611 946.335 568.585 941.376 593.49Q940.348 598.833 939.187 604.148Q938.027 609.463 936.736 614.748Q935.444 620.034 934.022 625.285Q932.6 630.537 931.049 635.751Q929.498 640.966 927.818 646.141Q926.138 651.315 924.33 656.447Q922.523 661.579 920.589 666.664Q918.655 671.749 916.596 676.785Q914.537 681.821 912.353 686.804Q910.17 691.787 907.864 696.715Q905.558 701.643 903.131 706.512Q900.704 711.381 898.157 716.189Q895.61 720.997 892.945 725.74Q890.28 730.483 887.499 735.159Q884.717 739.834 881.82 744.44Q878.924 749.045 875.914 753.578Q872.905 758.11 869.784 762.567Q866.663 767.023 863.433 771.401Q860.203 775.779 856.865 780.075Q853.528 784.372 850.085 788.585Q846.642 792.797 843.096 796.924Q839.55 801.05 835.903 805.087Q832.255 809.124 828.51 813.07Q824.764 817.016 820.921 820.867Q817.079 824.719 813.142 828.474Q809.206 832.23 805.178 835.887Q801.149 839.544 797.032 843.1Q792.914 846.656 788.71 850.109Q784.506 853.562 780.217 856.91Q775.929 860.258 771.559 863.499Q767.189 866.74 762.74 869.872Q758.291 873.003 753.766 876.024Q750.073 878.503 746.33 880.906Q742.587 883.308 738.795 885.634Q735.004 887.96 731.166 890.208Q727.327 892.455 723.444 894.624Q719.561 896.793 715.634 898.882Q711.707 900.971 707.738 902.979Q703.769 904.987 699.76 906.914Q695.751 908.84 691.703 910.684Q687.656 912.528 683.571 914.289Q679.487 916.05 675.367 917.727Q671.247 919.404 667.094 920.997Q662.941 922.589 658.756 924.097Q654.572 925.604 650.357 927.025Q646.142 928.446 641.899 929.781Q637.656 931.116 633.387 932.363Q629.117 933.611 624.823 934.771Q620.529 935.931 616.213 937.003Q611.896 938.075 607.558 939.059Q603.22 940.042 598.863 940.937Q594.506 941.832 590.132 942.637Q585.757 943.442 581.367 944.158Q576.977 944.874 572.574 945.499Q568.17 946.125 563.754 946.66Q559.339 947.196 554.913 947.641Q550.487 948.086 546.054 948.44Q541.62 948.795 537.18 949.059Q532.74 949.322 528.295 949.495Q523.85 949.668 519.403 949.75Q514.956 949.832 510.508 949.823Q506.06 949.814 501.613 949.714Q497.167 949.614 492.723 949.423Q488.279 949.232 483.84 948.95C466.515 947.814 449.408 945.961 432.38 942.52C422.17 940.456 412.113 937.791 401.925 935.67C383.486 930.457 365.714 924.124 347.948 916.938Q342.431 914.595 336.976 912.112Q331.521 909.629 326.13 907.008Q320.74 904.387 315.419 901.629Q310.097 898.871 304.847 895.978Q299.598 893.086 294.424 890.06Q289.25 887.035 284.155 883.878Q279.06 880.721 274.047 877.436Q269.034 874.15 264.106 870.738Q259.178 867.326 254.339 863.789Q249.5 860.252 244.753 856.593Q240.006 852.934 235.354 849.155Q230.702 845.376 226.147 841.479Q221.593 837.583 217.139 833.571Q212.686 829.56 208.336 825.436Q203.986 821.313 199.743 817.079Q195.5 812.846 191.366 808.506C184.927 801.775 174.296 792.006 169.807 784.219Z"/>
	<path fill="#ECA270" d="M300.168 243.704C304.395 242.257 311.075 238.999 315.502 239.803C317.279 241.146 318.347 244.014 319.193 246.057C324.406 258.635 328.145 272.108 332.498 285.03C336.499 296.905 341.568 309.223 344.4 321.393L339.917 321.876C337.011 322.64 333.849 323.418 331.586 325.525C330.801 326.255 328.922 329.292 328.169 329.029C327.208 321.502 312.91 277.879 309.082 271.168C304.624 263.069 303.53 252.433 300.168 243.704Z"/>
	<path fill="#F6B42B" d="M300.168 243.704C303.53 252.433 304.624 263.069 309.082 271.168Q270.976 284.115 233.275 298.2C225.972 300.983 217.886 302.917 211.061 306.743C214.351 318.463 219.064 329.522 223.484 340.842C216.909 341.327 210.363 341.477 203.773 341.568C202.459 336.506 200.278 331.406 198.559 326.451C195.668 318.112 192.982 309.711 190.164 301.348C188.73 297.095 186.652 292.421 185.926 288.023C185.745 286.929 185.765 285.934 186.272 284.922C187.232 283.009 189.245 282.142 191.109 281.339C201.211 276.985 212.363 274.28 222.77 270.634L300.168 243.704Z"/>
	<path fill="#FDFDFD" d="M211.415 287.506Q212.236 287.434 213.061 287.438C214.786 287.433 215.979 287.799 217.189 289.106C218.151 290.145 218.556 291.369 218.398 292.778C218.149 295.006 216.876 296.001 215.218 297.288C213.296 297.449 211.537 297.496 210.046 296.023C208.989 294.979 208.532 293.871 208.567 292.393C208.622 290.123 209.877 288.959 211.415 287.506Z"/>
	<path fill="#FDFDFD" d="M223.622 282.918C225.67 283.019 227.434 283.189 228.854 284.891C229.601 285.787 229.927 286.884 229.868 288.039C229.732 290.691 228.388 291.94 226.484 293.558C226.201 293.538 225.916 293.528 225.634 293.499C223.822 293.307 221.912 292.708 220.831 291.114C220.024 289.925 219.753 288.845 219.986 287.433C220.38 285.05 221.737 284.168 223.622 282.918Z"/>
	<path fill="#E25764" d="M223.484 340.842Q237.854 380.205 251.297 419.894C262.302 416.11 273.118 411.756 284.056 407.775C296.199 403.356 308.516 399.299 320.422 394.267C319.647 406.05 317.601 418.788 314.317 430.132C300.764 434.661 287.464 439.764 274.139 444.912C266.792 447.75 258.655 451.804 250.929 453.308C248.858 453.711 247.012 453.46 245.092 452.564C242.725 451.46 241.373 449.946 240.241 447.617C236.004 438.899 233.734 428.538 230.494 419.323L203.773 341.568C210.363 341.477 216.909 341.327 223.484 340.842Z"/>
	<path fill="#FDFDFD" d="M309.082 271.168C312.91 277.879 327.208 321.502 328.169 329.029C327.851 331.217 327.751 333.792 326.958 335.844C326.71 338.258 326.601 345.822 325.128 347.505C325.01 347.64 324.846 347.727 324.705 347.837L324.98 348.925C324.839 351.499 324.55 354.097 324.465 356.669C324.311 358.119 324.126 359.551 324.113 361.01L323.869 362.038C323.579 365.671 322.925 369.425 322.89 373.052L322.463 374.475C322.239 378.098 322.076 381.808 321.282 385.361C320.866 388.308 320.321 391.283 320.422 394.267C308.516 399.299 296.199 403.356 284.056 407.775C273.118 411.756 262.302 416.11 251.297 419.894Q237.855 380.205 223.484 340.842C219.064 329.522 214.351 318.463 211.061 306.743C217.886 302.917 225.972 300.983 233.275 298.2Q270.976 284.115 309.082 271.168Z"/>
	<path fill="#43B7FF" d="M322.463 374.475C322.239 378.098 322.076 381.808 321.282 385.361Q289.045 396.938 256.986 408.999C256.071 406.074 254.985 403.24 253.871 400.386C261.626 398.53 269.542 394.714 277.054 391.928C292.243 386.295 307.628 381 322.463 374.475Z"/>
	<path fill="#43B7FF" d="M249.795 390.034C260.88 386.26 271.805 381.884 282.784 377.807C296.533 372.701 310.369 367.779 323.869 362.038C323.579 365.671 322.925 369.425 322.89 373.052C317.066 374.797 311.229 377.476 305.519 379.622C288.297 386.095 271.016 393.257 253.578 399.038C252.407 395.983 251.233 392.975 249.795 390.034Z"/>
	<path fill="#43B7FF" d="M246.178 378.595C256.369 375.95 266.645 371.187 276.535 367.47C292.69 361.397 309.126 355.736 324.98 348.925C324.839 351.499 324.55 354.097 324.465 356.669C324.311 358.119 324.126 359.551 324.113 361.01C318.56 361.443 310.035 365.802 304.633 367.846C286.506 374.702 268.295 382.388 249.904 388.457C248.453 385.294 247.36 381.871 246.178 378.595Z"/>
	<path fill="#43B7FF" d="M326.958 335.844C326.71 338.258 326.601 345.822 325.128 347.505C325.01 347.64 324.846 347.727 324.705 347.837C317.55 349.251 309.002 353.405 302.09 355.997L246.022 377.218L242.552 367.008C255.889 363.126 268.911 357.786 281.943 352.981C296.969 347.441 312.267 342.222 326.958 335.844Z"/>
	<path fill="#43B7FF" d="M321.86 324.948C323.891 327.588 324.873 332.211 326.269 335.376C316.553 337.526 306.54 342.196 297.183 345.663Q269.922 355.931 242.481 365.711C240.587 363.599 239.284 359.152 238.117 356.473C251.518 353.131 264.645 346.886 277.558 342.001C292.177 336.47 307.794 331.734 321.86 324.948Z"/>
	<path fill="#43B7FF" d="M312.135 298.482L312.772 298.631C315.581 301.577 317.167 309.563 318.435 313.63C311.654 314.829 261.033 333.672 257.153 336.431C264.473 334.948 271.56 331.971 278.534 329.347C291.764 324.37 305.106 318.781 318.644 314.744Q320.172 319.228 321.919 323.63C306.877 328.976 291.955 334.831 277.031 340.501C264.131 345.564 251.209 350.95 237.992 355.132C236.425 351.33 235.054 347.432 233.611 343.581C240.321 340.547 249.591 339.187 254.762 333.691L253.979 332.211C249.501 332.284 237.41 338.078 232.417 340.055C231.304 336.058 229.902 332.107 228.628 328.156L312.135 298.482Z"/>
	<path fill="#EFB991" d="M344.4 321.393L344.973 321.694C347.873 323.2 351.054 324.19 353.982 325.665C359.472 328.429 364.187 333.422 368.578 337.644C375.099 346.319 379.421 355.478 381.276 366.248C385.385 392.545 381.071 417.34 373.357 442.523C371.149 449.733 367.341 457.228 366.416 464.703C365.218 474.393 366.461 485.421 366.799 495.217C367.274 508.948 367.437 522.85 367.079 536.584C367.798 553.791 367.476 571.097 367.489 588.32L367.439 657.7C363.409 663.107 362.539 672.622 360.311 679.033C353.747 697.92 344.472 714.602 333.432 731.163C331.158 734.574 328.869 738.814 326.04 741.731C317.375 735.818 307.887 730.628 298.856 725.268Q279.276 713.61 259.843 701.71Q268.565 683.967 277.106 666.137C272.812 652.574 271.251 637.371 269.91 623.261C268.083 604.034 267.483 584.451 270.25 565.278C272.963 546.472 279.436 528.162 285.681 510.303C295.059 483.486 305.474 457.149 314.317 430.132C317.601 418.788 319.647 406.05 320.422 394.267C320.321 391.283 320.866 388.308 321.282 385.361C322.076 381.808 322.239 378.098 322.463 374.475L322.89 373.052C322.925 369.425 323.579 365.671 323.869 362.038L324.113 361.01C324.126 359.551 324.311 358.119 324.465 356.669C324.55 354.097 324.839 351.499 324.98 348.925L324.705 347.837C324.846 347.727 325.01 347.64 325.128 347.505C326.601 345.822 326.71 338.258 326.958 335.844C327.751 333.792 327.851 331.217 328.169 329.029C328.922 329.292 330.801 326.255 331.586 325.525C333.849 323.418 337.011 322.64 339.917 321.876L344.4 321.393Z"/>
	<path fill="#F7E1CF" d="M339.917 321.876C341.792 321.985 342.746 321.844 344.344 322.878C349.29 332.021 348.04 357.925 346.686 368.427L345.88 369.18L346.015 369.309C346.982 360.225 349.322 348.042 343.076 340.535C340.075 336.928 336.139 334.509 331.372 334.219C329.785 334.123 328.746 334.397 327.556 335.509C326.942 336.914 327.022 338.518 327.618 339.944C329.206 343.74 333.889 348.022 336.449 351.401C338.403 353.98 339.811 356.608 341.302 359.461C342.13 361.046 343.222 362.697 343.449 364.492C339.639 360.887 338.039 355.065 334.378 351.23C331.697 348.421 329.465 344.436 327.22 341.227C326.822 345.079 326.902 353.862 324.465 356.669C324.55 354.097 324.839 351.499 324.98 348.925L324.705 347.837C324.846 347.727 325.01 347.64 325.128 347.505C326.601 345.822 326.71 338.258 326.958 335.844C327.751 333.792 327.851 331.217 328.169 329.029C328.922 329.292 330.801 326.255 331.586 325.525C333.849 323.418 337.011 322.64 339.917 321.876Z"/>
	<path fill="#ECA270" d="M348.315 496.579C356.323 479.423 361.953 461.436 367.749 443.447C371.853 430.708 376.415 417.619 378.934 404.452C379.866 399.58 380.185 394.431 380.282 389.48C380.37 385.039 378.867 368.925 380.35 365.9L381.276 366.248C385.385 392.545 381.071 417.34 373.357 442.523C371.149 449.733 367.341 457.228 366.416 464.703C365.218 474.393 366.461 485.421 366.799 495.217C367.274 508.948 367.437 522.85 367.079 536.584C364.408 533.754 362.605 522.95 361.304 518.985C358.582 510.686 354.509 502.809 348.315 496.579Z"/>
	<path fill="#FDFDFD" d="M368.578 337.644L368.496 279.605C368.488 268.244 367.175 249.335 369.833 238.996Q370.06 238.096 370.331 237.209Q370.602 236.321 370.917 235.448Q371.232 234.575 371.589 233.718Q371.947 232.862 372.346 232.024Q372.745 231.186 373.186 230.369Q373.626 229.552 374.106 228.758Q374.586 227.964 375.105 227.194Q375.623 226.424 376.179 225.681Q376.736 224.938 377.328 224.224Q377.92 223.509 378.546 222.825Q379.173 222.14 379.833 221.487Q380.493 220.834 381.184 220.215Q381.875 219.596 382.596 219.011Q383.317 218.427 384.066 217.879Q384.815 217.331 385.59 216.82Q386.365 216.31 387.164 215.838C391.044 213.568 395.62 211.831 400.115 211.414C411.866 210.323 424.186 211.11 435.997 211.123L502.463 211.142L586.215 211.004C598.083 210.973 624.938 209.612 634.987 212.23C645.34 215.196 654.795 222.055 660.097 231.533Q661.069 233.278 661.87 235.107Q662.672 236.936 663.296 238.833Q663.92 240.73 664.361 242.677Q664.802 244.625 665.056 246.606C666.46 257.084 665.48 268.822 665.465 279.408C665.442 294.764 666.075 310.45 665.118 325.773C664.953 346.287 664.711 366.88 665.099 387.39C665.334 398.576 664.629 409.999 665.408 421.137Q656.098 427.362 646.978 433.862C641.484 436.84 636.921 441.362 631.522 444.25C628.081 448.143 623.225 453.374 622.995 458.791C620.08 470.893 630.725 476.275 630.526 481.857C635.856 487.767 639.899 492.8 647.016 496.654L647.014 513.433C641.397 517.419 635.75 521.057 630.476 525.523C628.055 529.551 625.061 533.487 624.318 538.26C624.106 539.625 624.292 541.074 624.034 542.4L623.692 542.542C625.818 545.13 626.537 551.024 627.682 554.307L629.957 558.646C633.379 562.902 636.728 566.963 640.856 570.575C643.033 572.48 645.986 574.117 647.893 576.192C647.257 581.349 647.5 586.744 647.856 591.92C640.879 597.282 633.353 602.569 630.516 611.337L630.445 612.286C629.642 615.106 629.897 618.463 630.135 621.361C633.521 628.705 637.382 635.336 642.54 641.6C644.192 643.605 646.421 645.432 647.923 647.472L647.929 660.688L505.388 660.925C504.905 662.334 504.371 663.203 503.385 664.326C491.554 677.805 478.041 690.124 465.349 702.797C462.691 705.452 457.122 712.295 454.255 713.914C453.697 714.229 453.637 714.211 453.102 714.336C441.884 714.63 430.586 714.383 419.359 714.422C411.069 714.45 402.328 715.018 394.1 714.033C385.78 713.037 378.083 710.294 372.594 703.673C371.117 701.891 370.06 699.831 368.617 698.026L367.996 697.259C366.476 686.686 367.452 669.048 367.439 657.7L367.489 588.32C367.476 571.097 367.798 553.791 367.079 536.584C367.437 522.85 367.274 508.948 366.799 495.217C366.461 485.421 365.218 474.393 366.416 464.703C367.341 457.228 371.149 449.733 373.357 442.523C381.071 417.34 385.385 392.545 381.276 366.248C379.421 355.478 375.099 346.319 368.578 337.644Z"/>
	<path fill="#43B7FF" d="M405.043 290.378C412.026 290.373 470.73 289.498 473.186 290.55C473.58 290.719 473.87 291.069 474.212 291.328C474.644 292.768 474.334 293.596 473.896 294.962C460.435 295.34 446.884 295.005 433.412 295.063C424.766 295.1 415.619 295.777 407.017 295.071C406.225 295.006 405.811 294.853 405.174 294.389C404.478 292.947 404.779 291.878 405.043 290.378Z"/>
	<path fill="#43B7FF" d="M405.773 278.497C413.519 278.076 469.938 277.712 472.638 278.684C473.631 279.042 474.284 279.693 474.445 280.764C474.649 282.118 474.142 283.107 473.43 284.189L425.687 284.349C420.378 284.374 411.442 285.221 406.538 284.262C405.415 284.043 405.273 283.434 404.758 282.532C404.718 280.889 405.069 279.969 405.773 278.497Z"/>
	<path fill="#43B7FF" d="M607.445 278.091C613.258 277.762 619.15 277.861 624.969 277.984C626.187 278.833 627.356 279.691 628.24 280.905C629.793 283.037 630.454 286.147 629.999 288.733C629.393 292.17 627.843 294.043 625.028 295.942C620.385 296.084 615.274 296.641 610.673 296.049C608.025 295.708 605.5 294.781 603.904 292.531C602.251 290.201 601.874 286.66 602.455 283.917C603.062 281.052 605.112 279.583 607.445 278.091Z"/>
	<path fill="#2D508C" d="M634.987 212.23C645.34 215.196 654.795 222.055 660.097 231.533Q661.069 233.278 661.87 235.107Q662.672 236.936 663.296 238.833Q663.92 240.73 664.361 242.677Q664.802 244.625 665.056 246.606C666.46 257.084 665.48 268.822 665.465 279.408C665.442 294.764 666.075 310.45 665.118 325.773C664.953 346.287 664.711 366.88 665.099 387.39C665.334 398.576 664.629 409.999 665.408 421.137Q656.098 427.362 646.978 433.862L647.057 324.271C647.028 305.096 646.022 283.677 647.233 264.774C647.249 264.678 647.267 264.582 647.28 264.485C647.886 260.08 647.587 255.355 647.586 250.913C647.583 233.861 645.203 225.903 634.987 212.23Z"/>
	<path fill="#C0C1BF" d="M402.414 404.069L531.699 404.168C564.219 404.397 597.023 405.225 629.521 404.344C629.59 409.635 631.296 423.682 627.724 427.346C626.65 428.446 623.977 428.509 622.521 428.593C611.051 429.257 599.219 428.606 587.699 428.595L517.961 428.554L446.057 428.517C433.594 428.525 420.823 429.105 408.386 428.445C406.845 428.363 405.808 428.08 404.663 426.962C400.587 422.982 402.322 409.412 402.414 404.069Z"/>
	<path fill="#43B7FF" d="M408.704 554.244C426.98 553.922 445.28 554.309 463.557 554.338C474.279 554.354 485.134 553.816 495.839 554.268C497.569 554.34 499.766 554.458 501.333 555.203C502.49 555.753 503.413 557.187 503.895 558.325C504.986 560.902 505.068 641.299 503.967 643.681C502.929 645.924 500.729 646.71 498.531 647.362C489.756 647.701 411.73 648.338 408.025 647.144C406.592 646.682 405.157 645.182 404.588 643.793C403.965 642.273 403.833 640.304 403.777 638.682C403.344 626.098 403.892 613.321 403.841 600.714C403.789 587.691 403.131 574.409 403.716 561.411C403.776 560.075 403.819 558.244 404.55 557.079C405.587 555.428 406.881 554.731 408.704 554.244Z"/>
	<path fill="#E8FBFC" d="M420.617 624.222C427.572 623.91 483.656 623.347 486.05 624.304C486.724 624.573 486.769 625.195 487.037 625.814C480.173 626.346 423.154 626.64 421.3 625.758C420.699 625.472 420.761 624.812 420.617 624.222Z"/>
	<path fill="#FDFDFD" d="M426.393 578.973L483.17 579.069L483.147 594.724L426.393 594.464L426.393 578.973Z"/>
	<path fill="#FDFDFD" d="M427.661 599.745C446.178 599.381 464.819 599.487 483.338 599.779C483.356 603.69 483.416 607.608 483.359 611.518C483.336 613.151 483.642 614.732 482.447 615.904L426.405 615.892C426.346 611.403 425.473 604.382 426.714 600.127L427.661 599.745Z"/>
	<path fill="#B0E0F2" d="M406.334 441.522L469.386 441.593C478.603 441.611 488.27 440.867 497.426 441.543C499.376 441.687 500.946 441.885 502.535 443.103C504.325 451.367 503.449 460.727 503.457 469.184L503.504 510.439C503.512 517.274 504.417 532.93 503.394 538.885C503.09 540.653 501.753 541.514 500.384 542.442C483.155 543.112 465.718 542.652 448.47 542.718C436.408 542.765 423.789 543.578 411.781 542.673C409.316 542.487 406.775 542.156 404.585 540.959C403.881 539.296 403.658 537.479 403.537 535.687C403.141 529.839 403.455 523.792 403.474 517.921L403.566 484.233C403.561 474.102 402.417 456.193 403.694 446.788C404.014 444.431 404.789 443.304 406.334 441.522Z"/>
	<path fill="#E25764" d="M449.992 467.563C455.486 467.265 460.257 467.32 465.318 469.912Q465.839 470.18 466.345 470.475Q466.851 470.769 467.341 471.089Q467.832 471.409 468.305 471.754Q468.778 472.099 469.233 472.468Q469.688 472.836 470.123 473.228Q470.558 473.62 470.973 474.033Q471.388 474.447 471.781 474.881Q472.173 475.315 472.543 475.769Q472.913 476.223 473.259 476.695Q473.606 477.168 473.927 477.657Q474.248 478.147 474.544 478.652Q474.84 479.157 475.109 479.677Q475.379 480.197 475.621 480.73Q475.864 481.263 476.078 481.808Q476.293 482.353 476.479 482.908Q476.665 483.463 476.823 484.027C478.541 490.008 477.941 496.773 474.726 502.151C471.04 508.317 465.158 511.313 458.404 512.926C453.484 513.719 448.53 513.1 444.067 510.818Q443.543 510.544 443.033 510.244Q442.523 509.945 442.028 509.62Q441.533 509.296 441.055 508.948Q440.577 508.599 440.117 508.228Q439.656 507.856 439.215 507.463Q438.773 507.069 438.352 506.654Q437.93 506.239 437.53 505.804Q437.129 505.368 436.75 504.914Q436.372 504.46 436.016 503.987Q435.66 503.514 435.328 503.025Q434.996 502.535 434.688 502.03Q434.381 501.525 434.099 501.005Q433.816 500.485 433.56 499.952Q433.304 499.419 433.074 498.874Q432.844 498.329 432.642 497.773Q432.439 497.217 432.264 496.652Q432.09 496.093 431.946 495.527Q431.801 494.96 431.686 494.386Q431.571 493.813 431.485 493.234Q431.399 492.656 431.343 492.073Q431.287 491.491 431.261 490.907Q431.235 490.322 431.239 489.737Q431.243 489.153 431.277 488.569Q431.311 487.985 431.375 487.403Q431.439 486.822 431.533 486.244Q431.627 485.667 431.75 485.095Q431.873 484.523 432.026 483.959Q432.178 483.394 432.359 482.838Q432.541 482.282 432.75 481.735Q432.96 481.189 433.197 480.655Q433.434 480.12 433.699 479.598Q433.963 479.077 434.254 478.569C437.779 472.482 443.373 469.297 449.992 467.563Z"/>
	<path fill="#E8FBFC" d="M449.838 480.854C454.585 483.766 459.139 487.216 463.711 490.405C462.102 491.68 460.393 492.855 458.735 494.068L449.993 499.861C449.819 493.521 449.601 487.195 449.838 480.854Z"/>
	<path fill="#A8CEB1" d="M626.44 647.491L565.277 647.56C554.313 647.566 542.553 648.402 531.678 647.328C529.555 647.118 527.347 646.925 525.718 645.4C523.327 643.161 523.836 638.82 523.835 635.803L524.012 588.714C524.052 580.038 523.623 571.077 524.3 562.44C524.421 560.889 524.623 556.836 525.774 555.867C527.325 554.562 529.47 554.35 531.42 554.223C535.122 553.982 538.935 554.355 542.651 554.348L573.941 554.375C591.773 554.404 609.893 553.565 627.682 554.307L629.957 558.646C633.379 562.902 636.728 566.963 640.856 570.575C643.033 572.48 645.986 574.117 647.893 576.192C647.257 581.349 647.5 586.744 647.856 591.92C640.879 597.282 633.353 602.569 630.516 611.337L630.445 612.286C629.642 615.106 629.897 618.463 630.135 621.361C630.241 628.102 631.518 635.685 630.333 642.304C629.829 645.118 628.745 645.885 626.44 647.491Z"/>
	<path fill="#FDFDFD" d="M629.957 558.646C633.379 562.902 636.728 566.963 640.856 570.575C643.033 572.48 645.986 574.117 647.893 576.192C647.257 581.349 647.5 586.744 647.856 591.92C640.879 597.282 633.353 602.569 630.516 611.337C629.58 607.866 630.326 602.442 630.348 598.767C630.428 585.595 631.324 571.739 629.957 558.646Z"/>
	<path fill="#43B7FF" d="M564.837 617.562C560.73 614.753 557.147 610.747 555.261 606.122C552.852 600.21 553.291 593.675 555.765 587.862C558.468 581.511 563.281 576.568 569.808 574.187C576.756 571.652 582.73 572.967 589.14 576.091C585.515 582.204 577.208 591.71 575.775 598.079C573.413 595.191 571.076 592.41 568.3 589.908C565.895 591.955 563.871 594.215 562.066 596.81C565.173 600.829 568.437 604.615 571.835 608.385C569.424 611.396 567.05 614.402 564.837 617.562Z"/>
	<path fill="#0B78A3" d="M589.14 576.091C594.991 579.533 599.3 584.791 600.949 591.468C602.519 597.826 601.47 604.263 598.043 609.836C594.496 615.607 588.706 619.968 582.013 621.295C576.224 622.443 570.104 621.058 565.192 617.818C565.07 617.738 564.955 617.647 564.837 617.562C567.05 614.402 569.424 611.396 571.835 608.385C568.437 604.615 565.173 600.829 562.066 596.81C563.871 594.215 565.895 591.955 568.3 589.908C571.076 592.41 573.413 595.191 575.775 598.079C577.208 591.71 585.515 582.204 589.14 576.091Z"/>
	<path fill="#FDFDFD" d="M588.44 588.887C590.636 590.693 592.371 592.48 594.14 594.698C589.85 601.916 582.497 607.931 577.261 614.593C575.523 612.43 573.818 610.332 571.835 608.385C568.437 604.615 565.173 600.829 562.066 596.81C563.871 594.215 565.895 591.955 568.3 589.908C571.076 592.41 573.413 595.191 575.775 598.079L577.123 599.431C578.69 599.368 579.971 597.965 580.985 596.883C583.479 594.223 585.555 591.151 588.44 588.887Z"/>
	<path fill="#F6B42B" d="M623.692 542.542C599.409 543.147 575.074 542.709 550.786 542.566C544.47 542.529 528.974 543.485 523.768 541.987C522.678 541.673 522.144 541.05 521.651 540.052C520.786 538.3 520.506 535.941 520.429 534.013C520.016 523.706 520.532 513.234 520.561 502.908C520.591 492.108 519.628 450.616 521.853 443.53C522.45 442.802 522.957 442.603 523.848 442.391C530.177 440.892 538.046 441.742 544.532 441.76L578.14 441.827L607.617 441.787C613.365 441.783 619.268 441.508 624.989 442.019C627.622 442.255 629.237 442.912 631.522 444.25C628.081 448.143 623.225 453.374 622.995 458.791C620.08 470.893 630.725 476.275 630.526 481.857C635.856 487.767 639.899 492.8 647.016 496.654L647.014 513.433C641.397 517.419 635.75 521.057 630.476 525.523C628.055 529.551 625.061 533.487 624.318 538.26C624.106 539.625 624.292 541.074 624.034 542.4L623.692 542.542Z"/>
	<path fill="#FDFDFD" d="M630.526 481.857C635.856 487.767 639.899 492.8 647.016 496.654L647.014 513.433C641.397 517.419 635.75 521.057 630.476 525.523C630.624 510.969 630.244 496.411 630.526 481.857Z"/>
	<path fill="#D51929" d="M549.56 473.689C549.47 470.756 548.909 466.55 551.175 464.247C551.319 464.102 552.064 463.564 552.347 463.502C556.658 462.555 591.676 462.873 597.003 463.458C597.707 463.535 597.565 463.582 598.353 464.021C600.054 466.781 599.589 470.63 599.538 473.769L560.403 473.696L549.56 473.689Z"/>
	<path fill="#F4CC6A" d="M560.403 473.696L599.538 473.769L600.656 475.358C601.138 477.163 601.596 478.87 601.745 480.737L601.86 483.21C595.922 484.131 589.046 483.519 583.01 483.516L546.917 483.474L547.644 479.533L548.218 477.194C548.511 476.361 548.723 475.132 549.418 474.566C550.618 473.589 552.011 473.584 553.463 473.747C555.434 473.969 557.843 474.29 559.79 473.851C559.996 473.804 560.199 473.748 560.403 473.696Z"/>
	<path fill="#FDFDFD" d="M548.218 477.194C550.859 477.486 553.597 477.514 556.206 477.95L555.843 479.456C553.604 480.673 550.968 480.487 548.509 480.32L547.644 479.533L548.218 477.194Z"/>
	<path fill="#FDFDFD" d="M600.656 475.358C601.138 477.163 601.596 478.87 601.745 480.737C599.958 480.747 597.408 481.023 595.713 480.498C594.342 480.073 594.331 479.31 593.911 478.097C595.668 476.217 598.266 475.898 600.656 475.358Z"/>
	<path fill="#D51929" d="M601.86 483.21L603.272 483.694C604.36 485.861 604.6 516.066 603.722 518.48C603.43 519.285 602.929 519.677 602.214 520.064C600.948 520.749 599.556 520.9 598.143 521.002C592.886 521.381 544.457 521.337 542.126 520.251C541.07 519.759 540.916 519.254 540.655 518.172C539.831 514.75 539.531 487.188 541.347 484.95C542.647 483.349 544.413 483.458 546.28 483.465L546.917 483.474L583.01 483.516C589.046 483.519 595.922 484.131 601.86 483.21Z"/>
	<path fill="#B0E0F2" d="M402.748 368.136C402.766 367.983 402.785 367.829 402.802 367.675C403.7 359.21 401.439 318.035 404.361 314.78C405.924 313.99 407.198 313.775 408.949 313.723C422.188 313.325 435.629 313.818 448.893 313.805L541.641 313.756L609.011 313.959C613.943 314.017 622.44 313.077 627.043 314.338C628.209 314.658 628.777 315.419 629.252 316.488C630.348 318.951 629.941 322.453 629.471 325.023C628.116 326.673 626.406 326.914 624.369 327.09C616.54 327.764 579.55 325.078 575.663 328.865C574.403 330.092 573.751 332.192 573.845 333.934C573.915 335.244 574.268 336.292 575.281 337.181C576.52 338.269 578.357 338.799 579.956 339.03C583.925 339.605 588.27 339.192 592.291 339.173L616.498 339.062C619.669 339.037 623.773 338.476 626.797 339.394C628.555 339.928 629.532 340.86 629.986 342.651C630.678 345.378 629.153 349.052 627.997 351.486C622.94 351.507 604.231 350 601.275 353.127C600.029 354.445 599.576 355.871 599.777 357.669C599.954 359.253 601.066 360.722 602.375 361.566C608.815 365.717 624.602 358.509 629.452 364.645C631.028 370.704 630.166 379.887 629.519 386.186L629.521 404.344C597.023 405.225 564.219 404.397 531.699 404.168L402.414 404.069L402.508 388.708C402.499 381.872 402.294 374.957 402.748 368.136Z"/>
	<path fill="#E8FBFC" d="M468.109 335.07C469.996 335.235 472.147 335.612 473.852 336.45Q474.292 336.668 474.707 336.928Q475.123 337.189 475.512 337.489Q475.9 337.789 476.257 338.125Q476.614 338.462 476.936 338.832Q477.258 339.202 477.542 339.602Q477.826 340.002 478.07 340.429Q478.313 340.855 478.513 341.303Q478.714 341.75 478.869 342.216Q479.017 342.681 479.119 343.159Q479.221 343.637 479.276 344.122Q479.33 344.607 479.337 345.096Q479.344 345.584 479.304 346.071Q479.263 346.557 479.175 347.038Q479.087 347.518 478.952 347.987Q478.817 348.457 478.637 348.911Q478.457 349.365 478.234 349.799C476.452 353.281 473.783 354.559 470.187 355.631C468.191 356.066 466.745 356.175 464.867 355.252C462.63 354.153 461.158 352.123 460.383 349.793C459.31 346.57 459.483 342.917 461.165 339.93C462.745 337.124 465.094 335.861 468.109 335.07Z"/>
	<path fill="#FDFDFD" d="M467.48 337.376C468.013 337.392 468.546 337.388 469.079 337.419C471.124 337.537 473.226 339.478 474.432 341.02C475.556 342.458 476.172 344.477 475.787 346.29C475.337 348.415 473.599 349.196 471.868 350.126Q471.276 350.243 470.681 350.34C468.861 350.629 467.137 350.509 465.687 349.21C464.766 348.386 464.335 347.273 464.196 346.078C463.774 342.439 465.358 340.112 467.48 337.376Z"/>
	<path fill="#F6B42B" d="M546.148 349.393C556.887 349.279 567.772 349.023 578.504 349.433C585.549 357.891 591.005 367.77 597.004 376.986C595.961 380.486 592.865 383.924 589.637 385.649C588.073 386.485 586.545 386.647 584.797 386.768C573.487 387.55 561.699 386.896 550.343 386.875C542.676 386.861 533.75 387.813 526.278 386.461L525.293 385.154C526.646 382.22 528.237 379.476 529.877 376.696C534.977 368.237 539.573 356.525 546.148 349.393Z"/>
	<path fill="#34AE6E" d="M461.476 377.909C464.08 372.453 467.17 363.665 471.963 359.902C474.955 357.553 500.767 358.238 505.329 359.004C511.529 360.047 516.69 371.353 520.014 376.203C523.284 376.357 526.623 376.378 529.877 376.696C528.237 379.476 526.646 382.22 525.293 385.154L526.278 386.461C524.683 389.131 523.243 391.554 521.016 393.754L520.554 394.22C513.376 394.816 506.062 394.596 498.86 394.638Q480.794 394.686 462.729 394.926C460.679 393.962 458.549 392.741 457.759 390.468C456.36 386.444 459.752 381.36 461.476 377.909Z"/>
	<path fill="#63B0AA" d="M520.014 376.203C523.284 376.357 526.623 376.378 529.877 376.696C528.237 379.476 526.646 382.22 525.293 385.154C523.038 382.651 521.513 379.189 520.014 376.203Z"/>
	<path fill="#7A9598" d="M402.748 368.136C412.037 372.937 432.442 380.791 442.838 380.366C449.092 380.111 455.245 378.178 461.476 377.909C459.752 381.36 456.36 386.444 457.759 390.468C458.549 392.741 460.679 393.962 462.729 394.926Q480.794 394.686 498.86 394.638C506.062 394.596 513.376 394.816 520.554 394.22L521.016 393.754C523.243 391.554 524.683 389.131 526.278 386.461C533.75 387.813 542.676 386.861 550.343 386.875C561.699 386.896 573.487 387.55 584.797 386.768C586.545 386.647 588.073 386.485 589.637 385.649C592.865 383.924 595.961 380.486 597.004 376.986C605.672 379.207 621.738 382.564 629.519 386.186L629.521 404.344C597.023 405.225 564.219 404.397 531.699 404.168L402.414 404.069L402.508 388.708C402.499 381.872 402.294 374.957 402.748 368.136Z"/>
	<path fill="#C0C1BF" d="M402.748 368.136C412.037 372.937 432.442 380.791 442.838 380.366C449.092 380.111 455.245 378.178 461.476 377.909C459.752 381.36 456.36 386.444 457.759 390.468C458.549 392.741 460.679 393.962 462.729 394.926C460.868 395.569 458.723 395.507 456.763 395.526C443.802 395.655 437.021 388.27 426.013 386.75C418.75 385.747 409.883 388.133 402.508 388.708C402.499 381.872 402.294 374.957 402.748 368.136Z"/>
	<path fill="#0B5CB8" d="M368.578 337.644L368.496 279.605C368.488 268.244 367.175 249.335 369.833 238.996Q370.06 238.096 370.331 237.209Q370.602 236.321 370.917 235.448Q371.232 234.575 371.589 233.718Q371.947 232.862 372.346 232.024Q372.745 231.186 373.186 230.369Q373.626 229.552 374.106 228.758Q374.586 227.964 375.105 227.194Q375.623 226.424 376.179 225.681Q376.736 224.938 377.328 224.224Q377.92 223.509 378.546 222.825Q379.173 222.14 379.833 221.487Q380.493 220.834 381.184 220.215Q381.875 219.596 382.596 219.011Q383.317 218.427 384.066 217.879Q384.815 217.331 385.59 216.82Q386.365 216.31 387.164 215.838C391.044 213.568 395.62 211.831 400.115 211.414C411.866 210.323 424.186 211.11 435.997 211.123L502.463 211.142L586.215 211.004C598.083 210.973 624.938 209.612 634.987 212.23C645.203 225.903 647.583 233.861 647.586 250.913C647.587 255.355 647.886 260.08 647.28 264.485C647.267 264.582 647.249 264.678 647.233 264.774C647.161 263.002 647.55 261.642 646.249 260.375C637.37 259.664 627.981 260.386 619.057 260.414L564.334 260.452L387.99 260.441L388.21 660.791L505.388 660.925C504.905 662.334 504.371 663.203 503.385 664.326C491.554 677.805 478.041 690.124 465.349 702.797C462.691 705.452 457.122 712.295 454.255 713.914C453.697 714.229 453.637 714.211 453.102 714.336C441.884 714.63 430.586 714.383 419.359 714.422C411.069 714.45 402.328 715.018 394.1 714.033C385.78 713.037 378.083 710.294 372.594 703.673C371.117 701.891 370.06 699.831 368.617 698.026L367.996 697.259C366.476 686.686 367.452 669.048 367.439 657.7L367.489 588.32C367.476 571.097 367.798 553.791 367.079 536.584C367.437 522.85 367.274 508.948 366.799 495.217C366.461 485.421 365.218 474.393 366.416 464.703C367.341 457.228 371.149 449.733 373.357 442.523C381.071 417.34 385.385 392.545 381.276 366.248C379.421 355.478 375.099 346.319 368.578 337.644Z"/>
	<path fill="#FDFDFD" d="M483.165 232.17C495.373 231.704 507.721 232.041 519.944 232.012C527.423 231.995 535.56 231.313 542.962 232.158C544.484 232.332 545.986 232.681 547.071 233.86C547.885 234.743 548.168 235.982 547.976 237.151C547.646 239.159 546.432 240.055 544.823 241.011C527.217 241.318 509.565 240.996 491.953 241.04C488.992 241.047 482.263 241.771 480.328 239.248C479.323 237.938 479.399 236.317 479.757 234.808C480.753 233.434 481.66 232.923 483.165 232.17Z"/>
	<path fill="#0E8BCC" d="M873.328 265.266C924.59 342.113 950.409 425.779 948.816 518.267C948.38 543.611 946.335 568.585 941.376 593.49Q940.348 598.833 939.187 604.148Q938.027 609.463 936.736 614.748Q935.444 620.034 934.022 625.285Q932.6 630.537 931.049 635.751Q929.498 640.966 927.818 646.141Q926.138 651.315 924.33 656.447Q922.523 661.579 920.589 666.664Q918.655 671.749 916.596 676.785Q914.537 681.821 912.353 686.804Q910.17 691.787 907.864 696.715Q905.558 701.643 903.131 706.512Q900.704 711.381 898.157 716.189Q895.61 720.997 892.945 725.74Q890.28 730.483 887.499 735.159Q884.717 739.834 881.82 744.44Q878.924 749.045 875.914 753.578Q872.905 758.11 869.784 762.567Q866.663 767.023 863.433 771.401Q860.203 775.779 856.865 780.075Q853.528 784.372 850.085 788.585Q846.642 792.797 843.096 796.924Q839.55 801.05 835.903 805.087Q832.255 809.124 828.51 813.07Q824.764 817.016 820.921 820.867Q817.079 824.719 813.142 828.474Q809.206 832.23 805.178 835.887Q801.149 839.544 797.032 843.1Q792.914 846.656 788.71 850.109Q784.506 853.562 780.217 856.91Q775.929 860.258 771.559 863.499Q767.189 866.74 762.74 869.872Q758.291 873.003 753.766 876.024Q750.073 878.503 746.33 880.906Q742.587 883.308 738.795 885.634Q735.004 887.96 731.166 890.208Q727.327 892.455 723.444 894.624Q719.561 896.793 715.634 898.882Q711.707 900.971 707.738 902.979Q703.769 904.987 699.76 906.914Q695.751 908.84 691.703 910.684Q687.656 912.528 683.571 914.289Q679.487 916.05 675.367 917.727Q671.247 919.404 667.094 920.997Q662.941 922.589 658.756 924.097Q654.572 925.604 650.357 927.025Q646.142 928.446 641.899 929.781Q637.656 931.116 633.387 932.363Q629.117 933.611 624.823 934.771Q620.529 935.931 616.213 937.003Q611.896 938.075 607.558 939.059Q603.22 940.042 598.863 940.937Q594.506 941.832 590.132 942.637Q585.757 943.442 581.367 944.158Q576.977 944.874 572.574 945.499Q568.17 946.125 563.754 946.66Q559.339 947.196 554.913 947.641Q550.487 948.086 546.054 948.44Q541.62 948.795 537.18 949.059Q532.74 949.322 528.295 949.495Q523.85 949.668 519.403 949.75Q514.956 949.832 510.508 949.823Q506.06 949.814 501.613 949.714Q497.167 949.614 492.723 949.423Q488.279 949.232 483.84 948.95C466.515 947.814 449.408 945.961 432.38 942.52C422.17 940.456 412.113 937.791 401.925 935.67C383.486 930.457 365.714 924.124 347.948 916.938Q342.431 914.595 336.976 912.112Q331.521 909.629 326.13 907.008Q320.74 904.387 315.419 901.629Q310.097 898.871 304.847 895.978Q299.598 893.086 294.424 890.06Q289.25 887.035 284.155 883.878Q279.06 880.721 274.047 877.436Q269.034 874.15 264.106 870.738Q259.178 867.326 254.339 863.789Q249.5 860.252 244.753 856.593Q240.006 852.934 235.354 849.155Q230.702 845.376 226.147 841.479Q221.593 837.583 217.139 833.571Q212.686 829.56 208.336 825.436Q203.986 821.313 199.743 817.079Q195.5 812.846 191.366 808.506C184.927 801.775 174.296 792.006 169.807 784.219C172.897 777.446 177.383 770.812 181.016 764.249Q193.101 742.079 205.664 720.177Q212.638 724.289 219.473 728.628Q230.767 709.564 241.766 690.329C247.669 694.288 253.817 697.936 259.843 701.71Q279.276 713.61 298.856 725.268C307.887 730.628 317.375 735.818 326.04 741.731C328.869 738.814 331.158 734.574 333.432 731.163C344.472 714.602 353.747 697.92 360.311 679.033C362.539 672.622 363.409 663.107 367.439 657.7C367.452 669.048 366.476 686.686 367.996 697.259L368.617 698.026C370.06 699.831 371.117 701.891 372.594 703.673C378.083 710.294 385.78 713.037 394.1 714.033C402.328 715.018 411.069 714.45 419.359 714.422C430.586 714.383 441.884 714.63 453.102 714.336C453.637 714.211 453.697 714.229 454.255 713.914C457.122 712.295 462.691 705.452 465.349 702.797C478.041 690.124 491.554 677.805 503.385 664.326C504.371 663.203 504.905 662.334 505.388 660.925L647.929 660.688L647.923 647.472C646.421 645.432 644.192 643.605 642.54 641.6C637.382 635.336 633.521 628.705 630.135 621.361C629.897 618.463 629.642 615.106 630.445 612.286L630.516 611.337C633.353 602.569 640.879 597.282 647.856 591.92C647.5 586.744 647.257 581.349 647.893 576.192C645.986 574.117 643.033 572.48 640.856 570.575C636.728 566.963 633.379 562.902 629.957 558.646L627.682 554.307C626.537 551.024 625.818 545.13 623.692 542.542L624.034 542.4C624.292 541.074 624.106 539.625 624.318 538.26C625.061 533.487 628.055 529.551 630.476 525.523C635.75 521.057 641.397 517.419 647.014 513.433L647.016 496.654C639.899 492.8 635.856 487.767 630.526 481.857C630.725 476.275 620.08 470.893 622.995 458.791C623.225 453.374 628.081 448.143 631.522 444.25C636.921 441.362 641.484 436.84 646.978 433.862Q656.098 427.362 665.408 421.137C664.629 409.999 665.334 398.576 665.099 387.39C664.711 366.88 664.953 346.287 665.118 325.773C678.754 323.501 692.977 318.613 705.509 327.236C711.575 331.409 714.659 337.013 716.931 343.804Q727.282 325.048 736.85 305.88C740.525 298.52 743.815 290.492 748.134 283.518C751.047 278.813 753.878 277.886 759.001 276.684C767.059 278.84 775.101 283.615 782.601 287.295C798.09 294.893 813.391 302.817 828.996 310.184C834.584 303.461 841.24 297.406 847.436 291.235L873.328 265.266Z"/>
	<path fill="#C0C1BF" d="M831.133 311.359C835.866 313.89 840.607 316.117 842.26 321.681Q842.731 323.321 843.104 324.986C841.031 332.63 836.931 340.015 833.51 347.153C824.703 365.531 814.893 383.344 805.622 401.484L783.291 445.612C779.835 452.325 776.588 459.432 772.596 465.84C771.583 467.467 770.559 468.437 768.919 469.429C766.358 470.979 764.239 471.15 761.345 470.414C755.897 469.029 733.206 456.528 728.098 452.879C730.884 450.78 734.038 449.079 736.904 447.064C743.81 442.21 750.78 436.751 757.131 431.201C764.511 434.799 771.885 438.723 778.998 442.816C786.644 430.31 792.77 416.397 799.476 403.346L830.758 343.463C831.398 342.903 831.71 342.455 832.08 341.692C837.198 331.164 834.557 321.698 831.133 311.359Z"/>
	<path fill="#C0C1BF" d="M374.977 771.464C383.167 775.963 391.003 781.339 398.87 786.394C407.556 791.976 416.435 797.43 424.916 803.309C431.045 807.379 437.28 811.353 443.19 815.734C437.193 828.122 429.021 839.527 422.331 851.557C413.526 845.853 404.193 840.702 395.197 835.276C380.899 826.668 366.345 818.369 352.329 809.315C360.4 796.995 367.755 784.295 374.977 771.464Z"/>
	<path fill="#173B75" d="M395.197 835.276C404.193 840.702 413.526 845.853 422.331 851.557Q431.831 857.443 441.636 862.805L417.269 907.556C412.276 916.884 407.608 926.751 401.925 935.67C383.486 930.457 365.714 924.124 347.948 916.938C349.48 911.098 355.023 904.302 358.154 899.023C366.933 884.22 375.984 869.586 384.54 854.652C388.188 848.284 392.129 841.939 395.197 835.276Z"/>
	<path fill="#ECA270" d="M678.966 572.077C686.303 569.506 692.729 569.373 699.855 572.796Q700.585 573.149 701.296 573.539Q702.007 573.928 702.698 574.352Q703.389 574.776 704.057 575.234Q704.726 575.692 705.372 576.183Q706.017 576.673 706.637 577.196Q707.257 577.718 707.85 578.27Q708.444 578.822 709.009 579.404Q709.574 579.985 710.11 580.593Q710.645 581.202 711.15 581.836Q711.654 582.471 712.127 583.13Q712.599 583.788 713.038 584.47Q713.478 585.151 713.882 585.854Q714.287 586.556 714.656 587.278Q715.025 587.999 715.358 588.739Q715.691 589.478 715.987 590.233Q716.282 590.987 716.54 591.756C718.975 598.934 718.964 607.453 715.486 614.28C713.975 617.246 712.027 619.588 709.506 621.731C703.085 627.191 695.123 631.294 687.977 635.78C680.948 640.193 674.008 645.306 666.524 648.873C663.63 649.87 660.926 650.493 657.846 650.612C654.096 650.287 651.2 649.206 647.923 647.472C646.421 645.432 644.192 643.605 642.54 641.6C637.382 635.336 633.521 628.705 630.135 621.361C629.897 618.463 629.642 615.106 630.445 612.286L630.516 611.337C633.353 602.569 640.879 597.282 647.856 591.92C647.5 586.744 647.257 581.349 647.893 576.192L648.55 576.026C655.23 577.969 659.407 576.845 665.892 574.716L668.012 573.543C669.071 574.918 669.249 576.107 669.54 577.794C672.617 575.778 675.794 573.937 678.966 572.077Z"/>
	<path fill="#173B75" d="M668.012 573.543C669.071 574.918 669.249 576.107 669.54 577.794L665.552 580.351C659.755 584.354 653.779 588.108 647.856 591.92C647.5 586.744 647.257 581.349 647.893 576.192L648.55 576.026C655.23 577.969 659.407 576.845 665.892 574.716L668.012 573.543Z"/>
	<path fill="#0B5CB8" d="M668.012 573.543C669.071 574.918 669.249 576.107 669.54 577.794L665.552 580.351L665.892 574.716L668.012 573.543Z"/>
	<path fill="#EFB991" d="M630.445 612.286C630.585 615.141 630.427 617.98 630.307 620.833C631.994 618.515 633.611 616.325 635.671 614.317C640.492 627.497 650.543 636.725 656.557 648.978C656.901 649.679 657.259 650.104 657.846 650.612C654.096 650.287 651.2 649.206 647.923 647.472C646.421 645.432 644.192 643.605 642.54 641.6C637.382 635.336 633.521 628.705 630.135 621.361C629.897 618.463 629.642 615.106 630.445 612.286Z"/>
	<path fill="#EFB991" d="M660.883 600.18C662.52 600.305 663.499 600.69 664.715 601.76C669.801 606.233 676.725 617.388 677.019 624.26C677.135 626.952 675.526 629.625 673.765 631.537C669.363 636.316 664.183 639.743 657.539 639.974C655.969 639.4 654.52 638.773 653.169 637.771C647.663 633.69 641.586 625.803 640.714 618.887C640.218 614.951 641.724 611.166 644.217 608.169C648.429 603.105 654.534 600.91 660.883 600.18Z"/>
	<path fill="#ECA270" d="M669.255 495.508C672.798 493.365 676.324 491.184 679.957 489.196C680.287 490.323 680.416 491.04 681.352 491.799C687.893 489.804 693.504 489.629 699.784 492.828C708.412 497.221 715.276 506.524 718.103 515.661C720.505 523.427 719.869 531.707 715.871 538.842C710.137 549.074 688.519 560.29 678.337 567.022L678.966 572.077C675.794 573.937 672.617 575.778 669.54 577.794C669.249 576.107 669.071 574.918 668.012 573.543L665.892 574.716C659.407 576.845 655.23 577.969 648.55 576.026L647.893 576.192C645.986 574.117 643.033 572.48 640.856 570.575C636.728 566.963 633.379 562.902 629.957 558.646L627.682 554.307C626.537 551.024 625.818 545.13 623.692 542.542L624.034 542.4C624.292 541.074 624.106 539.625 624.318 538.26C625.061 533.487 628.055 529.551 630.476 525.523C635.75 521.057 641.397 517.419 647.014 513.433L647.016 496.654L647.821 496.585C653.689 498.829 659.175 499.095 665.238 497.266L669.255 495.508Z"/>
	<path fill="#0B78A3" d="M665.238 497.266L669.255 495.508C669.959 496.287 670.37 496.739 671.3 497.261C669.015 498.77 666.731 500.469 664.279 501.687L665.238 497.266Z"/>
	<path fill="#0B5CB8" d="M669.255 495.508C672.798 493.365 676.324 491.184 679.957 489.196C680.287 490.323 680.416 491.04 681.352 491.799C677.964 493.561 674.586 495.314 671.3 497.261C670.37 496.739 669.959 496.287 669.255 495.508Z"/>
	<path fill="#2D508C" d="M678.337 567.022L678.966 572.077C675.794 573.937 672.617 575.778 669.54 577.794C669.249 576.107 669.071 574.918 668.012 573.543C671.594 571.649 674.953 569.247 678.337 567.022Z"/>
	<path fill="#173B75" d="M647.821 496.585C653.689 498.829 659.175 499.095 665.238 497.266L664.279 501.687C658.58 505.634 652.554 509.294 647.014 513.433L647.016 496.654L647.821 496.585Z"/>
	<path fill="#EFB991" d="M624.034 542.4C624.332 542.473 624.629 542.553 624.929 542.619C626.477 542.959 628.042 542.65 629.589 542.431C632.336 543.768 633.844 549.26 635.367 551.919C639.141 558.509 643.742 564.868 648.611 570.681L648.55 576.026L647.893 576.192C645.986 574.117 643.033 572.48 640.856 570.575C636.728 566.963 633.379 562.902 629.957 558.646L627.682 554.307C626.537 551.024 625.818 545.13 623.692 542.542L624.034 542.4Z"/>
	<path fill="#EFB991" d="M652.324 523.008C654.122 522.889 656.118 522.765 657.823 523.448C664.166 525.988 670.023 534.862 672.71 540.934C674.42 544.799 675.33 548.956 673.674 553.004C671.004 559.533 663.329 563.673 657.132 566.235C655.064 566.861 652.785 566.994 650.757 566.161C644.883 563.749 639.741 555.262 637.373 549.578C635.42 544.891 634.72 539.875 636.866 535.113C639.765 528.682 645.981 525.241 652.324 523.008Z"/>
	<path fill="#ECA270" d="M326.04 741.731C328.869 738.814 331.158 734.574 333.432 731.163C344.472 714.602 353.747 697.92 360.311 679.033C362.539 672.622 363.409 663.107 367.439 657.7C367.452 669.048 366.476 686.686 367.996 697.259C369.756 708.404 373.722 717.744 383.084 724.575C387.141 727.535 391.41 729.461 396.364 730.354C408.884 732.611 427.642 732.226 440.78 732.793C476.401 734.33 511.926 735.628 547.593 735.624C544.021 738.889 538.825 741.281 534.549 743.561C513.793 754.632 490.972 764.608 467.916 769.669C460.762 771.239 453.889 771.709 446.591 771.794C439.155 782.165 431.714 792.501 424.916 803.309C416.435 797.43 407.556 791.976 398.87 786.394C391.003 781.339 383.167 775.963 374.977 771.464C368.868 767.012 361.749 763.292 355.248 759.394C345.492 753.544 335.847 747.491 326.04 741.731Z"/>
	<path fill="#2D508C" d="M647.923 647.472C651.2 649.206 654.096 650.287 657.846 650.612C660.926 650.493 663.63 649.87 666.524 648.873L666.501 676.612C666.55 693.826 667.631 710.59 654.32 723.705Q653.305 724.709 652.224 725.64Q651.143 726.572 650.001 727.427Q648.858 728.282 647.66 729.056Q646.461 729.83 645.212 730.521Q643.963 731.211 642.67 731.814Q641.376 732.417 640.044 732.929Q638.712 733.442 637.348 733.861Q635.984 734.281 634.595 734.606C624.608 736.846 610.231 735.55 599.692 735.519L547.593 735.624C511.926 735.628 476.401 734.33 440.78 732.793C427.642 732.226 408.884 732.611 396.364 730.354C391.41 729.461 387.141 727.535 383.084 724.575C373.722 717.744 369.756 708.404 367.996 697.259L368.617 698.026C370.06 699.831 371.117 701.891 372.594 703.673C378.083 710.294 385.78 713.037 394.1 714.033C402.328 715.018 411.069 714.45 419.359 714.422C430.586 714.383 441.884 714.63 453.102 714.336C453.637 714.211 453.697 714.229 454.255 713.914C457.122 712.295 462.691 705.452 465.349 702.797C478.041 690.124 491.554 677.805 503.385 664.326C504.371 663.203 504.905 662.334 505.388 660.925L647.929 660.688L647.923 647.472Z"/>
	<path fill="#FDFDFD" d="M514.91 677.156C517.947 677.015 521.01 677.569 523.73 678.958Q524.412 679.304 525.057 679.716Q525.701 680.128 526.301 680.602Q526.902 681.076 527.452 681.607Q528.003 682.138 528.498 682.721Q528.993 683.304 529.428 683.933Q529.863 684.562 530.233 685.231Q530.603 685.901 530.906 686.603Q531.208 687.306 531.439 688.035Q531.687 688.821 531.853 689.629Q532.019 690.436 532.102 691.257Q532.185 692.077 532.184 692.901Q532.183 693.726 532.098 694.546Q532.013 695.366 531.844 696.173Q531.676 696.98 531.426 697.766Q531.176 698.551 530.848 699.307Q530.519 700.063 530.115 700.782C527.646 705.192 524.142 707.168 519.5 708.615C515.551 708.757 512.181 708.467 508.683 706.452Q507.992 706.058 507.345 705.595Q506.698 705.132 506.102 704.606Q505.505 704.08 504.965 703.496Q504.425 702.912 503.948 702.276Q503.47 701.64 503.06 700.958Q502.649 700.277 502.31 699.557Q501.971 698.838 501.707 698.088Q501.443 697.337 501.256 696.564Q501.076 695.772 500.977 694.966Q500.878 694.16 500.859 693.348Q500.841 692.536 500.904 691.727Q500.966 690.917 501.11 690.118Q501.253 689.319 501.476 688.538Q501.699 687.757 501.998 687.002Q502.298 686.247 502.672 685.526Q503.045 684.805 503.489 684.125C506.221 679.967 510.165 678.076 514.91 677.156Z"/>
	<path fill="#173B75" d="M647.923 647.472C651.2 649.206 654.096 650.287 657.846 650.612C660.926 650.493 663.63 649.87 666.524 648.873L666.501 676.612C666.55 693.826 667.631 710.59 654.32 723.705Q653.305 724.709 652.224 725.64Q651.143 726.572 650.001 727.427Q648.858 728.282 647.66 729.056Q646.461 729.83 645.212 730.521Q643.963 731.211 642.67 731.814Q641.376 732.417 640.044 732.929Q638.712 733.442 637.348 733.861Q635.984 734.281 634.595 734.606C624.608 736.846 610.231 735.55 599.692 735.519L547.593 735.624C511.926 735.628 476.401 734.33 440.78 732.793C427.642 732.226 408.884 732.611 396.364 730.354C391.41 729.461 387.141 727.535 383.084 724.575C373.722 717.744 369.756 708.404 367.996 697.259L368.617 698.026C370.06 699.831 371.117 701.891 372.594 703.673C378.083 710.294 385.78 713.037 394.1 714.033C402.328 715.018 411.069 714.45 419.359 714.422C430.586 714.383 441.884 714.63 453.102 714.336C507.796 715.28 562.67 715.263 617.379 715.04C626.285 715.004 633.456 715.183 640.077 708.247C648.463 699.464 648.125 688.978 648.116 677.668Q648.153 669.177 647.929 660.688L647.923 647.472Z"/>
	<path fill="#2D508C" d="M716.931 343.804Q727.282 325.048 736.85 305.88C740.525 298.52 743.815 290.492 748.134 283.518C751.047 278.813 753.878 277.886 759.001 276.684C767.059 278.84 775.101 283.615 782.601 287.295C798.09 294.893 813.391 302.817 828.996 310.184L831.133 311.359C834.557 321.698 837.198 331.164 832.08 341.692C831.71 342.455 831.398 342.903 830.758 343.463L799.476 403.346C792.77 416.397 786.644 430.31 778.998 442.816C771.885 438.723 764.511 434.799 757.131 431.201C750.78 436.751 743.81 442.21 736.904 447.064C734.038 449.079 730.884 450.78 728.098 452.879C725.163 451.267 722.281 449.659 719.166 448.413Q719.219 449.018 719.242 449.625Q719.265 450.232 719.258 450.839Q719.251 451.447 719.215 452.053Q719.179 452.659 719.114 453.263Q719.048 453.867 718.953 454.467Q718.859 455.067 718.735 455.662Q718.611 456.256 718.458 456.844Q718.306 457.432 718.125 458.012Q717.943 458.592 717.734 459.162Q717.525 459.732 717.289 460.292Q717.052 460.851 716.789 461.399Q716.526 461.946 716.236 462.48Q715.946 463.014 715.631 463.533Q715.315 464.052 714.975 464.555Q714.635 465.058 714.271 465.544Q713.906 466.03 713.519 466.498C707.389 473.864 688.825 483.858 679.957 489.196C676.324 491.184 672.798 493.365 669.255 495.508L665.238 497.266C659.175 499.095 653.689 498.829 647.821 496.585L647.016 496.654C639.899 492.8 635.856 487.767 630.526 481.857C630.725 476.275 620.08 470.893 622.995 458.791C623.225 453.374 628.081 448.143 631.522 444.25C636.921 441.362 641.484 436.84 646.978 433.862Q656.098 427.362 665.408 421.137C664.629 409.999 665.334 398.576 665.099 387.39C664.711 366.88 664.953 346.287 665.118 325.773C678.754 323.501 692.977 318.613 705.509 327.236C711.575 331.409 714.659 337.013 716.931 343.804Z"/>
	<path fill="#FDFDFD" d="M691.408 383.186C692.171 382.19 693.152 381.969 694.288 381.581C692.23 385.851 689.822 389.865 687.38 393.921C694.289 400.098 716.422 410.015 725.67 414.765C736.18 420.163 746.498 426.065 757.131 431.201C750.78 436.751 743.81 442.21 736.904 447.064C734.038 449.079 730.884 450.78 728.098 452.879C725.163 451.267 722.281 449.659 719.166 448.413C718.845 444.758 717.704 441.485 716.253 438.142C712.248 428.917 704.19 416.985 694.368 413.391C687.336 410.818 680.798 412.029 674.239 415.104C671.611 417.635 668.641 419.471 665.408 421.137C664.629 409.999 665.334 398.576 665.099 387.39C673.996 386.843 682.878 385.826 691.408 383.186Z"/>
	<path fill="#2B2C2A" d="M722.514 422.056C724.829 421.863 727.037 421.898 729.187 422.874C732.448 424.353 735.327 427.301 736.404 430.749C736.991 432.627 736.947 434.6 735.933 436.324C734.647 438.51 732.807 439.306 730.475 440.01C728.863 440.021 727.314 439.899 725.756 439.446C722.542 438.512 719.209 436.359 717.576 433.365C716.633 431.634 716.341 429.721 716.923 427.818C717.799 424.956 720.058 423.482 722.514 422.056Z"/>
	<path fill="#0E8BCC" d="M665.099 387.39C673.996 386.843 682.878 385.826 691.408 383.186C687.52 393.837 679.758 405.049 674.239 415.104C671.611 417.635 668.641 419.471 665.408 421.137C664.629 409.999 665.334 398.576 665.099 387.39Z"/>
	<path fill="#ECA270" d="M665.118 325.773C678.754 323.501 692.977 318.613 705.509 327.236C711.575 331.409 714.659 337.013 716.931 343.804C717.172 345.808 717.489 347.641 718.096 349.569C717.106 360.685 712.099 369.059 703.555 376.268C701.419 378.07 697.071 381.242 694.288 381.581C693.152 381.969 692.171 382.19 691.408 383.186C682.878 385.826 673.996 386.843 665.099 387.39C664.711 366.88 664.953 346.287 665.118 325.773Z"/>
	<path fill="#FDFDFD" d="M716.931 343.804Q727.282 325.048 736.85 305.88C740.525 298.52 743.815 290.492 748.134 283.518C751.047 278.813 753.878 277.886 759.001 276.684C767.059 278.84 775.101 283.615 782.601 287.295C798.09 294.893 813.391 302.817 828.996 310.184L831.133 311.359C834.557 321.698 837.198 331.164 832.08 341.692C831.71 342.455 831.398 342.903 830.758 343.463C826.122 340.463 820.861 338.206 815.904 335.758L791.414 323.568C775.655 315.633 760.391 306.654 744.331 299.321Q730.875 324.268 718.096 349.569C717.489 347.641 717.172 345.808 716.931 343.804Z"/>
	<path fill="#173B75" d="M777.567 301.678C780.815 302.527 801.843 313.06 804.039 315.089C804.733 315.731 804.428 316.301 804.393 317.175C801.225 316.957 781.007 307.173 778.322 304.957C777.228 304.054 777.569 302.962 777.567 301.678Z"/>
	<path fill="#ECA270" d="M674.239 415.104C680.798 412.029 687.336 410.818 694.368 413.391C704.19 416.985 712.248 428.917 716.253 438.142C717.704 441.485 718.845 444.758 719.166 448.413Q719.219 449.018 719.242 449.625Q719.265 450.232 719.258 450.839Q719.251 451.447 719.215 452.053Q719.179 452.659 719.114 453.263Q719.048 453.867 718.953 454.467Q718.859 455.067 718.735 455.662Q718.611 456.256 718.458 456.844Q718.306 457.432 718.125 458.012Q717.943 458.592 717.734 459.162Q717.525 459.732 717.289 460.292Q717.052 460.851 716.789 461.399Q716.526 461.946 716.236 462.48Q715.946 463.014 715.631 463.533Q715.315 464.052 714.975 464.555Q714.635 465.058 714.271 465.544Q713.906 466.03 713.519 466.498C707.389 473.864 688.825 483.858 679.957 489.196C676.324 491.184 672.798 493.365 669.255 495.508L665.238 497.266C659.175 499.095 653.689 498.829 647.821 496.585L647.016 496.654C639.899 492.8 635.856 487.767 630.526 481.857C630.725 476.275 620.08 470.893 622.995 458.791C623.225 453.374 628.081 448.143 631.522 444.25C636.921 441.362 641.484 436.84 646.978 433.862Q656.098 427.362 665.408 421.137C668.641 419.471 671.611 417.635 674.239 415.104Z"/>
	<path fill="#EFB991" d="M622.995 458.791C623.072 459.025 623.167 459.254 623.227 459.493C623.518 460.639 623.313 461.172 623.011 462.27C623.765 463.156 623.925 463.236 625.152 463.364C626.591 463.514 628.303 463.194 629.476 462.337L629.57 461.236C630.937 463.991 632.038 466.517 633.774 469.084C637.155 474.084 650.277 489.166 648.57 494.55C648.351 495.24 648.087 495.913 647.821 496.585L647.016 496.654C639.899 492.8 635.856 487.767 630.526 481.857C630.725 476.275 620.08 470.893 622.995 458.791Z"/>
	<path fill="#EFB991" d="M655.044 440.543C657.53 440.387 659.487 440.298 661.759 441.437C668.767 444.95 675.283 456.285 677.449 463.649C678.59 467.528 678.311 471.204 676.314 474.754C672.626 481.309 665.21 485.558 658.123 487.43C655.417 487.632 652.194 487.006 649.819 485.66C648.08 484.674 646.63 483.24 645.42 481.663C644.571 480.556 634.801 464.03 634.692 463.627C633.781 460.25 634.558 456.744 636.25 453.745C639.942 447.2 647.926 442.408 655.044 440.543Z"/>
	<defs>
		<linearGradient id="gradient_0" gradientUnits="userSpaceOnUse" x1="751.63043" y1="431.06104" x2="771.12054" y2="310.47952">
			<stop offset="0" stop-color="#0AA8F6"/>
			<stop offset="1" stop-color="#00BFF8"/>
		</linearGradient>
	</defs>
	<path fill="url(#gradient_0)" d="M746.233 305.195C771.905 319.574 798.755 332.172 824.936 345.624Q808.867 375.717 793.33 406.087C788.208 416.134 783.82 427.494 777.562 436.825C767.89 432.116 758.38 426.849 748.816 421.907C731.824 413.126 714.704 404.357 698.31 394.496C707.714 382.854 712.263 369.243 718.845 356.081C727.403 338.968 736.699 321.785 746.233 305.195Z"/>
	<path fill="#FDFDFD" d="M742.677 331.094C750.031 334.039 757.086 338.59 764.138 342.23C777.64 349.199 791.314 355.862 804.9 362.668L805.07 363.316L803.204 365.151L802.719 365.378C796.102 363.549 781.914 355.58 775.184 352.215C764.101 346.674 751.91 341.606 741.481 334.972C741.381 333.436 742.043 332.457 742.677 331.094Z"/>
	<path fill="#FDFDFD" d="M738.926 339.126C739.425 339.296 739.921 339.475 740.41 339.672C745.41 341.682 798.369 368.552 799.561 369.731C799.819 369.986 799.835 370.402 799.972 370.738C799.747 372.023 799.608 372.864 798.892 373.986C785.349 366.692 771.444 359.932 757.714 352.992C751.197 349.698 743.622 346.616 737.771 342.275C737.148 341.812 737.384 342.105 737.235 341.151L738.926 339.126Z"/>
	<path fill="#2D508C" d="M241.766 690.329C247.669 694.288 253.817 697.936 259.843 701.71Q279.276 713.61 298.856 725.268C307.887 730.628 317.375 735.818 326.04 741.731C335.847 747.491 345.492 753.544 355.248 759.394C361.749 763.292 368.868 767.012 374.977 771.464C367.755 784.295 360.4 796.995 352.329 809.315C366.345 818.369 380.899 826.668 395.197 835.276C392.129 841.939 388.188 848.284 384.54 854.652C375.984 869.586 366.933 884.22 358.154 899.023C355.023 904.302 349.48 911.098 347.948 916.938Q342.431 914.595 336.976 912.112Q331.521 909.629 326.13 907.008Q320.74 904.387 315.419 901.629Q310.097 898.871 304.847 895.978Q299.598 893.086 294.424 890.06Q289.25 887.035 284.155 883.878Q279.06 880.721 274.047 877.436Q269.034 874.15 264.106 870.738Q259.178 867.326 254.339 863.789Q249.5 860.252 244.753 856.593Q240.006 852.934 235.354 849.155Q230.702 845.376 226.147 841.479Q221.593 837.583 217.139 833.571Q212.686 829.56 208.336 825.436Q203.986 821.313 199.743 817.079Q195.5 812.846 191.366 808.506C184.927 801.775 174.296 792.006 169.807 784.219C172.897 777.446 177.383 770.812 181.016 764.249Q193.101 742.079 205.664 720.177Q212.638 724.289 219.473 728.628Q230.767 709.564 241.766 690.329Z"/>
	<path fill="#FDFDFD" d="M241.766 690.329C247.669 694.288 253.817 697.936 259.843 701.71Q279.276 713.61 298.856 725.268C307.887 730.628 317.375 735.818 326.04 741.731C335.847 747.491 345.492 753.544 355.248 759.394C361.749 763.292 368.868 767.012 374.977 771.464C367.755 784.295 360.4 796.995 352.329 809.315Q285.226 770.084 219.473 728.628Q230.767 709.564 241.766 690.329Z"/>
</svg>
