<svg xmlns="http://www.w3.org/2000/svg" xmlns:xlink="http://www.w3.org/1999/xlink" version="1.0" x="0" y="0" width="2400" height="2325.3848206763173" viewBox="139.4 95.3513397216797 61.2 59.2973129272461" preserveAspectRatio="xMidYMid meet" color-interpolation-filters="sRGB"><g><defs><linearGradient id="92" x1="0%" y1="0%" x2="100%" y2="0%"><stop offset="0%" stop-color="#fa71cd"></stop> <stop offset="100%" stop-color="#9b59b6"></stop></linearGradient><linearGradient id="93" x1="0%" y1="0%" x2="100%" y2="0%"><stop offset="0%" stop-color="#f9d423"></stop> <stop offset="100%" stop-color="#f83600"></stop></linearGradient><linearGradient id="94" x1="0%" y1="0%" x2="100%" y2="0%"><stop offset="0%" stop-color="#0064d2"></stop> <stop offset="100%" stop-color="#1cb0f6"></stop></linearGradient><linearGradient id="95" x1="0%" y1="0%" x2="100%" y2="0%"><stop offset="0%" stop-color="#f00978"></stop> <stop offset="100%" stop-color="#3f51b1"></stop></linearGradient><linearGradient id="96" x1="0%" y1="0%" x2="100%" y2="0%"><stop offset="0%" stop-color="#7873f5"></stop> <stop offset="100%" stop-color="#ec77ab"></stop></linearGradient><linearGradient id="97" x1="0%" y1="0%" x2="100%" y2="0%"><stop offset="0%" stop-color="#f9d423"></stop> <stop offset="100%" stop-color="#e14fad"></stop></linearGradient><linearGradient id="98" x1="0%" y1="0%" x2="100%" y2="0%"><stop offset="0%" stop-color="#009efd"></stop> <stop offset="100%" stop-color="#2af598"></stop></linearGradient><linearGradient id="99" x1="0%" y1="0%" x2="100%" y2="0%"><stop offset="0%" stop-color="#ffcc00"></stop> <stop offset="100%" stop-color="#00b140"></stop></linearGradient><linearGradient id="100" x1="0%" y1="0%" x2="100%" y2="0%"><stop offset="0%" stop-color="#d51007"></stop> <stop offset="100%" stop-color="#ff8177"></stop></linearGradient><linearGradient id="102" x1="0%" y1="0%" x2="100%" y2="0%"><stop offset="0%" stop-color="#a2b6df"></stop> <stop offset="100%" stop-color="#0c3483"></stop></linearGradient><linearGradient id="103" x1="0%" y1="0%" x2="100%" y2="0%"><stop offset="0%" stop-color="#7ac5d8"></stop> <stop offset="100%" stop-color="#eea2a2"></stop></linearGradient><linearGradient id="104" x1="0%" y1="0%" x2="100%" y2="0%"><stop offset="0%" stop-color="#00ecbc"></stop> <stop offset="100%" stop-color="#007adf"></stop></linearGradient><linearGradient id="105" x1="0%" y1="0%" x2="100%" y2="0%"><stop offset="0%" stop-color="#b88746"></stop> <stop offset="100%" stop-color="#fdf5a6"></stop></linearGradient></defs><g class="imagesvg isNoFont" transform="translate(140.00000000003305,95.95134353637695)"><g><rect fill="#374151" fill-opacity="0" stroke-width="2" x="0" y="0" width="60" height="58.09731299927378" class="image-rect"></rect> <svg filter="url(#colors7637434461)" x="0" y="0" width="60" height="58.09731299927378" filtersec="colorsf6071495761" class="image-svg-svg primary" style="overflow: visible;"><svg xmlns="http://www.w3.org/2000/svg" viewBox="0.00040841102600097656 -0.06300652027130127 52.83962631225586 51.163978576660156"><path d="M35.05 45.2a6 6 0 0 0-2-2.48Q17.56 27.15 2 11.61C.39 10-.62 2.9.43 1 .92.1 1.77.06 2.6.06h7.49c1.69 0 2.74 1 3.81 2.09Q29.17 17.44 44.48 32.7c.66.66 1.23 2 2.27 1.54.84-.36.31-1.67.42-2.55.24-1.84-.67-3.12-1.92-4.36Q32.83 15 20.5 2.59c-.55-.55-1.62-1-1.2-2S20.78.05 21.58 0h28c2.19 0 3.2.67 3.15 3-.11 5 0 10 0 15 0 .62.29 1.48-.47 1.79S51 19.42 50.51 19C46.83 15.35 43 11.84 39.57 8c-2.21-2.46-4.66-2.85-7.65-2.26-.07 1.17.89 1.59 1.49 2.19 5.69 5.74 11.37 11.49 17.15 17.13a6.53 6.53 0 0 1 2.16 5.29c-.12 4.74 0 9.5 0 14.24 0 1 .49 2.3-.51 2.77s-1.65-.85-2.3-1.5Q30.64 26.73 11.49 7.53c-.94-.93-1.8-2-3.32-2-.82 0-1.76-.2-2.23.73a1.93 1.93 0 0 0 .59 2.26c.51.55 1 1.08 1.57 1.61Q27 29.08 45.9 48c.68.67 2 1.29 1.62 2.3-.47 1.16-1.93.64-3 .65-4.41 0-8.83-.1-13.24.06a8.07 8.07 0 0 1-6.62-2.69c-5.51-5.76-11.23-11.32-16.9-17-.46-.45-.9-1.3-1.55-1.08-.91.29-.44 1.29-.53 2a5.64 5.64 0 0 0 2 5.09c3.8 3.62 7.46 7.38 11.15 11.12.54.55 1.62 1 1.16 2S18.5 51 17.7 51c-4.83 0-9.7-.1-14.5 0-2.27 0-3.08-.85-3.06-3.1.07-9.42 0-18.83 0-28.25 0-.78-.33-1.87.66-2.2.79-.26 1.27.66 1.78 1.17 8 8 16.14 15.91 24 24.09 2.49 2.57 5.05 3.21 8.47 2.49z" fill="#000000"></path></svg></svg> <defs><filter id="colors7637434461"><feColorMatrix type="matrix" values="0 0 0 0 0.21484375  0 0 0 0 0.25390625  0 0 0 0 0.31640625  0 0 0 1 0" class="icon-feColorMatrix "></feColorMatrix></filter> <filter id="colorsf6071495761"><feColorMatrix type="matrix" values="0 0 0 0 0.99609375  0 0 0 0 0.99609375  0 0 0 0 0.99609375  0 0 0 1 0" class="icon-fecolormatrix"></feColorMatrix></filter> <filter id="colorsb3857720169"><feColorMatrix type="matrix" values="0 0 0 0 0  0 0 0 0 0  0 0 0 0 0  0 0 0 1 0" class="icon-fecolormatrix"></feColorMatrix></filter></defs></g></g><defs v-gra="od"></defs></g></svg>