<?xml version="1.0" encoding="utf-8" ?>
<svg xmlns="http://www.w3.org/2000/svg" xmlns:xlink="http://www.w3.org/1999/xlink" width="1024" height="1024">
	<path fill="#FEFEFE" d="M0 0L1024 0L1024 1024L0 1024L0 0Z"/>
	<path fill="#177ED0" d="M842.922 348.228L859.285 348.442L859.631 348.343C880.104 349.156 900.842 348.478 921.342 348.479C926.653 360.687 930.703 373.717 934.385 386.5Q936.113 392.547 937.674 398.638Q939.236 404.73 940.63 410.862Q942.024 416.994 943.25 423.161Q944.476 429.329 945.533 435.528Q946.59 441.727 947.477 447.953Q948.364 454.179 949.08 460.426Q949.796 466.674 950.341 472.939Q950.885 479.203 951.259 485.481Q951.632 491.758 951.833 498.044Q952.035 504.329 952.064 510.617Q952.093 516.906 951.951 523.193Q951.808 529.479 951.493 535.76Q951.179 542.041 950.692 548.31Q950.206 554.58 949.548 560.834Q948.89 567.088 948.062 573.322Q947.233 579.555 946.234 585.764C941.247 615.283 932.826 643.617 921.87 671.441C919.194 678.237 916.492 685.785 912.872 692.129C911.67 695.1 910.509 698.092 909.136 700.989C907.793 703.66 906.404 706.264 904.883 708.837L904.919 627.529C904.904 612.445 905.549 597.015 904.579 581.981Q904.649 567.893 904.513 553.806C903.852 549.791 902.773 546.057 900.744 542.519C896.576 535.251 889.476 530.496 881.524 528.287C875.346 527.288 869.063 527.47 862.823 527.424C864.818 484.063 857.549 439.243 844.378 397.999L844.001 397.374C841.089 388.748 838.871 379.877 835.996 371.225C838.198 365.511 840.024 359.716 841.706 353.832L842.922 348.228Z"/>
	<path fill="#0749CC" d="M842.922 348.228L859.285 348.442C860.392 359.724 855.987 369.939 854.805 380.844L854.499 380.367C854.512 380.191 854.545 380.015 854.538 379.839C854.388 376.212 844.322 356.72 841.706 353.832L842.922 348.228Z"/>
	<path fill="#124485" d="M841.706 353.832C844.322 356.72 854.388 376.212 854.538 379.839C854.545 380.015 854.512 380.191 854.499 380.367C850.78 385.873 848.352 392.302 844.001 397.374C841.089 388.748 838.871 379.877 835.996 371.225C838.198 365.511 840.024 359.716 841.706 353.832Z"/>
	<path fill="#124485" d="M904.513 553.806C907.579 556.903 910.015 560.53 911.331 564.714C913.951 573.046 912.889 600.015 912.835 610.588L912.513 666.806C912.479 674.81 911.277 684.354 912.872 692.129C911.67 695.1 910.509 698.092 909.136 700.989C907.793 703.66 906.404 706.264 904.883 708.837L904.919 627.529C904.904 612.445 905.549 597.015 904.579 581.981Q904.649 567.893 904.513 553.806Z"/>
	<path fill="#124485" d="M854.499 380.367L854.805 380.844Q858.102 389.665 861.003 398.624Q863.903 407.582 866.401 416.662Q868.9 425.741 870.99 434.923Q873.081 444.104 874.76 453.37Q876.439 462.636 877.703 471.968Q878.968 481.299 879.814 490.678Q880.661 500.056 881.089 509.463Q881.516 518.87 881.524 528.287C875.346 527.288 869.063 527.47 862.823 527.424C864.818 484.063 857.549 439.243 844.378 397.999L844.001 397.374C848.352 392.302 850.78 385.873 854.499 380.367Z"/>
	<path fill="#43B7FF" d="M323.907 112.736C378.679 83.8604 451.486 70.0927 513.031 70.4469Q521.036 70.509 529.033 70.8561Q537.03 71.2032 545.01 71.8349Q552.99 72.4666 560.942 73.382Q568.895 74.2974 576.809 75.4954Q584.724 76.6935 592.591 78.1726Q600.458 79.6517 608.268 81.41Q616.077 83.1683 623.819 85.2036Q631.561 87.2389 639.225 89.5486C726.313 116.507 800.924 165.343 857.723 236.994Q869.441 251.609 879.776 267.232Q890.11 282.856 898.976 299.357Q908.099 316.948 915.929 335.151C917.753 339.337 920.242 344.057 921.342 348.479C900.842 348.478 880.104 349.156 859.631 348.343L859.285 348.442L842.922 348.228C847.93 318.242 844.258 290.043 831.318 262.47C828.413 256.28 824.919 250.446 821.678 244.435C818.576 241.228 815.92 236.934 813.086 233.418C806.993 225.861 799.996 219.279 792.374 213.277Q791.229 212.372 790.065 211.493Q788.901 210.613 787.718 209.759Q786.534 208.905 785.333 208.078Q784.131 207.25 782.912 206.448Q781.693 205.647 780.456 204.872Q779.219 204.098 777.966 203.35Q776.713 202.603 775.444 201.883Q774.175 201.163 772.89 200.471Q771.606 199.779 770.306 199.115Q769.007 198.452 767.693 197.816Q766.38 197.181 765.052 196.575Q763.725 195.969 762.385 195.391Q761.045 194.814 759.693 194.266Q758.34 193.718 756.976 193.2Q755.612 192.682 754.237 192.194Q752.862 191.706 751.477 191.247Q750.091 190.789 748.696 190.362Q747.301 189.934 745.897 189.537Q744.493 189.139 743.081 188.773Q741.669 188.407 740.249 188.071Q738.829 187.736 737.402 187.431Q735.975 187.127 734.541 186.854Q733.108 186.58 731.669 186.339Q730.23 186.097 728.786 185.887Q727.342 185.676 725.894 185.498Q724.446 185.319 722.994 185.172Q721.542 185.025 720.088 184.909Q718.633 184.794 717.177 184.711Q715.72 184.627 714.262 184.575Q712.804 184.524 711.345 184.504Q709.886 184.484 708.427 184.496Q706.967 184.508 705.509 184.552C697.2 184.882 689.146 186.699 680.922 187.695C670.651 190.221 661.358 193.991 651.419 197.399C628.899 206.527 605.531 228.2 592.97 248.609C554.442 235.814 523.682 231.372 483.028 235.605L482.943 235.91C480.484 235.915 478.309 236.526 475.919 236.96C474.366 237.241 473.345 237.222 472.063 236.304L471.808 234.046C468.468 269.295 457.26 295.852 429.403 318.883C406.189 338.076 374.111 346.951 344.293 344.042C324.367 342.098 307.285 334.978 290.248 324.839C273.841 313.802 256.94 292.572 250.951 273.77C247.7 267.416 246.044 259.851 244.207 252.978C238.461 258.291 233.426 264.476 228.389 270.45C208.072 294.548 191.529 320.586 177.434 348.755L103.098 348.5Q104.435 345.101 105.829 341.724Q107.222 338.348 108.671 334.995Q110.12 331.642 111.624 328.313Q113.128 324.984 114.686 321.681Q116.245 318.377 117.858 315.1Q119.471 311.823 121.138 308.573Q122.804 305.322 124.525 302.1Q126.245 298.878 128.018 295.684Q129.791 292.491 131.617 289.327Q133.442 286.163 135.32 283.03Q137.197 279.897 139.126 276.795Q141.055 273.693 143.035 270.624Q145.015 267.554 147.046 264.518Q149.076 261.481 151.156 258.479Q153.236 255.476 155.365 252.508Q157.495 249.541 159.673 246.608Q161.851 243.676 164.077 240.78Q166.303 237.884 168.577 235.025Q170.85 232.166 173.171 229.345Q175.491 226.525 177.858 223.742Q180.225 220.96 182.637 218.217Q185.049 215.474 187.506 212.772Q189.964 210.069 192.465 207.407Q194.967 204.746 197.512 202.125Q200.057 199.505 202.645 196.928Q205.232 194.35 207.863 191.815Q210.493 189.28 213.164 186.789Q215.836 184.298 218.548 181.852Q221.26 179.405 224.013 177.004Q226.765 174.602 229.557 172.247Q232.348 169.891 235.178 167.582Q238.008 165.272 240.876 163.01C253.811 152.779 270.36 140.304 285.03 133.1C297.651 125.259 310.418 118.908 323.907 112.736Z"/>
	<path fill="#177ED0" d="M444.066 151.852C499.034 136.595 560.734 140.601 614.687 158.09Q623.119 160.889 631.406 164.092Q639.693 167.295 647.816 170.896Q655.938 174.497 663.876 178.487Q671.815 182.477 679.551 186.846C680.021 187.108 680.471 187.402 680.922 187.695C670.651 190.221 661.358 193.991 651.419 197.399C640.949 190.77 629.025 186.253 617.437 181.997C567.777 163.759 511.674 157.195 459.606 168.637L455.83 169.649C453.708 166.956 445.747 155.001 444.066 151.852Z"/>
	<path fill="#EFF4F7" d="M459.606 168.637C511.674 157.195 567.777 163.759 617.437 181.997C629.025 186.253 640.949 190.77 651.419 197.399C628.899 206.527 605.531 228.2 592.97 248.609C554.442 235.814 523.682 231.372 483.028 235.605L482.943 235.91C480.484 235.915 478.309 236.526 475.919 236.96C474.366 237.241 473.345 237.222 472.063 236.304L471.808 234.046C472.605 216.827 468.821 197.724 462.178 181.887C460.534 177.966 457.226 174.277 456.01 170.277C455.947 170.069 455.89 169.858 455.83 169.649L459.606 168.637Z"/>
	<path fill="#A0DBF7" d="M455.83 169.649L459.606 168.637C471.229 183.124 478.338 201.269 481.216 219.573C482.052 224.885 482.152 230.331 483.028 235.605L482.943 235.91C480.484 235.915 478.309 236.526 475.919 236.96C474.366 237.241 473.345 237.222 472.063 236.304L471.808 234.046C472.605 216.827 468.821 197.724 462.178 181.887C460.534 177.966 457.226 174.277 456.01 170.277C455.947 170.069 455.89 169.858 455.83 169.649Z"/>
	<path fill="#FEFEFE" d="M425.907 193.512C426.032 193.668 426.165 193.819 426.282 193.982C434.385 205.321 436.399 227.511 434.427 240.998Q434.291 241.953 434.132 242.905Q433.972 243.857 433.789 244.804Q433.606 245.751 433.399 246.694Q433.192 247.636 432.962 248.573Q432.732 249.51 432.479 250.441Q432.225 251.372 431.949 252.297Q431.673 253.221 431.373 254.139Q431.074 255.056 430.752 255.966Q430.43 256.875 430.086 257.777Q429.741 258.678 429.374 259.57Q429.008 260.463 428.619 261.346Q428.23 262.229 427.819 263.102Q427.409 263.975 426.976 264.838Q426.544 265.701 426.09 266.552Q425.637 267.404 425.162 268.244Q424.688 269.084 424.192 269.912Q423.697 270.74 423.181 271.556Q422.665 272.371 422.129 273.173Q421.593 273.976 421.038 274.765Q420.482 275.553 419.907 276.328Q419.332 277.103 418.737 277.863Q418.143 278.623 417.53 279.369Q416.917 280.114 416.286 280.844Q415.655 281.573 415.006 282.287Q414.356 283.001 413.69 283.698Q413.023 284.396 412.339 285.077Q411.655 285.757 410.954 286.421Q410.254 287.084 409.537 287.73Q408.82 288.376 408.087 289.004Q407.355 289.631 406.607 290.241Q405.859 290.85 405.095 291.441Q404.332 292.032 403.555 292.603C386.646 305.005 365.016 310.796 344.241 307.576Q343.252 307.421 342.267 307.242Q341.282 307.062 340.302 306.858Q339.322 306.655 338.347 306.427Q337.373 306.198 336.404 305.946Q335.435 305.694 334.473 305.418Q333.511 305.142 332.556 304.842Q331.6 304.542 330.653 304.218Q329.706 303.894 328.767 303.547Q327.828 303.2 326.898 302.83Q325.968 302.46 325.047 302.067Q324.127 301.673 323.216 301.258Q322.305 300.842 321.405 300.403Q320.505 299.965 319.617 299.504Q318.728 299.043 317.851 298.561Q316.974 298.078 316.109 297.574Q315.244 297.07 314.392 296.544Q313.54 296.019 312.701 295.472Q311.863 294.926 311.038 294.359Q310.213 293.792 309.402 293.204Q308.592 292.617 307.796 292.009Q307 291.402 306.22 290.775Q305.439 290.148 304.675 289.502Q303.91 288.856 303.162 288.191Q302.413 287.526 301.682 286.842Q300.95 286.159 300.236 285.458Q299.521 284.757 298.825 284.038Q298.128 283.319 297.449 282.583Q296.77 281.847 296.11 281.095Q295.45 280.342 294.809 279.574Q294.167 278.805 293.545 278.021Q292.923 277.236 292.321 276.437Q291.718 275.637 291.136 274.823Q290.546 274.01 289.977 273.182Q289.408 272.355 288.86 271.513Q288.311 270.672 287.784 269.817Q287.256 268.963 286.75 268.095Q286.244 267.227 285.76 266.348Q285.275 265.468 284.813 264.576Q284.351 263.684 283.911 262.782Q283.47 261.879 283.053 260.965Q282.635 260.052 282.241 259.128Q281.846 258.205 281.474 257.272Q281.102 256.339 280.754 255.397Q280.406 254.455 280.081 253.504Q279.756 252.554 279.454 251.596Q279.153 250.638 278.876 249.672Q278.598 248.707 278.345 247.735Q278.092 246.763 277.862 245.786Q277.633 244.808 277.429 243.824Q277.224 242.841 277.043 241.853Q276.863 240.865 276.707 239.873Q276.552 238.881 276.42 237.885Q276.289 236.889 276.183 235.89Q276.077 234.891 275.995 233.89Q275.914 232.889 275.857 231.887Q275.8 230.884 275.769 229.88Q275.737 228.876 275.73 227.872Q275.723 226.867 275.742 225.863Q275.76 224.859 275.803 223.856Q275.846 222.852 275.914 221.85Q275.982 220.848 276.074 219.848Q276.167 218.848 276.285 217.85Q276.402 216.853 276.545 215.859Q276.687 214.864 276.854 213.874Q277.019 212.887 277.208 211.904Q277.397 210.921 277.61 209.943Q277.823 208.965 278.06 207.993Q278.297 207.021 278.558 206.054Q278.818 205.088 279.103 204.128Q279.387 203.169 279.695 202.216Q280.002 201.264 280.333 200.319Q280.664 199.375 281.018 198.439Q281.372 197.502 281.749 196.575Q282.126 195.648 282.525 194.73Q282.925 193.813 283.347 192.905Q283.768 191.997 284.212 191.1Q284.656 190.203 285.122 189.317Q285.588 188.432 286.075 187.557Q286.562 186.683 287.071 185.821Q287.579 184.959 288.109 184.11Q288.638 183.26 289.189 182.424Q289.739 181.588 290.309 180.766Q290.88 179.944 291.47 179.136Q292.061 178.327 292.671 177.534Q293.281 176.741 293.91 175.962Q294.54 175.184 295.188 174.422Q295.836 173.659 296.503 172.913Q297.169 172.166 297.854 171.436Q298.539 170.706 299.241 169.993Q299.944 169.28 300.664 168.585Q301.383 167.889 302.12 167.212Q302.856 166.534 303.609 165.875Q304.362 165.215 305.131 164.575Q305.9 163.934 306.684 163.312Q307.469 162.69 308.268 162.088Q309.067 161.486 309.881 160.903C326.357 149.281 348.106 143.523 368.078 147.126C384.296 150.051 403.347 158.618 413.065 172.501C414.891 171.651 416.804 170.646 418.766 170.171C420.708 169.702 422.078 169.753 423.793 170.846C426.519 170.934 428.462 171.051 430.38 173.165C432.449 175.444 433.041 178.709 432.746 181.69C432.313 186.087 430.085 190.35 426.564 193.077C426.357 193.238 426.126 193.367 425.907 193.512Z"/>
	<path fill="#43B7FF" d="M354.032 221.093C355.52 221.118 357.072 221.197 358.483 221.719C360.348 222.409 362.004 224.033 362.796 225.846Q362.937 226.173 363.045 226.512Q363.153 226.851 363.228 227.199Q363.302 227.547 363.342 227.901Q363.381 228.254 363.386 228.61Q363.391 228.966 363.36 229.321Q363.33 229.675 363.265 230.025Q363.2 230.375 363.101 230.717Q363.001 231.059 362.869 231.389C361.766 234.181 359.737 235.577 357.11 236.795C355.198 236.75 353.505 236.818 351.795 235.86C349.771 234.726 348.255 232.662 347.687 230.427Q347.593 230.07 347.535 229.706Q347.478 229.342 347.457 228.973Q347.437 228.605 347.455 228.237Q347.472 227.868 347.527 227.503Q347.581 227.138 347.673 226.781Q347.764 226.424 347.891 226.078Q348.019 225.731 348.181 225.4Q348.342 225.068 348.537 224.755C349.862 222.642 351.687 221.698 354.032 221.093Z"/>
	<path fill="#0749CC" d="M423.793 170.846C426.519 170.934 428.462 171.051 430.38 173.165C432.449 175.444 433.041 178.709 432.746 181.69C432.313 186.087 430.085 190.35 426.564 193.077C426.357 193.238 426.126 193.367 425.907 193.512C424.906 194.468 423.842 195.405 422.89 196.407C418.445 201.555 413.66 206.224 408.942 211.107L405.208 213.856C401.878 215.712 398.426 216.891 394.558 216.424C391.505 216.056 388.877 214.795 387.014 212.345C390.263 211.724 393.655 211.218 396.738 209.984C403.595 207.24 422.698 188.31 425.481 181.436C426.948 177.813 425.319 174.143 423.793 170.846Z"/>
	<path fill="#43B7FF" d="M422.89 196.407C431.039 216.482 433.153 237.276 424.625 257.7C416.878 276.257 401.479 290.549 382.967 298.116C364.374 305.716 345.158 304.875 326.738 297.112Q325.036 296.398 323.372 295.601Q321.707 294.803 320.085 293.924Q318.462 293.045 316.885 292.086Q315.308 291.128 313.781 290.092Q312.253 289.056 310.779 287.946Q309.305 286.835 307.888 285.653Q306.471 284.471 305.114 283.22Q303.757 281.969 302.464 280.652Q301.172 279.335 299.946 277.955Q298.72 276.575 297.564 275.136Q296.408 273.698 295.326 272.203Q294.243 270.709 293.235 269.162Q292.228 267.616 291.299 266.021Q290.37 264.427 289.521 262.788Q288.672 261.15 287.905 259.471Q287.139 257.792 286.457 256.077C278.635 236.757 279.432 215.364 287.686 196.343C295.639 178.016 311.223 163.706 329.737 156.44Q331.408 155.781 333.109 155.206Q334.81 154.631 336.538 154.142Q338.266 153.653 340.016 153.25Q341.766 152.847 343.533 152.532Q345.301 152.217 347.083 151.99Q348.864 151.763 350.654 151.625Q352.445 151.487 354.24 151.439Q356.035 151.391 357.83 151.431Q359.626 151.472 361.417 151.603Q363.208 151.733 364.99 151.952Q366.772 152.172 368.541 152.479Q370.311 152.787 372.062 153.183Q373.814 153.578 375.544 154.06Q377.273 154.543 378.977 155.11Q380.681 155.678 382.354 156.33Q384.027 156.982 385.666 157.716C393.46 161.164 401.144 166.3 406.742 172.784C401.147 175.306 395.677 178.026 391.221 182.344Q390.284 181.517 389.309 180.736Q388.333 179.954 387.321 179.221Q386.309 178.489 385.262 177.806Q384.215 177.123 383.137 176.491Q382.058 175.859 380.951 175.281Q379.843 174.702 378.708 174.178Q377.574 173.654 376.415 173.185Q375.257 172.716 374.077 172.304Q372.897 171.892 371.699 171.538Q370.5 171.184 369.286 170.888Q368.072 170.592 366.845 170.355Q365.617 170.118 364.38 169.941Q363.143 169.764 361.899 169.647Q360.655 169.53 359.406 169.473Q358.158 169.417 356.908 169.421Q355.658 169.425 354.41 169.489C339.648 170.184 324.423 176.933 314.45 187.909C304.264 199.122 298.488 215.396 299.399 230.532C300.317 245.768 307.907 261.835 319.489 271.855C330.248 281.163 345.742 286.326 359.946 285.121C374.9 283.853 389.357 276.652 398.972 265.078Q399.873 263.999 400.719 262.878Q401.565 261.756 402.355 260.593Q403.144 259.43 403.875 258.23Q404.606 257.03 405.276 255.795Q405.947 254.56 406.555 253.293Q407.163 252.026 407.708 250.731Q408.253 249.436 408.732 248.115Q409.212 246.794 409.626 245.451Q410.039 244.108 410.386 242.746Q410.733 241.384 411.011 240.007Q411.29 238.63 411.5 237.24Q411.71 235.851 411.85 234.452Q411.991 233.054 412.062 231.651Q412.133 230.247 412.135 228.842Q412.136 227.437 412.068 226.033Q412 224.629 411.862 223.231C411.48 219.134 410.646 214.871 408.942 211.107C413.66 206.224 418.445 201.555 422.89 196.407Z"/>
	<path fill="#43B7FF" d="M405.208 213.856Q405.86 216.512 406.206 219.224C408.055 234.43 405.187 248.751 395.486 260.896Q394.689 261.875 393.845 262.814Q393.002 263.753 392.113 264.65Q391.224 265.546 390.292 266.398Q389.36 267.25 388.387 268.054Q387.415 268.859 386.404 269.616Q385.393 270.372 384.346 271.078Q383.299 271.783 382.219 272.437Q381.139 273.09 380.028 273.69Q378.917 274.289 377.778 274.834Q376.639 275.378 375.475 275.866Q374.31 276.354 373.123 276.784Q371.936 277.214 370.73 277.585Q369.523 277.957 368.3 278.268Q367.076 278.58 365.839 278.831Q364.602 279.082 363.354 279.272Q362.106 279.462 360.85 279.591C347.747 281.041 333.701 276.64 323.467 268.386C312.761 259.752 306.181 245.906 304.765 232.366C303.32 218.546 307.972 204.148 316.818 193.469Q317.629 192.495 318.488 191.561Q319.346 190.628 320.249 189.738Q321.152 188.848 322.097 188.003Q323.043 187.158 324.029 186.361Q325.014 185.564 326.038 184.815Q327.062 184.067 328.121 183.37Q329.18 182.673 330.272 182.029Q331.364 181.385 332.486 180.795Q333.609 180.205 334.758 179.67Q335.908 179.136 337.083 178.659Q338.258 178.182 339.454 177.763Q340.651 177.344 341.867 176.984Q343.082 176.624 344.314 176.324Q345.546 176.024 346.791 175.785Q348.037 175.546 349.292 175.368Q350.547 175.19 351.81 175.074Q353.025 174.953 354.245 174.892Q355.465 174.831 356.686 174.831Q357.907 174.83 359.127 174.89Q360.346 174.949 361.562 175.069Q362.777 175.189 363.985 175.368Q365.193 175.548 366.391 175.787Q367.588 176.026 368.773 176.323Q369.957 176.621 371.125 176.977Q372.294 177.332 373.443 177.745Q374.592 178.158 375.72 178.627Q376.847 179.097 377.95 179.621Q379.053 180.145 380.129 180.723Q381.205 181.301 382.251 181.931Q383.297 182.561 384.31 183.243Q385.324 183.924 386.303 184.654Q387.281 185.384 388.223 186.162C386.417 189.107 384.099 193.22 384.74 196.772C387.497 195.35 390.483 190.687 392.919 188.431C396.844 184.798 401.167 182.231 405.901 179.793C402.539 183.776 398.405 187.171 394.786 190.933C390.658 195.226 387.736 199.983 384.769 205.101C375.818 207.748 370.307 211.253 363.375 217.438Q362.381 217.003 361.367 216.616C357.499 215.162 353.053 214.765 349.241 216.617C346.121 218.133 343.905 221.025 342.841 224.287Q342.613 224.971 342.455 225.675Q342.298 226.379 342.213 227.095Q342.128 227.811 342.116 228.532Q342.104 229.253 342.165 229.971Q342.226 230.69 342.36 231.399Q342.494 232.107 342.7 232.798Q342.905 233.49 343.18 234.157Q343.454 234.823 343.795 235.459C345.405 238.442 348.124 240.776 351.421 241.668C355.052 242.651 359.384 241.905 362.581 239.962C366.457 237.606 368.003 233.747 369.101 229.588C368.491 226.787 367.715 224.257 366.641 221.599C370.562 217.701 374.391 213.935 380.223 213.355C382.519 213.127 384.113 213.29 386.406 212.55C386.61 212.484 386.811 212.413 387.014 212.345C388.877 214.795 391.505 216.056 394.558 216.424C398.426 216.891 401.878 215.712 405.208 213.856Z"/>
	<defs>
		<linearGradient id="gradient_0" gradientUnits="userSpaceOnUse" x1="470.72882" y1="954.56909" x2="434.67874" y2="244.78993">
			<stop offset="0" stop-color="#08549F"/>
			<stop offset="1" stop-color="#0D8FD3"/>
		</linearGradient>
	</defs>
	<path fill="url(#gradient_0)" d="M244.207 252.978C246.044 259.851 247.7 267.416 250.951 273.77C256.94 292.572 273.841 313.802 290.248 324.839L289.411 326.53C277.139 346.482 267.661 360.732 258.278 382.532L200.257 382.654L199.663 382.704C186.967 383.676 169.171 380.612 157.596 383.62C154.434 384.441 151.715 385.901 149.596 388.426C147.134 391.362 145.651 395.182 145.033 398.935C143.504 408.224 144.719 424.789 144.757 434.704C144.794 444.399 143.944 460.356 145.157 469.513C145.217 469.97 145.285 470.133 145.413 470.528C145.865 488.932 145.53 507.394 145.497 525.805L145.53 609.398L145.469 643.481C145.448 649.624 144.928 656.285 145.739 662.366C146.332 666.808 148.536 670.467 151.733 673.547Q152.943 674.729 154.251 675.8C165.321 681.446 184.817 678.558 197.624 678.912C225.48 679.039 253.363 678.871 281.215 679.328C284.337 684.026 288.153 688.445 290.925 693.338L291.881 693.587C295.074 698.281 299.06 702.712 302.827 706.959C322.775 729.445 347.031 746.949 373.578 760.809C378.892 768.63 383.349 776.874 389.048 784.463C409.935 812.275 439.124 832.251 473.531 838.793C509.675 845.665 543.421 839.911 573.993 819.012C598.193 802.469 612.958 780.928 623.953 754.134C624.902 751.819 627.637 743.511 628.904 741.949C629.428 741.303 630.789 741.257 631.53 741.201C635.028 742.151 638.827 742.378 642.438 742.556C642.476 749.46 643.073 754.466 645.766 760.819C646.531 762.625 647.927 764.657 648.397 766.509C650.624 777.197 657.912 787.153 666.981 793.107C677.235 799.839 689.489 798.026 701.157 797.68C703.04 797.624 705.204 797.229 706.924 798.113C713.615 794.68 720.241 789.393 726.217 784.818C729.927 783.54 760.569 784.412 766.543 784.4L861.919 784.031Q855.638 791.469 849.182 798.757L841.542 807.416C800.799 854.043 748.086 890.001 691.841 915.255C588.775 961.531 464.651 965.843 359.007 925.567C251.285 884.498 159.637 804.001 112.355 697.946Q110.266 693.359 108.28 688.727Q106.294 684.094 104.413 679.418Q102.531 674.742 100.756 670.025Q98.9797 665.308 97.3102 660.552Q95.6407 655.796 94.0785 651.004Q92.5162 646.212 91.0619 641.386Q89.6077 636.56 88.2621 631.703Q86.9166 626.845 85.6805 621.959Q84.4444 617.073 83.3183 612.16Q82.1922 607.247 81.1767 602.31Q80.1612 597.373 79.2568 592.415Q78.3524 587.456 77.5596 582.479Q76.7668 577.501 76.086 572.507Q75.4052 567.513 74.8366 562.505Q74.2681 557.497 73.8122 552.477Q73.3562 547.457 73.0131 542.429Q72.67 537.4 72.4399 532.365Q72.2098 527.33 72.0929 522.291Q71.9759 517.252 71.9721 512.212Q71.9683 507.172 72.0777 502.133Q72.187 497.093 72.4095 492.058Q72.632 487.023 72.9676 481.994Q73.3031 476.964 73.7514 471.944Q74.1998 466.924 74.7607 461.915Q75.3217 456.906 75.995 451.911Q76.6683 446.916 77.4536 441.937Q78.2389 436.958 79.1358 431.998Q80.0327 427.038 81.0407 422.1Q82.0488 417.161 83.1674 412.247Q84.2861 407.332 85.5149 402.444Q86.7436 397.556 88.0818 392.697Q89.42 387.837 90.867 383.009C94.3791 371.31 98.7365 359.901 103.098 348.5L177.434 348.755C191.529 320.586 208.072 294.548 228.389 270.45C233.426 264.476 238.461 258.291 244.207 252.978Z"/>
	<path fill="#EFF4F7" d="M250.951 273.77C256.94 292.572 273.841 313.802 290.248 324.839L289.411 326.53C277.139 346.482 267.661 360.732 258.278 382.532L200.257 382.654C194.795 382.467 189.269 382.62 183.801 382.619C198.532 342.851 222.949 305.386 250.951 273.77Z"/>
	<path fill="#124485" d="M154.251 675.8C165.321 681.446 184.817 678.558 197.624 678.912C200.068 683.852 202.556 689.041 205.571 693.659C255.561 775.728 328.983 829.778 422.385 852.43C437.015 855.978 451.677 858.095 466.641 859.653C547.777 868.101 626.643 847.209 695.985 804.962Q701.482 801.581 706.924 798.113C713.615 794.68 720.241 789.393 726.217 784.818C729.927 783.54 760.569 784.412 766.543 784.4L861.919 784.031Q855.638 791.469 849.182 798.757L841.542 807.416C835.349 804.8 761 805.978 748.282 806.05C739.865 810.974 731.87 817.109 723.702 822.48Q704.865 834.615 685.076 845.127C664.904 855.737 643.195 863.86 621.348 870.25C551.004 890.825 474.909 892.723 404.6 870.788C315.483 842.985 240.443 775.599 197.361 693.566C186.786 694.3 168.167 696.542 159.866 689.034C155.831 685.383 154.511 681.028 154.251 675.8Z"/>
	<path fill="#EFF4F7" d="M197.624 678.912C225.48 679.039 253.363 678.871 281.215 679.328C284.337 684.026 288.153 688.445 290.925 693.338L291.881 693.587C295.074 698.281 299.06 702.712 302.827 706.959C322.775 729.445 347.031 746.949 373.578 760.809C378.892 768.63 383.349 776.874 389.048 784.463C409.935 812.275 439.124 832.251 473.531 838.793C509.675 845.665 543.421 839.911 573.993 819.012C598.193 802.469 612.958 780.928 623.953 754.134C624.902 751.819 627.637 743.511 628.904 741.949C629.428 741.303 630.789 741.257 631.53 741.201C635.028 742.151 638.827 742.378 642.438 742.556C642.476 749.46 643.073 754.466 645.766 760.819C646.531 762.625 647.927 764.657 648.397 766.509C650.624 777.197 657.912 787.153 666.981 793.107C677.235 799.839 689.489 798.026 701.157 797.68C703.04 797.624 705.204 797.229 706.924 798.113Q701.482 801.581 695.985 804.962C626.643 847.209 547.777 868.101 466.641 859.653C451.677 858.095 437.015 855.978 422.385 852.43C328.983 829.778 255.561 775.728 205.571 693.659C202.556 689.041 200.068 683.852 197.624 678.912Z"/>
	<path fill="#A0DBF7" d="M197.624 678.912C225.48 679.039 253.363 678.871 281.215 679.328C284.337 684.026 288.153 688.445 290.925 693.338C262.492 693.743 233.98 692.812 205.571 693.659C202.556 689.041 200.068 683.852 197.624 678.912Z"/>
	<path fill="#A0DBF7" d="M680.922 187.695C689.146 186.699 697.2 184.882 705.509 184.552Q706.967 184.508 708.427 184.496Q709.886 184.484 711.345 184.504Q712.804 184.524 714.262 184.575Q715.72 184.627 717.177 184.711Q718.633 184.794 720.088 184.909Q721.542 185.025 722.994 185.172Q724.446 185.319 725.894 185.498Q727.342 185.676 728.786 185.887Q730.23 186.097 731.669 186.339Q733.108 186.58 734.541 186.854Q735.975 187.127 737.402 187.431Q738.829 187.736 740.249 188.071Q741.669 188.407 743.081 188.773Q744.493 189.139 745.897 189.537Q747.301 189.934 748.696 190.362Q750.091 190.789 751.477 191.247Q752.862 191.706 754.237 192.194Q755.612 192.682 756.976 193.2Q758.34 193.718 759.693 194.266Q761.045 194.814 762.385 195.391Q763.725 195.969 765.052 196.575Q766.38 197.181 767.693 197.816Q769.007 198.452 770.306 199.115Q771.606 199.779 772.89 200.471Q774.175 201.163 775.444 201.883Q776.713 202.603 777.966 203.35Q779.219 204.098 780.456 204.872Q781.693 205.647 782.912 206.448Q784.131 207.25 785.333 208.078Q786.534 208.905 787.718 209.759Q788.901 210.613 790.065 211.493Q791.229 212.372 792.374 213.277C799.996 219.279 806.993 225.861 813.086 233.418C815.92 236.934 818.576 241.228 821.678 244.435C824.919 250.446 828.413 256.28 831.318 262.47C844.258 290.043 847.93 318.242 842.922 348.228L841.706 353.832C840.024 359.716 838.198 365.511 835.996 371.225C838.871 379.877 841.089 388.748 844.001 397.374L844.378 397.999C857.549 439.243 864.818 484.063 862.823 527.424C869.063 527.47 875.346 527.288 881.524 528.287C889.476 530.496 896.576 535.251 900.744 542.519C902.773 546.057 903.852 549.791 904.513 553.806Q904.649 567.893 904.579 581.981C905.549 597.015 904.904 612.445 904.919 627.529L904.883 708.837C906.404 706.264 907.793 703.66 909.136 700.989C909.432 701.604 909.667 702.052 909.747 702.74C910.412 708.466 909.381 717.797 909.338 723.946C909.246 737.37 910.092 751.29 909.235 764.655C909.003 768.274 908.426 771.799 907.226 775.23Q906.938 776.049 906.611 776.853Q906.284 777.656 905.918 778.443Q905.552 779.23 905.148 779.998Q904.744 780.766 904.302 781.513Q903.862 782.261 903.385 782.986Q902.908 783.711 902.396 784.412Q901.884 785.113 901.339 785.788Q900.794 786.463 900.216 787.11Q899.639 787.758 899.03 788.377Q898.422 788.996 897.784 789.584Q897.146 790.172 896.48 790.729Q895.814 791.285 895.122 791.809Q894.43 792.332 893.713 792.821Q892.996 793.31 892.256 793.764Q891.516 794.217 890.755 794.634Q889.994 795.051 889.213 795.43C878.065 800.754 861.393 799.312 849.182 798.757Q855.638 791.469 861.919 784.031L766.543 784.4C760.569 784.412 729.927 783.54 726.217 784.818C720.241 789.393 713.615 794.68 706.924 798.113C705.204 797.229 703.04 797.624 701.157 797.68C689.489 798.026 677.235 799.839 666.981 793.107C657.912 787.153 650.624 777.197 648.397 766.509C647.927 764.657 646.531 762.625 645.766 760.819C643.073 754.466 642.476 749.46 642.438 742.556C638.827 742.378 635.028 742.151 631.53 741.201C630.789 741.257 629.428 741.303 628.904 741.949C627.637 743.511 624.902 751.819 623.953 754.134C612.958 780.928 598.193 802.469 573.993 819.012C543.421 839.911 509.675 845.665 473.531 838.793C439.124 832.251 409.935 812.275 389.048 784.463C383.349 776.874 378.892 768.63 373.578 760.809C347.031 746.949 322.775 729.445 302.827 706.959C299.06 702.712 295.074 698.281 291.881 693.587L290.925 693.338C288.153 688.445 284.337 684.026 281.215 679.328C253.363 678.871 225.48 679.039 197.624 678.912C184.817 678.558 165.321 681.446 154.251 675.8Q152.943 674.729 151.733 673.547C148.536 670.467 146.332 666.808 145.739 662.366C144.928 656.285 145.448 649.624 145.469 643.481L145.53 609.398L145.497 525.805C145.53 507.394 145.865 488.932 145.413 470.528C145.285 470.133 145.217 469.97 145.157 469.513C143.944 460.356 144.794 444.399 144.757 434.704C144.719 424.789 143.504 408.224 145.033 398.935C145.651 395.182 147.134 391.362 149.596 388.426C151.715 385.901 154.434 384.441 157.596 383.62C169.171 380.612 186.967 383.676 199.663 382.704L200.257 382.654L258.278 382.532C267.661 360.732 277.139 346.482 289.411 326.53L290.248 324.839C307.285 334.978 324.367 342.098 344.293 344.042C374.111 346.951 406.189 338.076 429.403 318.883C457.26 295.852 468.468 269.295 471.808 234.046L472.063 236.304C473.345 237.222 474.366 237.241 475.919 236.96C478.309 236.526 480.484 235.915 482.943 235.91L483.028 235.605C523.682 231.372 554.442 235.814 592.97 248.609C605.531 228.2 628.899 206.527 651.419 197.399C661.358 193.991 670.651 190.221 680.922 187.695Z"/>
	<path fill="#EFF4F7" d="M613.938 730.786C612.889 734.637 609.608 745.052 606.761 747.413C606.122 743.177 609.17 735.925 610.391 731.628L613.938 730.786Z"/>
	<path fill="#43B7FF" d="M624.247 730.725Q633.382 731.018 642.521 730.916L642.438 742.556C638.827 742.378 635.028 742.151 631.53 741.201C630.694 737.028 627.013 733.822 624.247 730.725Z"/>
	<path fill="#43B7FF" d="M565.636 716.965C572.551 717.002 606.66 716.282 611.251 717.609C610.798 722.218 610.88 726.827 610.105 731.405C605.376 731.893 600.35 731.586 595.588 731.663Q580.37 731.999 565.148 731.988Q565.433 724.478 565.636 716.965Z"/>
	<path fill="#75AFD0" d="M281.215 679.328L364.05 679.417C363.327 684.087 362.647 688.724 362.231 693.434C338.796 693.533 315.306 693.068 291.881 693.587L290.925 693.338C288.153 688.445 284.337 684.026 281.215 679.328Z"/>
	<path fill="#75AFD0" d="M510.063 667.568L510.043 620.096C510.043 611.944 509.393 603.189 510.309 595.104C511.337 614.653 510.476 634.652 510.463 654.257L510.487 667.706C521.186 670.423 532.318 678.242 538.294 687.553L537.413 687.208C533.026 685.461 529.011 682.979 524.521 681.391C514.089 677.702 501.142 679.242 491.13 683.496Q490.066 683.942 489.025 684.441Q487.985 684.94 486.971 685.491Q485.956 686.041 484.971 686.641Q483.985 687.242 483.031 687.891Q482.077 688.539 481.156 689.235Q480.235 689.931 479.351 690.671Q478.466 691.412 477.619 692.196Q476.772 692.98 475.966 693.805Q475.159 694.63 474.395 695.495Q473.63 696.359 472.91 697.261Q472.19 698.163 471.516 699.099Q470.841 700.035 470.215 701.004Q469.588 701.973 469.01 702.972Q468.433 703.971 467.906 704.998Q467.379 706.025 466.904 707.076Q466.429 708.128 466.007 709.202Q463.868 714.854 462.786 720.799C462.235 723.853 462.742 728.479 461.354 731.091C460.675 731.306 460.209 731.427 459.488 731.474C456.754 723.461 455.798 716.149 456.075 707.719Q456.329 706.077 456.692 704.456Q457.056 702.835 457.528 701.243Q458 699.65 458.578 698.092Q459.156 696.535 459.837 695.02Q460.519 693.505 461.301 692.039Q462.083 690.573 462.962 689.164Q463.84 687.754 464.812 686.406Q465.784 685.059 466.844 683.78C474.586 674.362 485.191 668.46 497.384 667.341L510.063 667.568Z"/>
	<path fill="#008C59" d="M510.463 654.257C523.788 654.8 537.088 663.695 545.898 673.246C554.455 682.521 559.219 692.886 562.242 705.009C579.137 704.284 596.085 704.51 612.992 704.569C613.17 708.501 613.765 712.89 613.037 716.761C612.214 717.538 612.269 717.415 611.251 717.609C606.66 716.282 572.551 717.002 565.636 716.965L547.707 716.924C547.548 706.607 544.906 695.674 538.294 687.553C532.318 678.242 521.186 670.423 510.487 667.706L510.463 654.257Z"/>
	<path fill="#DE4050" d="M386.949 707.223C406.091 707.97 425.367 707.226 444.53 707.478C448.37 707.546 452.242 707.511 456.075 707.719C455.798 716.149 456.754 723.461 459.488 731.474C454.279 734.753 447.416 736.794 441.652 739.038C427.35 744.606 412.777 749.644 398.664 755.664C391.746 739.907 387.457 724.504 386.949 707.223Z"/>
	<path fill="#75AFD0" d="M550.676 398.501C555.565 400.811 561.039 403.254 563.046 408.677C563.873 410.913 564.161 413.301 564.27 415.67C564.732 425.636 564.406 435.735 564.418 445.72L564.478 503.231L564.431 577.437C564.396 590.571 564.701 603.83 564.211 616.951C559.916 613.918 555.504 611.103 551.064 608.292C550.99 596.26 550.614 583.918 551.485 571.923C551.051 563.405 551.416 554.686 551.407 546.149L551.348 497.46C551.352 488.792 552.409 478.976 551.024 470.449C549.831 461.139 550.632 448.878 550.587 439.341C550.523 425.914 549.665 411.858 550.676 398.501Z"/>
	<path fill="#75AFD0" d="M471.808 234.046L472.063 236.304C473.345 237.222 474.366 237.241 475.919 236.96C478.309 236.526 480.484 235.915 482.943 235.91C483.645 266.679 473.268 296.503 451.885 318.966Q450.904 319.982 449.898 320.974Q448.893 321.966 447.863 322.933Q446.833 323.9 445.78 324.841Q444.727 325.783 443.65 326.698Q442.574 327.613 441.476 328.501Q440.378 329.39 439.258 330.251Q438.138 331.112 436.998 331.945Q435.857 332.778 434.696 333.583Q433.535 334.388 432.355 335.164Q431.175 335.94 429.976 336.687Q428.777 337.434 427.56 338.151Q426.343 338.869 425.109 339.556Q423.874 340.243 422.624 340.899Q421.373 341.555 420.106 342.181Q418.84 342.806 417.558 343.401Q416.277 343.995 414.981 344.557Q413.685 345.12 412.376 345.65Q411.067 346.18 409.745 346.678Q408.423 347.176 407.089 347.642Q405.755 348.107 404.411 348.54Q403.066 348.972 401.711 349.371Q400.356 349.77 398.992 350.136Q397.627 350.502 396.254 350.834Q394.881 351.166 393.5 351.464Q392.12 351.763 390.732 352.027Q389.344 352.291 387.951 352.521Q386.557 352.751 385.158 352.946Q383.759 353.142 382.356 353.303Q380.952 353.464 379.545 353.591Q378.138 353.717 376.729 353.809Q375.319 353.901 373.908 353.958Q372.496 354.016 371.084 354.038C340.353 354.651 314.138 344.129 289.411 326.53L290.248 324.839C307.285 334.978 324.367 342.098 344.293 344.042C374.111 346.951 406.189 338.076 429.403 318.883C457.26 295.852 468.468 269.295 471.808 234.046Z"/>
	<path fill="#177ED0" d="M546.563 728.541C558.404 731.819 569.875 735.737 581.58 739.413C589.939 742.037 598.59 744.265 606.761 747.413C607.513 752.631 593.834 775.55 590.269 780.307C572.891 803.487 547.358 819.938 518.453 823.936Q517.031 824.136 515.604 824.3Q514.177 824.465 512.747 824.594Q511.316 824.723 509.883 824.817Q508.45 824.911 507.014 824.969Q505.579 825.028 504.143 825.051Q502.707 825.074 501.271 825.061Q499.835 825.049 498.399 825.001Q496.964 824.953 495.53 824.87Q494.096 824.787 492.664 824.668Q491.233 824.55 489.805 824.396Q488.377 824.242 486.953 824.053Q485.529 823.864 484.111 823.64Q482.692 823.416 481.279 823.157Q479.866 822.898 478.46 822.604Q477.055 822.31 475.656 821.982Q474.258 821.653 472.868 821.29Q471.479 820.927 470.098 820.53Q468.718 820.133 467.348 819.703Q465.978 819.272 464.619 818.807Q463.259 818.342 461.912 817.844Q460.565 817.346 459.231 816.815Q457.896 816.284 456.575 815.72Q455.254 815.156 453.947 814.56Q452.641 813.964 451.349 813.336Q450.058 812.707 448.782 812.047Q447.506 811.387 446.247 810.696Q444.988 810.005 443.747 809.283Q442.505 808.56 441.282 807.808Q440.058 807.055 438.854 806.273Q437.65 805.49 436.465 804.678Q435.28 803.866 434.116 803.025Q432.951 802.184 431.808 801.315C422.583 794.252 414.082 786.057 407.414 776.511Q424.299 767.002 441.086 757.321C449.892 752.223 458.672 746.734 467.997 742.626L472.728 747.495C461.831 758.202 449.825 776.583 440.654 789.382C462.719 805.371 488.978 811.107 515.795 806.914C539.082 803.273 560.963 790.658 574.844 771.453C580.45 763.698 584.932 755.16 589.17 746.602C581.114 746.44 536.923 750.155 533.129 748.378C539.209 742.762 543.433 736.156 546.563 728.541Z"/>
	<path fill="#43B7FF" d="M533.129 748.378C536.923 750.155 581.114 746.44 589.17 746.602C584.932 755.16 580.45 763.698 574.844 771.453C560.963 790.658 539.082 803.273 515.795 806.914C488.978 811.107 462.719 805.371 440.654 789.382C449.825 776.583 461.831 758.202 472.728 747.495C483.123 755.861 494.501 760.371 508.009 758.847C517.591 757.766 525.426 754.013 533.129 748.378Z"/>
	<path fill="#06B677" d="M510.309 595.104C524.978 597.078 537.92 601.543 551.064 608.292C555.504 611.103 559.916 613.918 564.211 616.951C590.233 638.285 609.159 665.063 612.547 699.371Q612.799 701.967 612.992 704.569C596.085 704.51 579.137 704.284 562.242 705.009C559.219 692.886 554.455 682.521 545.898 673.246C537.088 663.695 523.788 654.8 510.463 654.257C510.476 634.652 511.337 614.653 510.309 595.104Z"/>
	<path fill="#EFF4F7" d="M844.378 397.999C857.549 439.243 864.818 484.063 862.823 527.424L755.939 527.58L726.644 527.677C720.891 527.701 714.839 528.088 709.135 527.411C717.086 526.463 726.007 527.198 734.05 527.169L789.939 527.159C790.086 518.867 791.287 510.588 791.462 502.274C791.811 485.697 790.077 469.431 787.853 453.036L788.009 452.636C791.999 450.94 795.793 448.423 799.404 446.024C818.265 433.494 831.794 416.554 844.378 397.999Z"/>
	<path fill="#F2B32B" d="M386.949 707.223Q386.944 705.887 386.97 704.551Q386.996 703.216 387.054 701.881Q387.111 700.546 387.2 699.214Q387.289 697.881 387.41 696.55Q387.53 695.22 387.682 693.892Q387.833 692.565 388.016 691.242Q388.199 689.919 388.413 688.6Q388.628 687.281 388.873 685.968Q389.118 684.655 389.394 683.348Q389.67 682.041 389.976 680.74Q390.283 679.44 390.62 678.148Q390.957 676.855 391.325 675.571Q391.693 674.286 392.09 673.011Q392.488 671.736 392.916 670.47Q393.343 669.204 393.801 667.949Q394.258 666.694 394.745 665.45Q395.232 664.206 395.748 662.974Q396.264 661.741 396.808 660.522Q397.353 659.302 397.927 658.095Q398.5 656.889 399.102 655.696Q399.704 654.503 400.333 653.325Q400.963 652.147 401.62 650.984Q402.277 649.821 402.962 648.674Q403.646 647.526 404.357 646.396Q405.069 645.265 405.806 644.151Q406.544 643.037 407.308 641.941Q408.072 640.845 408.861 639.768Q409.65 638.69 410.465 637.631Q411.279 636.572 412.119 635.533Q412.958 634.493 413.821 633.474Q414.685 632.455 415.572 631.456Q416.459 630.457 417.37 629.48C438.356 607.023 467.111 595.278 497.562 594.23L497.361 664.76L497.384 667.341C485.191 668.46 474.586 674.362 466.844 683.78Q465.784 685.059 464.812 686.406Q463.84 687.754 462.962 689.164Q462.083 690.573 461.301 692.039Q460.519 693.505 459.837 695.02Q459.156 696.535 458.578 698.092Q458 699.65 457.528 701.242Q457.056 702.835 456.692 704.456Q456.329 706.077 456.075 707.719C452.242 707.511 448.37 707.546 444.53 707.478C425.367 707.226 406.091 707.97 386.949 707.223Z"/>
	<path fill="#F39A33" d="M497.091 653.064C497.073 656.955 496.939 660.888 497.361 664.76L497.384 667.341C485.191 668.46 474.586 674.362 466.844 683.78Q465.784 685.059 464.812 686.406Q463.84 687.754 462.962 689.164Q462.083 690.573 461.301 692.039Q460.519 693.505 459.837 695.02Q459.156 696.535 458.578 698.092Q458 699.65 457.528 701.242Q457.056 702.835 456.692 704.456Q456.329 706.077 456.075 707.719C452.242 707.511 448.37 707.546 444.53 707.478C445.25 705.562 444.718 702.224 444.924 700.08C445.733 691.689 449.666 683.532 454.757 676.865C465.02 663.425 480.43 655.22 497.091 653.064Z"/>
	<path fill="#F6716C" d="M680.922 187.695C689.146 186.699 697.2 184.882 705.509 184.552Q706.967 184.508 708.427 184.496Q709.886 184.484 711.345 184.504Q712.804 184.524 714.262 184.575Q715.72 184.627 717.177 184.711Q718.633 184.794 720.088 184.909Q721.542 185.025 722.994 185.172Q724.446 185.319 725.894 185.498Q727.342 185.676 728.786 185.887Q730.23 186.097 731.669 186.339Q733.108 186.58 734.541 186.854Q735.975 187.127 737.402 187.431Q738.829 187.736 740.249 188.071Q741.669 188.407 743.081 188.773Q744.493 189.139 745.897 189.537Q747.301 189.934 748.696 190.362Q750.091 190.789 751.477 191.247Q752.862 191.706 754.237 192.194Q755.612 192.682 756.976 193.2Q758.34 193.718 759.693 194.266Q761.045 194.814 762.385 195.391Q763.725 195.969 765.052 196.575Q766.38 197.181 767.693 197.816Q769.007 198.452 770.306 199.115Q771.606 199.779 772.89 200.471Q774.175 201.163 775.444 201.883Q776.713 202.603 777.966 203.35Q779.219 204.098 780.456 204.872Q781.693 205.647 782.912 206.448Q784.131 207.25 785.333 208.078Q786.534 208.905 787.718 209.759Q788.901 210.613 790.065 211.493Q791.229 212.372 792.374 213.277C799.996 219.279 806.993 225.861 813.086 233.418C815.92 236.934 818.576 241.228 821.678 244.435C824.919 250.446 828.413 256.28 831.318 262.47C844.258 290.043 847.93 318.242 842.922 348.228L841.706 353.832C840.024 359.716 838.198 365.511 835.996 371.225C838.871 379.877 841.089 388.748 844.001 397.374L844.378 397.999C831.794 416.554 818.265 433.494 799.404 446.024C795.793 448.423 791.999 450.94 788.009 452.636L787.853 453.036Q785.55 454.495 783.098 455.687Q781.538 456.469 779.958 457.211Q778.378 457.954 776.781 458.656Q775.183 459.359 773.568 460.021Q771.953 460.683 770.322 461.305Q768.691 461.926 767.045 462.506Q765.399 463.087 763.739 463.625Q762.078 464.164 760.405 464.661Q758.732 465.158 757.047 465.613Q755.362 466.067 753.666 466.48Q751.97 466.892 750.264 467.261Q748.558 467.631 746.844 467.958Q745.129 468.284 743.407 468.568Q741.685 468.851 739.956 469.091Q738.227 469.331 736.493 469.528Q734.759 469.724 733.02 469.877Q731.281 470.03 729.54 470.14Q727.798 470.249 726.053 470.314Q724.309 470.38 722.564 470.401Q720.819 470.423 719.073 470.401Q717.328 470.379 715.584 470.313Q713.84 470.247 712.098 470.137Q710.356 470.027 708.618 469.874Q706.879 469.72 705.145 469.523Q703.411 469.326 701.682 469.086Q699.953 468.845 698.231 468.561Q696.509 468.277 694.794 467.95Q693.08 467.623 691.374 467.253Q689.669 466.883 687.973 466.47Q686.277 466.057 684.592 465.602Q682.907 465.147 681.234 464.65Q679.561 464.152 677.901 463.613Q676.241 463.074 674.595 462.493Q663.669 458.72 653.546 453.141C645.442 448.673 626.997 436.283 623.018 428.2C600.672 406.946 585.129 387.33 577.042 356.606C567.14 318.985 573.595 281.95 592.97 248.609C605.531 228.2 628.899 206.527 651.419 197.399C661.358 193.991 670.651 190.221 680.922 187.695Z"/>
	<path fill="#A0DBF7" d="M783.045 435.632C799.812 424.124 814.695 410.129 825.092 392.46C829.112 385.628 832.365 378.276 835.996 371.225C838.871 379.877 841.089 388.748 844.001 397.374L844.378 397.999C831.794 416.554 818.265 433.494 799.404 446.024C795.793 448.423 791.999 450.94 788.009 452.636C787.082 449.372 784.916 437.696 783.045 435.632Z"/>
	<path fill="#43B7FF" d="M623.018 428.2C632.358 434.61 641.707 440.602 652.032 445.345C676.696 456.672 706.322 460.219 732.987 455.373C750.764 452.141 767.581 444.824 783.045 435.632C784.916 437.696 787.082 449.372 788.009 452.636L787.853 453.036Q785.55 454.495 783.098 455.687Q781.538 456.469 779.958 457.211Q778.378 457.954 776.781 458.656Q775.183 459.359 773.568 460.021Q771.953 460.683 770.322 461.305Q768.691 461.926 767.045 462.506Q765.399 463.087 763.739 463.625Q762.078 464.164 760.405 464.661Q758.732 465.158 757.047 465.613Q755.362 466.067 753.666 466.48Q751.97 466.892 750.264 467.261Q748.558 467.631 746.844 467.958Q745.129 468.284 743.407 468.568Q741.685 468.851 739.956 469.091Q738.227 469.331 736.493 469.528Q734.759 469.724 733.02 469.877Q731.281 470.03 729.54 470.14Q727.798 470.249 726.053 470.314Q724.309 470.38 722.564 470.401Q720.819 470.423 719.073 470.401Q717.328 470.379 715.584 470.313Q713.84 470.247 712.098 470.137Q710.356 470.027 708.618 469.874Q706.879 469.72 705.145 469.523Q703.411 469.326 701.682 469.086Q699.953 468.845 698.231 468.561Q696.509 468.277 694.794 467.95Q693.08 467.623 691.374 467.253Q689.669 466.883 687.973 466.47Q686.277 466.057 684.592 465.602Q682.907 465.147 681.234 464.65Q679.561 464.152 677.901 463.613Q676.241 463.074 674.595 462.493Q663.669 458.72 653.546 453.141C645.442 448.673 626.997 436.283 623.018 428.2Z"/>
	<path fill="#FEFEFE" d="M703.262 209.211Q704.56 209.135 705.86 209.09Q707.159 209.045 708.459 209.029Q709.76 209.014 711.06 209.029Q712.36 209.044 713.66 209.089Q714.959 209.134 716.257 209.21Q717.555 209.285 718.851 209.39Q720.147 209.496 721.441 209.631Q722.734 209.767 724.024 209.932Q725.313 210.098 726.599 210.293Q727.884 210.488 729.165 210.713Q730.446 210.938 731.721 211.193Q732.996 211.448 734.265 211.732Q735.534 212.017 736.795 212.33Q738.057 212.644 739.312 212.987Q740.566 213.33 741.812 213.702Q743.058 214.074 744.295 214.474Q745.532 214.875 746.759 215.305Q747.987 215.734 749.204 216.192Q750.421 216.649 751.627 217.135Q752.833 217.621 754.028 218.135Q755.222 218.648 756.404 219.19Q757.587 219.731 758.756 220.3Q759.925 220.868 761.081 221.464Q762.237 222.06 763.379 222.682Q764.521 223.304 765.647 223.953Q766.774 224.601 767.886 225.276Q768.998 225.95 770.093 226.651Q771.189 227.351 772.268 228.076Q773.347 228.802 774.409 229.552Q775.471 230.302 776.516 231.077Q777.56 231.852 778.586 232.651Q779.612 233.45 780.619 234.272Q781.691 235.166 782.741 236.085Q783.791 237.005 784.819 237.95Q785.846 238.895 786.85 239.865Q787.853 240.835 788.833 241.829Q789.813 242.823 790.768 243.841Q791.723 244.859 792.653 245.9Q793.583 246.941 794.487 248.005Q795.391 249.069 796.268 250.154Q797.146 251.239 797.997 252.346Q798.848 253.452 799.671 254.58Q800.494 255.707 801.29 256.854Q802.086 258 802.853 259.167Q803.62 260.333 804.358 261.517Q805.097 262.702 805.806 263.904Q806.515 265.106 807.195 266.325Q807.874 267.545 808.524 268.78Q809.173 270.016 809.792 271.267Q810.411 272.518 810.999 273.784Q811.587 275.05 812.144 276.33Q812.701 277.61 813.226 278.903Q813.752 280.196 814.245 281.502Q814.739 282.807 815.2 284.125Q815.661 285.442 816.09 286.77Q816.519 288.099 816.916 289.437Q817.312 290.775 817.675 292.123Q818.039 293.471 818.369 294.827Q818.699 296.183 818.996 297.547Q819.293 298.911 819.556 300.282Q819.82 301.653 820.049 303.029Q820.279 304.406 820.475 305.788Q820.671 307.17 820.833 308.557Q820.995 309.943 821.123 311.333C823.886 340.359 813.758 370.926 795.192 393.207C775.44 416.912 746.6 430.761 716.182 433.448C686.309 434.1 658.245 425.966 635.359 406.151Q634.307 405.247 633.278 404.318Q632.248 403.388 631.242 402.433Q630.237 401.478 629.255 400.499Q628.273 399.52 627.315 398.516Q626.358 397.513 625.426 396.486Q624.493 395.459 623.587 394.409Q622.68 393.36 621.8 392.288Q620.92 391.216 620.066 390.123Q619.213 389.029 618.387 387.915Q617.561 386.801 616.762 385.667Q615.964 384.533 615.194 383.379Q614.424 382.226 613.683 381.053Q612.942 379.881 612.23 378.691Q611.519 377.5 610.837 376.293Q610.154 375.085 609.503 373.861Q608.851 372.637 608.229 371.397Q607.608 370.157 607.017 368.902Q606.427 367.647 605.867 366.378Q605.308 365.109 604.78 363.826Q604.253 362.544 603.757 361.248Q603.261 359.953 602.798 358.646Q602.334 357.339 601.903 356.02Q601.472 354.702 601.074 353.374Q600.676 352.045 600.311 350.707Q599.946 349.369 599.614 348.022Q599.282 346.676 598.984 345.321Q598.685 343.967 598.421 342.605Q598.156 341.244 597.925 339.877Q597.694 338.509 597.497 337.136Q597.3 335.763 597.137 334.386Q596.974 333.009 596.845 331.628Q596.716 330.247 596.622 328.863C594.651 300.415 604.699 269.883 623.475 248.37Q624.412 247.295 625.376 246.244Q626.34 245.193 627.33 244.167Q628.319 243.14 629.334 242.138Q630.349 241.136 631.388 240.16Q632.427 239.183 633.491 238.233Q634.554 237.283 635.64 236.359Q636.727 235.436 637.836 234.539Q638.945 233.643 640.076 232.775Q641.207 231.906 642.359 231.066Q643.511 230.226 644.684 229.414Q645.857 228.603 647.049 227.821Q648.242 227.039 649.453 226.287Q650.665 225.535 651.895 224.813Q653.125 224.091 654.372 223.4Q655.619 222.709 656.883 222.049Q658.148 221.389 659.428 220.761Q660.708 220.133 662.003 219.537Q663.299 218.94 664.608 218.376Q665.918 217.812 667.241 217.281Q668.565 216.75 669.901 216.252Q671.237 215.753 672.585 215.288Q673.933 214.823 675.292 214.392Q676.652 213.961 678.021 213.563Q679.391 213.166 680.77 212.802Q682.148 212.439 683.536 212.11Q684.924 211.781 686.319 211.487Q687.714 211.192 689.116 210.932Q690.518 210.673 691.927 210.448Q693.335 210.223 694.748 210.033Q696.161 209.843 697.579 209.689Q698.997 209.534 700.418 209.415Q701.839 209.295 703.262 209.211Z"/>
	<path fill="#C7193F" d="M705.873 408.026C705.849 404.611 705.265 399.913 708.04 397.299C708.551 396.818 708.646 396.814 709.194 396.551C710.464 396.717 710.938 396.934 711.71 398.005C713.801 400.903 713.206 405.009 713.108 408.365C713.159 409.804 713.169 411.227 713.386 412.653C713.504 415.705 714.21 421.266 712.369 423.856C711.521 425.049 711.08 425.075 709.739 425.389C703.336 423.596 708.409 416.326 705.107 412.547C705.407 411.04 705.676 409.551 705.873 408.026Z"/>
	<path fill="#C7193F" d="M706.144 230.023C706.085 227.196 705.68 223.837 706.639 221.148C707.243 219.455 707.922 218.27 709.617 217.487C710.741 217.718 710.945 217.784 711.69 218.68C714.239 221.745 713.655 226.26 713.558 229.938L713.626 234.512C713.654 236.652 713.828 238.984 713.531 241.1C713.242 243.155 712.112 245.036 710.414 246.189C709.285 246.274 708.65 246.452 707.74 245.594C705.188 243.186 706.186 238.057 705.87 234.843L705.822 234.383C705.735 232.985 706.012 231.426 706.144 230.023Z"/>
	<path fill="#DE4050" d="M713.558 229.938C739.713 231.583 761.588 242.111 778.923 261.874C793.131 278.073 799.645 296.648 801.312 317.887C805.495 317.721 810.925 316.987 814.468 319.811C815.129 320.338 815.342 320.81 815.604 321.577C815.213 322.708 814.543 323.354 813.493 323.899C809.714 325.858 805.193 325.158 801.12 324.915Q801.059 326.043 800.971 327.169Q800.883 328.295 800.768 329.418Q800.652 330.542 800.508 331.662Q800.365 332.782 800.195 333.898Q800.024 335.015 799.826 336.127Q799.628 337.239 799.402 338.345Q799.177 339.452 798.925 340.553Q798.672 341.654 798.393 342.748Q798.114 343.842 797.808 344.929Q797.502 346.016 797.169 347.096Q796.836 348.175 796.477 349.246Q796.118 350.317 795.733 351.378Q795.348 352.44 794.937 353.492Q794.526 354.544 794.089 355.585Q793.652 356.627 793.19 357.657Q792.727 358.688 792.24 359.706Q791.753 360.725 791.24 361.732Q790.728 362.738 790.191 363.732Q789.654 364.725 789.093 365.706Q788.532 366.686 787.947 367.652Q787.362 368.618 786.754 369.57Q786.146 370.521 785.514 371.457Q784.882 372.394 784.228 373.314Q783.574 374.234 782.897 375.139Q782.22 376.043 781.521 376.93Q780.823 377.817 780.102 378.687Q779.382 379.557 778.64 380.409Q777.899 381.261 777.137 382.094Q776.375 382.928 775.592 383.742Q774.81 384.557 774.008 385.352Q773.206 386.147 772.384 386.922Q771.563 387.697 770.723 388.452C755.4 402.172 734.203 412.2 713.386 412.653C713.169 411.227 713.159 409.804 713.108 408.365Q714.856 408.265 716.599 408.095Q718.341 407.925 720.076 407.686Q721.81 407.447 723.534 407.139Q725.258 406.831 726.968 406.454Q728.677 406.078 730.371 405.634Q732.065 405.19 733.739 404.678Q735.414 404.167 737.067 403.589Q738.72 403.012 740.348 402.368Q741.977 401.725 743.578 401.018Q745.18 400.311 746.752 399.54Q748.324 398.769 749.865 397.937Q751.405 397.104 752.911 396.211Q754.417 395.317 755.886 394.365Q757.355 393.412 758.785 392.402Q760.215 391.391 761.603 390.325Q762.992 389.258 764.337 388.137C783.907 371.76 794.388 349.967 796.67 324.775C791.597 324.756 785.682 325.333 781.502 321.917L781.493 320.46C785.24 317.105 791.781 317.845 796.468 317.948C795.924 297.256 787.879 278.158 773.855 262.977C757.575 245.356 737.665 235.553 713.626 234.512L713.558 229.938Z"/>
	<path fill="#DE4050" d="M618.227 317.62C619.906 296.792 626.049 278.848 639.641 262.75C656.979 242.217 679.791 232.301 706.144 230.023C706.012 231.426 705.735 232.985 705.822 234.383C679.565 237.371 658.258 246.557 641.475 267.729C629.834 282.415 623.871 298.955 622.888 317.596C626.588 317.513 632.434 316.747 635.369 319.626C636.221 320.461 636.195 320.71 636.262 321.832C634.887 323.862 632.711 324.904 630.294 325.26C627.886 325.614 625.08 325.336 622.623 325.307C625.425 351.317 635.442 373.447 656.193 390.071C669.713 400.903 688.626 407.323 705.873 408.026C705.676 409.551 705.407 411.04 705.107 412.547C688.23 414.326 664.35 403.01 651.528 392.586C630.694 375.648 620.549 351.168 617.907 325.008C615.121 325.042 611.75 325.424 609.109 324.514C607.418 323.931 606.169 323.241 605.348 321.579C605.555 320.406 605.632 320.205 606.553 319.424C609.642 316.804 614.514 317.505 618.227 317.62Z"/>
	<path fill="#FEFEFE" d="M705.822 234.383L705.87 234.843C706.186 238.057 705.188 243.186 707.74 245.594C708.65 246.452 709.285 246.274 710.414 246.189C712.112 245.036 713.242 243.155 713.531 241.1C713.828 238.984 713.654 236.652 713.626 234.512C737.665 235.553 757.575 245.356 773.855 262.977C787.879 278.158 795.924 297.256 796.468 317.948C791.781 317.845 785.24 317.105 781.493 320.46L781.502 321.917C785.682 325.333 791.597 324.756 796.67 324.775C794.388 349.967 783.907 371.76 764.337 388.137Q762.992 389.258 761.603 390.325Q760.215 391.391 758.785 392.402Q757.355 393.412 755.886 394.365Q754.417 395.317 752.911 396.211Q751.405 397.104 749.865 397.937Q748.324 398.769 746.752 399.54Q745.18 400.311 743.578 401.018Q741.977 401.725 740.348 402.368Q738.72 403.012 737.067 403.589Q735.414 404.167 733.739 404.678Q732.065 405.19 730.371 405.634Q728.677 406.078 726.968 406.454Q725.258 406.831 723.534 407.139Q721.81 407.447 720.076 407.686Q718.341 407.925 716.599 408.095Q714.856 408.265 713.108 408.365C713.206 405.009 713.801 400.903 711.71 398.005C710.938 396.934 710.464 396.717 709.194 396.551C708.646 396.814 708.551 396.818 708.04 397.299C705.265 399.913 705.849 404.611 705.873 408.026C688.626 407.323 669.713 400.903 656.193 390.071C635.442 373.447 625.425 351.317 622.623 325.307C625.08 325.336 627.886 325.614 630.294 325.26C632.711 324.904 634.887 323.862 636.262 321.832C636.195 320.71 636.221 320.461 635.369 319.626C632.434 316.747 626.588 317.513 622.888 317.596C623.871 298.955 629.834 282.415 641.475 267.729C658.258 246.557 679.565 237.371 705.822 234.383Z"/>
	<path fill="#0749CC" d="M732.413 270.386Q734.261 269.475 736.155 268.663Q738.049 267.85 739.983 267.14Q741.917 266.429 743.886 265.822Q745.856 265.214 747.854 264.712Q749.853 264.21 751.875 263.814Q753.897 263.418 755.938 263.13Q757.978 262.842 760.031 262.662Q762.083 262.483 764.143 262.412C766.038 262.333 767.868 262.148 769.325 263.478L769.126 265.344C768.572 265.539 767.917 265.834 767.344 265.942C764.757 264.03 758.972 264.999 755.883 265.47C748.561 266.587 741.615 268.803 734.665 271.302L732.413 270.386Z"/>
	<path fill="#0749CC" d="M734.665 271.302C741.615 268.803 748.561 266.587 755.883 265.47C758.972 264.999 764.757 264.03 767.344 265.942C767.917 265.834 768.572 265.539 769.126 265.344C768.367 273.542 765.927 281.07 763.127 288.777C762.089 291.636 760.237 295.33 759.859 298.254C759.7 299.481 760.016 300.429 760.408 301.57L760.623 302.05C765.41 312.934 763.705 328.287 759.399 339.041C754.013 352.491 744.165 362.236 730.86 367.906C717.443 373.625 702.684 374.187 689.127 368.553Q687.852 368.014 686.605 367.413Q685.358 366.812 684.143 366.15Q682.927 365.488 681.745 364.768Q680.563 364.047 679.418 363.27Q678.273 362.492 677.167 361.659Q676.062 360.826 674.998 359.94Q673.935 359.054 672.916 358.116Q671.898 357.179 670.926 356.193Q669.955 355.207 669.033 354.174Q668.112 353.141 667.242 352.065Q666.372 350.988 665.556 349.87Q664.74 348.752 663.98 347.595Q663.22 346.438 662.517 345.245Q661.815 344.052 661.172 342.827Q660.529 341.601 659.947 340.345Q659.365 339.089 658.845 337.806Q658.369 336.652 657.951 335.476Q657.533 334.3 657.175 333.105Q656.816 331.909 656.518 330.697Q656.221 329.485 655.984 328.26Q655.748 327.034 655.573 325.799Q655.399 324.563 655.286 323.32Q655.174 322.077 655.124 320.83Q655.074 319.583 655.088 318.335Q655.101 317.087 655.176 315.841Q655.252 314.595 655.39 313.355Q655.528 312.115 655.729 310.883Q655.929 309.651 656.191 308.43Q656.453 307.21 656.776 306.005Q657.099 304.799 657.482 303.611Q657.865 302.424 658.307 301.256Q658.75 300.089 659.25 298.946C665.167 285.226 675.816 274.477 689.755 268.964C703.847 263.391 718.63 264.458 732.413 270.386L734.665 271.302Z"/>
	<path fill="#43B7FF" d="M734.665 271.302C741.615 268.803 748.561 266.587 755.883 265.47C758.972 264.999 764.757 264.03 767.344 265.942C763.989 278.765 761.003 291.061 754.614 302.842C748.562 310.526 745.193 314.977 736.103 319.236C730.549 320.588 726.285 320.743 720.728 319.276C719.16 318.461 717.532 317.66 716.12 316.588C712.354 313.729 709.68 309.633 709.124 304.893C708.184 296.888 712.894 289.603 717.602 283.618C722.807 278.446 728.162 274.698 734.665 271.302Z"/>
	<path fill="#43B7FF" d="M756.097 304.499C758.26 313.75 758.897 322.887 756.33 332.147C752.833 344.762 744.454 354.825 733.068 361.134Q732.037 361.711 730.978 362.236Q729.92 362.761 728.837 363.234Q727.754 363.707 726.649 364.126Q725.544 364.546 724.42 364.91Q723.296 365.275 722.155 365.584Q721.015 365.893 719.861 366.145Q718.706 366.398 717.541 366.594Q716.376 366.79 715.202 366.928Q714.028 367.067 712.849 367.147Q711.671 367.228 710.489 367.251Q709.308 367.274 708.127 367.239Q706.945 367.204 705.767 367.111Q704.589 367.018 703.417 366.867Q702.245 366.717 701.082 366.509Q699.919 366.301 698.767 366.036Q697.615 365.772 696.478 365.451Q695.299 365.107 694.138 364.705Q692.977 364.304 691.837 363.845Q690.697 363.386 689.581 362.872Q688.466 362.357 687.377 361.789Q686.288 361.22 685.228 360.598Q684.169 359.976 683.142 359.302Q682.114 358.629 681.121 357.905Q680.128 357.181 679.172 356.41Q678.216 355.638 677.3 354.82Q676.383 354.002 675.508 353.14Q674.633 352.278 673.802 351.373Q672.97 350.469 672.184 349.524Q671.399 348.58 670.661 347.598Q669.922 346.615 669.234 345.598Q668.545 344.581 667.907 343.531Q667.27 342.48 666.685 341.4C660.422 330.014 658.84 318.076 662.517 305.547Q662.854 304.38 663.248 303.23Q663.643 302.081 664.094 300.953Q664.545 299.825 665.052 298.721Q665.559 297.617 666.12 296.539Q666.681 295.461 667.295 294.413Q667.909 293.364 668.575 292.348Q669.24 291.331 669.955 290.349Q670.671 289.367 671.434 288.422Q672.197 287.477 673.007 286.57Q673.816 285.664 674.669 284.799Q675.523 283.935 676.418 283.114Q677.314 282.292 678.249 281.517Q679.184 280.741 680.157 280.013Q681.13 279.285 682.138 278.606Q683.145 277.928 684.186 277.3Q685.226 276.672 686.296 276.097C699.062 269.228 712.504 269.403 726.075 273.444C723.134 275.576 720.372 277.664 717.819 280.255C711.833 286.729 706.306 294.922 706.846 304.168C707.16 309.528 709.777 314.206 713.863 317.621C715.725 319.178 717.859 320.295 720.059 321.287C724.867 322.619 731.23 323.564 735.848 321.191C745.053 318.521 750.922 312.248 756.097 304.499Z"/>
	<path fill="#FEFEFE" d="M709.135 527.411C714.839 528.088 720.891 527.701 726.644 527.677L755.939 527.58L862.823 527.424C869.063 527.47 875.346 527.288 881.524 528.287C889.476 530.496 896.576 535.251 900.744 542.519C902.773 546.057 903.852 549.791 904.513 553.806Q904.649 567.893 904.579 581.981C905.549 597.015 904.904 612.445 904.919 627.529L904.883 708.837C906.404 706.264 907.793 703.66 909.136 700.989C909.432 701.604 909.667 702.052 909.747 702.74C910.412 708.466 909.381 717.797 909.338 723.946C909.246 737.37 910.092 751.29 909.235 764.655C909.003 768.274 908.426 771.799 907.226 775.23Q906.938 776.049 906.611 776.853Q906.284 777.656 905.918 778.443Q905.552 779.23 905.148 779.998Q904.744 780.766 904.302 781.513Q903.862 782.261 903.385 782.986Q902.908 783.711 902.396 784.412Q901.884 785.113 901.339 785.788Q900.794 786.463 900.216 787.11Q899.639 787.758 899.03 788.377Q898.422 788.996 897.784 789.584Q897.146 790.172 896.48 790.729Q895.814 791.285 895.122 791.809Q894.43 792.332 893.713 792.821Q892.996 793.31 892.256 793.764Q891.516 794.217 890.755 794.634Q889.994 795.051 889.213 795.43C878.065 800.754 861.393 799.312 849.182 798.757Q855.638 791.469 861.919 784.031L766.543 784.4C760.569 784.412 729.927 783.54 726.217 784.818C720.241 789.393 713.615 794.68 706.924 798.113C705.204 797.229 703.04 797.624 701.157 797.68C689.489 798.026 677.235 799.839 666.981 793.107C657.912 787.153 650.624 777.197 648.397 766.509C647.927 764.657 646.531 762.625 645.766 760.819C643.073 754.466 642.476 749.46 642.438 742.556L642.521 730.916L642.2 588.078C642.224 570.333 639.283 551.008 653.143 537.388C663.288 527.419 675.253 527.411 688.572 527.348Q698.854 527.308 709.135 527.411Z"/>
	<path fill="#A0DBF7" d="M648.397 766.509C655.503 775.469 663.762 782.1 675.488 783.415C687.274 784.737 702.971 784.037 715.266 784.379C718.868 784.48 722.654 784.353 726.217 784.818C720.241 789.393 713.615 794.68 706.924 798.113C705.204 797.229 703.04 797.624 701.157 797.68C689.489 798.026 677.235 799.839 666.981 793.107C657.912 787.153 650.624 777.197 648.397 766.509Z"/>
	<path fill="#A0DBF7" d="M904.579 581.981C905.549 597.015 904.904 612.445 904.919 627.529L904.883 708.837C906.404 706.264 907.793 703.66 909.136 700.989C909.432 701.604 909.667 702.052 909.747 702.74C910.412 708.466 909.381 717.797 909.338 723.946C909.246 737.37 910.092 751.29 909.235 764.655C909.003 768.274 908.426 771.799 907.226 775.23Q906.938 776.049 906.611 776.853Q906.284 777.656 905.918 778.443Q905.552 779.23 905.148 779.998Q904.744 780.766 904.302 781.513Q903.862 782.261 903.385 782.986Q902.908 783.711 902.396 784.412Q901.884 785.113 901.339 785.788Q900.794 786.463 900.216 787.11Q899.639 787.758 899.03 788.377Q898.422 788.996 897.784 789.584Q897.146 790.172 896.48 790.729Q895.814 791.285 895.122 791.809Q894.43 792.332 893.713 792.821Q892.996 793.31 892.256 793.764Q891.516 794.217 890.755 794.634Q889.994 795.051 889.213 795.43C878.065 800.754 861.393 799.312 849.182 798.757Q855.638 791.469 861.919 784.031C873.674 783.757 884.221 780.46 893.1 772.552C898.263 767.954 902.646 761.712 904.104 754.894C906.638 743.045 904.597 718.608 904.449 705.387C904.158 679.481 904.418 653.544 904.414 627.634C904.412 612.783 903.597 597.417 904.535 582.614L904.579 581.981Z"/>
	<path fill="#43B7FF" d="M690.048 688.195L740.076 688.074L740.069 737.525L690.463 737.408C689.473 721.119 689.998 704.522 690.048 688.195Z"/>
	<path fill="#43B7FF" d="M755.037 662.485L800.484 662.411C800.467 687.188 801.31 712.302 800.294 737.041Q777.678 736.924 755.064 737.265Q755.419 699.875 755.037 662.485Z"/>
	<path fill="#F39A33" d="M878.759 558.543L879.3 558.632C879.939 560.565 870.568 607.059 869.641 613.768C863.926 608.813 858.99 602.98 854.111 597.22C847.792 601.968 842.013 608.043 836.112 613.336Q822.686 625.196 809.047 636.809C804.462 640.785 799.732 645.618 794.628 648.895C792.914 649.996 791.233 650.555 789.179 650.522C787.995 650.502 786.943 650.159 785.945 649.525C781.418 646.651 777.287 642.131 773.362 638.498C766.152 631.823 758.869 625.21 751.948 618.234L708.836 644.294C702.995 647.814 697.219 651.677 691.234 654.934C688.495 656.425 687.058 656.491 684.067 655.624C682.037 654.253 679.77 652.431 679.465 649.794C679.288 648.263 679.706 646.791 680.677 645.595C684.503 640.882 716.549 623.249 724.305 618.501C731.901 613.851 739.388 608.429 747.241 604.267C748.979 603.346 751.428 602.096 753.462 602.213C758.205 602.486 784.172 629.997 789.523 634.885C807.177 618.209 826.615 603.568 844.043 586.596Q836.77 578.817 829.348 571.18C845.806 567.448 862.665 563.603 878.759 558.543Z"/>
	<path fill="#43B7FF" d="M816.054 636.704Q838.927 636.779 861.798 636.492L861.571 694.232C861.559 702.084 862.554 731.671 860.898 736.731C855.421 737.619 849.276 737.088 843.701 737.086Q829.85 737.099 816 737.266C816.064 703.782 815.354 670.174 816.054 636.704Z"/>
	<path fill="#FEFEFE" d="M258.278 382.532L449.912 382.556L507.586 382.581C516.513 382.587 526.274 381.812 535.109 382.799C538.988 383.232 542.508 384.654 545.309 387.434C548.36 390.461 549.981 394.314 550.676 398.501C549.665 411.858 550.523 425.914 550.587 439.341C550.632 448.878 549.831 461.139 551.024 470.449C552.409 478.976 551.352 488.792 551.348 497.46L551.407 546.149C551.416 554.686 551.051 563.405 551.485 571.923L550.819 573.272C546.662 572.664 542.228 570.503 538.199 569.206C533.086 567.56 527.756 566.434 522.473 565.49C517.954 564.683 513.216 564.534 508.637 564.281Q507.151 564.194 505.663 564.139Q504.176 564.084 502.687 564.062Q501.199 564.039 499.71 564.049Q498.222 564.059 496.734 564.101Q495.246 564.142 493.759 564.216Q492.272 564.291 490.788 564.397Q489.303 564.503 487.821 564.641Q486.339 564.78 484.86 564.95Q483.381 565.12 481.906 565.323Q480.431 565.525 478.961 565.759Q477.491 565.994 476.027 566.259Q474.562 566.525 473.103 566.823Q471.645 567.121 470.193 567.45Q468.741 567.779 467.297 568.139Q465.853 568.5 464.417 568.891Q462.981 569.283 461.553 569.706Q460.126 570.128 458.708 570.582Q457.29 571.035 455.882 571.519Q454.475 572.003 453.078 572.517Q451.681 573.032 450.295 573.576Q448.91 574.121 447.537 574.695Q446.163 575.269 444.803 575.873Q443.442 576.477 442.095 577.11Q440.748 577.744 439.415 578.406Q438.081 579.068 436.763 579.759Q435.444 580.45 434.141 581.169Q432.838 581.888 431.55 582.636Q430.263 583.383 428.992 584.158Q427.721 584.933 426.467 585.735Q425.213 586.538 423.977 587.367Q422.741 588.196 421.523 589.052Q420.305 589.908 419.106 590.79C389.832 612.56 370.87 643.68 364.05 679.417L281.215 679.328C253.363 678.871 225.48 679.039 197.624 678.912C184.817 678.558 165.321 681.446 154.251 675.8Q152.943 674.729 151.733 673.547C148.536 670.467 146.332 666.808 145.739 662.366C144.928 656.285 145.448 649.624 145.469 643.481L145.53 609.398L145.497 525.805C145.53 507.394 145.865 488.932 145.413 470.528C145.285 470.133 145.217 469.97 145.157 469.513C143.944 460.356 144.794 444.399 144.757 434.704C144.719 424.789 143.504 408.224 145.033 398.935C145.651 395.182 147.134 391.362 149.596 388.426C151.715 385.901 154.434 384.441 157.596 383.62C169.171 380.612 186.967 383.676 199.663 382.704L200.257 382.654L258.278 382.532Z"/>
	<path fill="#43B7FF" d="M187.6 581.651C205.627 580.693 224.155 581.497 242.229 581.524C262.543 581.555 283.155 580.889 303.436 581.734C305.536 581.822 307.863 581.7 309.25 583.602C309.918 584.519 310.016 585.637 309.903 586.727C309.698 588.716 308.752 589.63 307.342 590.859C297.257 591.361 188.997 591.375 187.101 590.31C185.998 589.69 185.401 588.721 185.212 587.483C184.861 585.188 186.093 583.204 187.6 581.651Z"/>
	<path fill="#43B7FF" d="M188.292 547.647C205.421 547.452 377.475 546.847 380.238 548.358C381.299 548.939 381.762 549.475 382.192 550.59C382.733 551.991 382.403 553.657 381.779 554.977C381.067 556.483 380.137 557.052 378.606 557.532C337.192 558.141 295.702 557.754 254.281 557.73L213.746 557.793C206.397 557.818 198.762 558.268 191.442 557.697C189.621 557.555 187.877 557.289 186.499 555.957C185.476 554.968 185.203 553.891 185.217 552.507C185.24 550.266 186.699 548.978 188.292 547.647Z"/>
	<path fill="#43B7FF" d="M394.344 513.753C398.207 513.686 408.191 512.415 410.954 515.245C411.774 516.085 412.08 517.159 412.121 518.304C412.177 519.85 411.789 521.404 410.598 522.479C409.16 523.778 406.761 523.816 404.933 523.871C385.168 524.467 365.118 523.569 345.318 523.586L203.25 523.601C198.649 523.692 192.297 524.486 188.006 522.808C186.493 522.217 185.739 521.456 185.102 519.941C185.034 518.216 185.28 516.332 186.582 515.041C187.288 514.342 188.269 514.015 189.235 513.927C195.675 513.336 202.714 513.951 209.232 513.955L251.729 513.92L394.344 513.753Z"/>
	<path fill="#124485" d="M258.278 382.532L449.912 382.556L507.586 382.581C516.513 382.587 526.274 381.812 535.109 382.799C538.988 383.232 542.508 384.654 545.309 387.434C548.36 390.461 549.981 394.314 550.676 398.501C549.665 411.858 550.523 425.914 550.587 439.341C550.632 448.878 549.831 461.139 551.024 470.449L145.413 470.528C145.285 470.133 145.217 469.97 145.157 469.513C143.944 460.356 144.794 444.399 144.757 434.704C144.719 424.789 143.504 408.224 145.033 398.935C145.651 395.182 147.134 391.362 149.596 388.426C151.715 385.901 154.434 384.441 157.596 383.62C169.171 380.612 186.967 383.676 199.663 382.704L200.257 382.654L258.278 382.532Z"/>
	<path fill="#F39A33" d="M231.455 415.082C233.769 415.028 236.319 415.527 238.402 416.55Q238.985 416.837 239.535 417.181Q240.086 417.526 240.598 417.926Q241.11 418.325 241.579 418.775Q242.048 419.225 242.468 419.721Q242.888 420.216 243.255 420.752Q243.622 421.288 243.932 421.859Q244.242 422.43 244.492 423.029Q244.742 423.629 244.929 424.251C246.046 427.855 245.708 431.875 243.786 435.15C241.413 439.191 238.082 440.904 233.677 442.01C230.623 442.049 228.046 441.758 225.392 440.12Q224.823 439.773 224.292 439.371Q223.76 438.969 223.271 438.516Q222.782 438.063 222.341 437.564Q221.899 437.065 221.51 436.524Q221.12 435.983 220.786 435.407Q220.452 434.83 220.177 434.223Q219.902 433.616 219.689 432.985Q219.475 432.353 219.326 431.704Q219.175 431.06 219.089 430.405Q219.003 429.75 218.984 429.089Q218.964 428.428 219.011 427.769Q219.058 427.109 219.171 426.458Q219.284 425.807 219.462 425.17Q219.64 424.533 219.88 423.917Q220.121 423.302 220.423 422.713Q220.724 422.125 221.083 421.57C223.522 417.716 227.134 415.988 231.455 415.082Z"/>
	<path fill="#DE4050" d="M184.734 415.055C187.514 414.789 190.027 414.993 192.605 416.153Q193.214 416.427 193.792 416.76Q194.371 417.092 194.913 417.481Q195.456 417.869 195.958 418.31Q196.459 418.75 196.915 419.238Q197.37 419.726 197.775 420.256Q198.18 420.787 198.531 421.355Q198.881 421.923 199.173 422.523Q199.466 423.123 199.697 423.749C201.017 427.255 200.993 431.258 199.338 434.651C197.328 438.775 193.922 440.784 189.712 442.194C187.03 442.409 184.628 442.413 182.095 441.382Q181.448 441.123 180.831 440.798Q180.215 440.473 179.636 440.084Q179.057 439.696 178.522 439.249Q177.987 438.802 177.502 438.302Q177.017 437.801 176.587 437.253Q176.157 436.704 175.787 436.113Q175.417 435.523 175.111 434.896Q174.805 434.27 174.566 433.615Q174.324 432.963 174.149 432.29Q173.974 431.617 173.868 430.93Q173.761 430.243 173.723 429.548Q173.686 428.854 173.718 428.159Q173.75 427.464 173.852 426.776Q173.953 426.089 174.123 425.414Q174.293 424.74 174.53 424.086Q174.766 423.432 175.067 422.805C177.133 418.561 180.5 416.626 184.734 415.055Z"/>
	<path fill="#FEFEFE" d="M291.38 413.688C303.992 413.458 316.664 413.827 329.285 413.818L423.281 413.84L473.802 413.78C480.824 413.756 488.173 413.097 495.14 413.521C497.896 413.689 500.264 414.409 502.602 415.906Q503.256 416.317 503.863 416.794Q504.471 417.272 505.025 417.81Q505.579 418.348 506.074 418.941Q506.569 419.534 507 420.176Q507.43 420.817 507.791 421.5Q508.152 422.183 508.44 422.9Q508.727 423.617 508.938 424.36Q509.15 425.103 509.282 425.864C509.985 429.798 509.25 433.886 506.836 437.122C503.89 441.072 500.338 442.217 495.708 442.93C448.92 443.575 401.996 443.237 355.2 443.006Q334.603 442.894 314.005 443.016C306.355 443.043 298.445 443.462 290.827 442.851C288.013 442.625 285.534 441.894 283.213 440.235C280.088 438.002 277.762 434.598 277.213 430.762Q277.115 430.032 277.091 429.296Q277.067 428.56 277.117 427.826Q277.167 427.091 277.291 426.365Q277.414 425.639 277.61 424.929Q277.805 424.219 278.071 423.532Q278.337 422.846 278.671 422.189Q279.004 421.532 279.402 420.913Q279.799 420.293 280.257 419.716C283.223 415.922 286.733 414.372 291.38 413.688Z"/>
</svg>
