<?xml version="1.0" encoding="utf-8" ?>
<svg xmlns="http://www.w3.org/2000/svg" xmlns:xlink="http://www.w3.org/1999/xlink" width="1024" height="1024">
	<path fill="#FDFDFD" d="M0 0L1024 0L1024 1024L0 1024L0 0Z"/>
	<path fill="#43B7FF" d="M499.818 55.2311C499.883 55.2285 499.948 55.2246 500.013 55.2233Q505.576 55.0656 511.142 55.0447Q516.708 55.0238 522.272 55.1398Q527.836 55.2557 533.396 55.5085Q538.956 55.7613 544.508 56.1507Q550.06 56.5402 555.601 57.066Q561.142 57.5919 566.668 58.2538Q572.194 58.9158 577.702 59.7134Q583.21 60.511 588.697 61.4439Q594.184 62.3767 599.647 63.4442Q605.109 64.5117 610.543 65.7132Q615.978 66.9147 621.381 68.2495Q626.784 69.5843 632.153 71.0515Q637.522 72.5188 642.853 74.1176Q648.184 75.7165 653.474 77.4459Q658.764 79.1753 664.01 81.0344Q669.256 82.8934 674.455 84.8808Q679.654 86.8683 684.802 88.983Q689.95 91.0977 695.045 93.3383Q700.139 95.579 705.177 97.9443Q710.216 100.31 715.194 102.798Q720.172 105.286 725.088 107.897Q730.004 110.507 734.854 113.237Q739.703 115.967 744.485 118.816Q749.266 121.664 753.976 124.63Q758.686 127.595 763.322 130.675Q767.957 133.756 772.515 136.949Q777.074 140.142 781.552 143.447Q786.031 146.751 790.427 150.165Q794.823 153.579 799.133 157.099Q803.444 160.62 807.666 164.246Q811.889 167.871 816.021 171.6Q820.154 175.328 824.193 179.157Q828.247 182.945 832.208 186.831Q836.169 190.717 840.034 194.698Q843.899 198.68 847.667 202.753Q851.434 206.827 855.101 210.992Q858.768 215.156 862.333 219.408Q865.898 223.66 869.358 227.998Q872.818 232.336 876.172 236.756Q879.526 241.177 882.771 245.677Q886.017 250.178 889.152 254.756Q892.287 259.335 895.309 263.988Q898.332 268.641 901.241 273.366Q904.15 278.091 906.943 282.886Q909.735 287.681 912.411 292.542Q915.086 297.403 917.643 302.328Q920.2 307.252 922.636 312.238Q925.072 317.223 927.386 322.266Q929.7 327.31 931.891 332.408Q934.082 337.506 936.148 342.655Q938.214 347.805 940.154 353.003Q942.095 358.202 943.908 363.446Q945.722 368.69 947.407 373.977Q949.093 379.263 950.649 384.589Q952.205 389.915 953.632 395.278Q955.058 400.64 956.354 406.035Q957.649 411.431 958.813 416.856Q959.977 422.281 961.009 427.733Q962.041 433.185 962.94 438.661Q963.839 444.136 964.604 449.632Q965.37 455.128 966.001 460.641Q966.633 466.153 967.13 471.68Q967.628 477.206 967.991 482.743Q968.354 488.28 968.582 493.824C971.378 581.377 953.152 662.048 909.551 738.268Q902.92 750.016 895.59 761.341Q888.26 772.665 880.257 783.525Q872.255 794.385 863.609 804.741Q854.963 815.096 845.706 824.909Q841.828 828.99 837.851 832.975Q833.874 836.96 829.801 840.847Q825.728 844.734 821.561 848.52Q817.395 852.306 813.137 855.99Q808.88 859.674 804.534 863.252Q800.187 866.831 795.755 870.302Q791.323 873.774 786.807 877.136Q782.292 880.499 777.695 883.75Q773.099 887.001 768.425 890.139Q763.751 893.277 759.001 896.301Q754.252 899.324 749.43 902.23Q744.609 905.137 739.718 907.925Q734.826 910.713 729.869 913.38Q724.911 916.048 719.89 918.594Q714.868 921.14 709.786 923.563Q704.704 925.986 699.565 928.284Q694.425 930.582 689.231 932.754Q684.037 934.926 678.792 936.971Q673.546 939.016 668.253 940.932Q662.959 942.848 657.62 944.635Q652.281 946.421 646.9 948.077Q641.519 949.733 636.099 951.257Q630.679 952.78 625.224 954.172Q619.769 955.563 614.281 956.821Q608.793 958.078 603.277 959.202Q597.76 960.326 592.218 961.314Q586.675 962.303 581.11 963.156Q575.545 964.009 569.961 964.726Q564.377 965.443 558.777 966.024Q553.177 966.605 547.565 967.049Q541.953 967.493 536.331 967.799Q530.709 968.106 525.082 968.276Q519.495 968.425 513.907 968.438Q508.318 968.45 502.731 968.327Q497.144 968.203 491.562 967.943Q485.979 967.684 480.405 967.288Q474.83 966.893 469.267 966.362Q463.704 965.83 458.155 965.164Q452.606 964.497 447.076 963.696Q441.545 962.894 436.035 961.958Q430.526 961.022 425.041 959.952Q419.555 958.882 414.098 957.679Q408.641 956.475 403.214 955.139Q397.788 953.804 392.395 952.336Q387.003 950.868 381.648 949.269Q376.293 947.671 370.978 945.942Q365.664 944.213 360.393 942.356Q355.122 940.498 349.898 938.513Q344.675 936.527 339.5 934.415Q334.326 932.303 329.205 930.065Q324.084 927.828 319.019 925.466Q313.954 923.104 308.949 920.62Q303.943 918.136 298.999 915.53Q294.055 912.924 289.176 910.199Q284.297 907.474 279.486 904.631Q274.674 901.787 269.934 898.828Q265.193 895.868 260.526 892.794Q255.86 889.719 251.269 886.532Q246.678 883.345 242.167 880.047Q237.655 876.749 233.225 873.342Q228.795 869.935 224.449 866.422Q220.104 862.908 215.845 859.289Q211.586 855.67 207.417 851.949Q203.247 848.228 199.17 844.406Q195.127 840.628 191.177 836.753Q187.228 832.878 183.374 828.907Q179.52 824.937 175.764 820.874Q172.008 816.81 168.352 812.657Q164.697 808.503 161.143 804.262Q157.59 800.02 154.141 795.693Q150.692 791.366 147.35 786.956Q144.008 782.546 140.774 778.056Q137.541 773.566 134.417 768.999Q131.294 764.431 128.283 759.789Q125.273 755.146 122.376 750.432Q119.479 745.717 116.698 740.933Q113.918 736.15 111.254 731.3Q108.591 726.449 106.047 721.536Q103.503 716.622 101.079 711.648Q98.6555 706.674 96.354 701.642Q94.0524 696.61 91.8743 691.523Q89.6962 686.437 87.6428 681.298Q85.5895 676.16 83.662 670.974Q81.7346 665.787 79.9342 660.555Q78.1339 655.323 76.4617 650.048Q74.7895 644.773 73.2465 639.46Q71.7035 634.146 70.2905 628.796Q68.8776 623.446 67.5956 618.063Q66.3135 612.681 65.1632 607.268Q64.0128 601.856 62.9949 596.417Q61.9769 590.978 61.0919 585.516Q60.2069 580.054 59.4553 574.572Q58.7038 569.09 58.0863 563.592Q57.4687 558.093 56.9854 552.581Q56.5022 547.069 56.1535 541.546Q55.8048 536.024 55.591 530.495Q55.3587 524.866 55.2652 519.232Q55.1717 513.599 55.217 507.965Q55.2623 502.331 55.4463 496.7Q55.6304 491.069 55.9531 485.445Q56.2759 479.82 56.7371 474.205Q57.1983 468.59 57.7977 462.988Q58.3972 457.385 59.1344 451.8Q59.8716 446.214 60.7463 440.648Q61.6209 435.083 62.6324 429.54Q63.6439 423.998 64.7916 418.482Q65.9393 412.966 67.2226 407.48Q68.5059 401.994 69.9239 396.541Q71.3419 391.089 72.8939 385.673Q74.4458 380.257 76.1307 374.88Q77.8156 369.504 79.6324 364.171Q81.4493 358.838 83.3969 353.551Q85.3446 348.265 87.4219 343.028Q89.4992 337.791 91.705 332.606Q93.9107 327.422 96.2434 322.293Q98.5762 317.165 101.035 312.096Q103.493 307.026 106.076 302.019Q108.658 297.012 111.363 292.07Q114.068 287.127 116.894 282.253Q119.72 277.379 122.666 272.577Q125.611 267.774 128.674 263.045Q131.736 258.316 134.915 253.664Q138.093 249.012 141.385 244.44Q144.677 239.867 148.08 235.378Q151.484 230.888 154.997 226.483Q158.51 222.079 162.131 217.762Q165.751 213.445 169.477 209.219Q173.203 204.993 177.032 200.86Q180.913 196.714 184.896 192.664Q188.878 188.615 192.959 184.664Q197.04 180.714 201.217 176.866Q205.395 173.018 209.665 169.274Q213.936 165.53 218.298 161.892Q222.66 158.255 227.11 154.726Q231.56 151.197 236.096 147.779Q240.632 144.361 245.251 141.056Q249.87 137.75 254.569 134.56Q259.268 131.37 264.044 128.296Q268.82 125.223 273.671 122.268Q278.521 119.313 283.443 116.479Q288.365 113.645 293.355 110.933Q298.345 108.221 303.401 105.633Q308.457 103.045 313.575 100.582Q318.692 98.1192 323.87 95.7835Q329.047 93.4478 334.28 91.2404Q339.513 89.0331 344.799 86.9555Q350.085 84.8779 355.42 82.9312Q360.756 80.9846 366.138 79.1701Q371.52 77.3557 376.945 75.6745Q382.37 73.9933 387.835 72.4464Q393.3 70.8994 398.801 69.4878Q404.303 68.0761 409.837 66.8005Q415.372 65.5249 420.936 64.3862Q426.5 63.2475 432.091 62.2463Q437.681 61.2452 443.295 60.3822Q448.909 59.5192 454.542 58.7949Q460.175 58.0706 465.825 57.4854Q471.474 56.9003 477.136 56.4546Q482.798 56.0089 488.469 55.703Q494.141 55.3971 499.818 55.2311Z"/>
	<path fill="#0C151A" d="M851.192 277.24C853.48 278.973 854.989 280.77 856.422 283.241C857.062 324.036 856.224 364.877 856.515 405.68C855.299 406.532 854.54 407.111 852.992 407.179C852.444 406.926 852.013 406.793 851.605 406.336L851.551 310.473L851.593 289.908Q852.033 283.554 851.192 277.24Z"/>
	<path fill="#2576B9" d="M849.163 436.232C851.839 435.095 853.298 433.38 855.038 431.094C855.839 436.346 856.053 442.882 852.891 447.422C850.608 450.701 847.13 452.184 843.272 452.709C834.041 453.966 823.481 452.843 814.188 452.504C813.541 447.324 813.356 442.089 812.383 436.953C819.549 436.883 844.145 438.172 849.163 436.232Z"/>
	<path fill="#052C7B" d="M762.771 312.005C762.566 304.624 761.066 287.77 764.315 281.648C765.629 279.172 768.62 276.961 771.339 276.312C778.749 274.544 805.051 275.504 813.965 275.478C823.688 275.449 838.289 274.481 847.567 275.704C848.986 275.891 849.999 276.486 851.192 277.24Q852.033 283.554 851.593 289.908L797.039 289.9C787.278 289.908 777.238 289.444 767.51 289.993C767.322 290.202 767.137 290.414 766.944 290.619C766.141 291.472 765.384 291.707 764.297 292.076C761.352 295.892 763.95 306.697 762.771 312.005Z"/>
	<path fill="#2576B9" d="M181.909 799.42C183.312 801.35 185.11 803.092 187.147 804.34C189.613 805.851 191.937 806.124 194.766 806.265C210.298 807.038 226.137 806.463 241.701 806.465L327.598 806.52L370.349 806.556C375.886 806.559 384.801 807.508 389.854 806.186C395.378 804.741 398.134 800.734 400.744 796.038C403.982 797.192 406.012 797.761 407.884 800.837C408.195 803.336 408.618 806.208 408.325 808.73C408.007 811.465 406.362 813.471 404.212 815.058C397.772 819.814 388.324 822.096 380.666 823.978C333.649 835.534 264.293 834.551 216.707 826.822C206.36 825.141 182.885 820.996 177.014 812.235C175.607 810.136 175.697 807.608 176.268 805.231C176.987 802.238 179.441 800.884 181.909 799.42Z"/>
	<path fill="#2576B9" d="M641.673 787.508C676.245 786.787 710.956 787.522 745.544 787.488L802.962 787.334C812.052 787.297 821.191 786.97 830.272 787.176C828.033 787.447 825.823 787.616 823.569 787.707C829.947 790.624 841.456 795.468 844.088 802.525C844.926 804.77 844.738 807.119 843.659 809.248C839.207 818.032 823.908 822.484 815.271 824.982C772.563 837.335 711.076 836.935 667.402 828.775C655.35 826.524 642.726 823.764 631.928 817.772C627.612 815.377 624.397 812.663 621.993 808.276C621.934 804.729 621.968 801.898 623.413 798.575C629.196 794.283 635.305 790.844 641.673 787.508Z"/>
	<path fill="#F5553E" d="M426.428 150.603C427.128 149.717 427.877 148.846 428.668 148.042C430.122 146.562 431.813 145.645 433.853 145.287C441.847 143.886 451.165 144.805 459.326 144.8L512.324 144.933C513.064 158.038 512.76 171.334 512.76 184.463L512.513 258.054C504.296 258.02 495.558 257.357 487.403 258.082C483.21 257.356 478.009 257.962 473.684 257.977L440.443 258.118C435.885 258.114 431.149 257.695 427.836 254.147C424.501 250.576 425.272 245.133 425.291 240.608Q425.26 221.566 425.506 202.525C425.806 191.687 425.526 180.764 425.546 169.917C425.558 163.531 425.16 156.884 426.428 150.603Z"/>
	<path fill="#F03A31" d="M456.82 223.433C460.793 229.021 465.378 233.437 472.405 234.739C479.217 236.001 485.284 233.819 491.06 230.4C491.844 230.169 492.617 229.92 493.394 229.665L493.445 229.544L493.621 231.165C492.231 233.524 489.985 235.473 487.589 236.771Q487.098 237.034 486.594 237.273Q486.09 237.512 485.575 237.725Q485.06 237.939 484.535 238.126Q484.01 238.314 483.476 238.476Q482.943 238.637 482.402 238.772Q481.861 238.907 481.314 239.015Q480.767 239.122 480.215 239.203Q479.664 239.284 479.109 239.337Q478.554 239.39 477.997 239.416Q477.44 239.441 476.882 239.439Q476.325 239.437 475.768 239.408Q475.211 239.378 474.657 239.321Q474.102 239.264 473.551 239.179Q473 239.095 472.454 238.983Q471.908 238.871 471.368 238.733Q470.828 238.594 470.295 238.429C465.396 236.907 459.803 233.349 457.411 228.66C456.419 226.715 456.111 225.47 456.82 223.433Z"/>
	<path fill="#FDFDFD" d="M456.82 223.433C454.109 216.889 453.26 210.87 455.967 204.064C458.19 198.474 462.423 194.278 467.975 191.988Q468.491 191.771 469.017 191.58Q469.543 191.388 470.078 191.223Q470.613 191.058 471.155 190.92Q471.698 190.782 472.246 190.67Q472.795 190.559 473.348 190.475Q473.902 190.391 474.459 190.335Q475.016 190.279 475.575 190.25Q476.134 190.221 476.694 190.22Q477.253 190.219 477.812 190.246Q478.372 190.273 478.929 190.327Q479.486 190.382 480.04 190.464Q480.593 190.546 481.142 190.655Q481.691 190.764 482.234 190.901Q482.777 191.037 483.312 191.2Q483.848 191.364 484.375 191.553Q484.901 191.743 485.418 191.958C491.151 194.37 496.014 199.167 498.209 205.02C500.292 210.577 499.796 216.677 497.26 221.993C495.699 225.266 493.595 227.833 491.06 230.4C485.284 233.819 479.217 236.001 472.405 234.739C465.378 233.437 460.793 229.021 456.82 223.433Z"/>
	<path fill="#F03A31" d="M512.324 144.933L563.497 144.961C571.449 144.951 580.546 144.05 588.384 145.135C590.367 145.409 592.255 146.171 593.724 147.559C595.214 148.967 595.925 150.643 596.316 152.622C598.022 161.267 596.703 184.075 596.815 194.397C596.353 206.418 596.489 218.475 596.505 230.504C596.514 237.078 597.244 244.428 595.926 250.861C595.528 252.799 594.43 254.434 593.274 256.005C592.345 256.776 591.395 257.561 590.189 257.83C581.237 259.823 538.141 255.775 534.481 259.223C530.897 264.238 526.678 270.441 521.968 274.43C518.287 277.548 513.583 278.507 508.862 277.907C499.404 276.704 492.79 265.014 487.403 258.082C495.558 257.357 504.296 258.02 512.513 258.054L512.76 184.463C512.76 171.334 513.064 158.038 512.324 144.933Z"/>
	<path fill="#FDFDFD" d="M539.524 174.173C543.525 174.269 547.039 174.635 550.539 176.826Q551.241 177.273 551.897 177.786Q552.552 178.299 553.154 178.874Q553.756 179.449 554.298 180.08Q554.841 180.711 555.32 181.392Q555.798 182.073 556.208 182.798Q556.618 183.523 556.954 184.284Q557.291 185.045 557.552 185.835Q557.813 186.626 557.995 187.438Q558.097 187.874 558.177 188.315Q558.256 188.755 558.313 189.2Q558.37 189.644 558.405 190.09Q558.439 190.537 558.45 190.985Q558.462 191.432 558.45 191.88Q558.438 192.328 558.404 192.774Q558.369 193.221 558.312 193.665Q558.255 194.109 558.175 194.55Q558.095 194.99 557.993 195.426Q557.89 195.862 557.766 196.292Q557.641 196.723 557.495 197.146Q557.349 197.569 557.181 197.984Q557.013 198.399 556.824 198.805Q556.635 199.212 556.426 199.607Q556.216 200.003 555.987 200.388Q555.758 200.773 555.509 201.145C552.45 205.713 548.066 207.83 542.79 208.758C538.552 208.79 534.756 208.33 531.137 205.888C527.143 203.192 524.561 198.718 523.811 193.998C523.061 189.277 524.187 184.227 527.151 180.435C530.397 176.282 534.499 174.811 539.524 174.173Z"/>
	<path fill="#052C7B" d="M200.9 757.572C228.484 757.534 256.292 756.772 283.847 757.592C294.67 758.234 305.661 757.927 316.504 757.955L373.452 758.018C382.518 758.016 391.896 757.507 400.929 758.076C400.97 768.062 401.966 787.039 400.744 796.038C398.134 800.734 395.378 804.741 389.854 806.186C384.801 807.508 375.886 806.559 370.349 806.556L327.598 806.52L241.701 806.465C226.137 806.463 210.298 807.038 194.766 806.265C191.937 806.124 189.613 805.851 187.147 804.34C185.11 803.092 183.312 801.35 181.909 799.42Q181.598 798.79 181.305 798.152C180.435 796.237 179.972 794.529 179.723 792.439C179.104 787.248 178.618 761.671 180.045 757.905C186.975 757.558 193.956 757.793 200.9 757.572Z"/>
	<path fill="#FDFDFD" d="M285.52 770.067C287.636 769.925 289.778 769.733 291.848 770.31Q292.533 770.498 293.193 770.758Q293.854 771.017 294.484 771.344Q295.114 771.672 295.706 772.064Q296.298 772.455 296.846 772.907Q297.393 773.359 297.89 773.866Q298.387 774.373 298.828 774.93Q299.269 775.486 299.649 776.086Q300.029 776.686 300.344 777.322Q300.633 777.908 300.861 778.519Q301.09 779.131 301.256 779.763Q301.422 780.394 301.523 781.039Q301.625 781.684 301.661 782.336Q301.697 782.988 301.668 783.641Q301.638 784.293 301.543 784.939Q301.449 785.585 301.289 786.219Q301.13 786.852 300.908 787.466C299.299 791.804 296.114 794.037 292.02 795.801C289.617 796.104 287.064 796.174 284.752 795.37Q284.139 795.16 283.549 794.891Q282.96 794.621 282.4 794.294Q281.84 793.967 281.316 793.586Q280.791 793.205 280.307 792.774Q279.823 792.343 279.384 791.866Q278.945 791.389 278.556 790.87Q278.167 790.352 277.831 789.797Q277.495 789.243 277.216 788.658Q276.931 788.063 276.707 787.443Q276.482 786.822 276.321 786.183Q276.16 785.543 276.063 784.891Q275.966 784.238 275.935 783.579Q275.903 782.92 275.938 782.262Q275.972 781.603 276.072 780.951Q276.172 780.299 276.336 779.66Q276.501 779.021 276.728 778.402C278.314 774.082 281.458 771.841 285.52 770.067Z"/>
	<path fill="#FDFDFD" d="M161.087 262.505C164.245 258.757 166.099 256.558 171.253 256.102C182.146 255.137 197.123 256.323 208.492 256.355L236.467 256.257C241.14 256.24 245.992 255.943 250.634 256.344C253.272 256.572 256.376 257.183 258.499 258.878C260.921 260.813 262.574 264.504 262.824 267.544C263.71 278.35 263.047 289.653 263.03 300.503L262.989 362.545L263.042 425.664C263.039 435.676 263.757 446.365 262.856 456.301C262.614 458.96 261.417 460.736 260.028 462.942C259.797 463.185 259.469 463.377 259.36 463.694C257.882 465.835 256.251 466.459 253.722 466.93C247.963 468.004 241.596 467.532 235.744 467.539L205.066 467.515C205.059 472.897 205.459 478.73 204.934 484.067C193.069 483.133 181.002 484.86 169.161 483.946C163.481 483.508 160.563 481.6 156.969 477.466C155.13 468.936 156.037 459.213 156.032 450.486L155.93 408.934C155.736 373.679 155.17 338.453 155.685 303.192C155.833 293.054 154.712 278.963 157.017 269.381C157.602 266.949 158.858 263.858 161.087 262.505Z"/>
	<path fill="#0C151A" d="M198.42 265.951C202.442 265.902 223.7 264.705 226.268 266.656L226.379 268.662C226.179 268.688 225.98 268.719 225.779 268.74C221.669 269.158 200.673 269.908 198.62 268.229L198.42 265.951Z"/>
	<path fill="#0C151A" d="M210.98 445.965C211.976 445.954 213.019 445.918 214.006 446.061C215.506 446.278 217.135 447.576 217.959 448.825C218.862 450.192 218.965 451.651 218.565 453.206C218.046 455.224 216.438 456.288 214.752 457.276C213.86 457.368 213.021 457.422 212.126 457.348C210.561 457.218 208.779 456.358 207.894 455.011C207.039 453.711 206.751 452.312 207.073 450.781C207.579 448.376 209.009 447.249 210.98 445.965Z"/>
	<path fill="#2576B9" d="M156.969 477.466C155.13 468.936 156.037 459.213 156.032 450.486L155.93 408.934C155.736 373.679 155.17 338.453 155.685 303.192C155.833 293.054 154.712 278.963 157.017 269.381C157.602 266.949 158.858 263.858 161.087 262.505C159.254 270.061 160.389 281.587 160.425 289.627L160.514 330.67L160.511 413.691C160.514 427.496 159.84 441.667 160.627 455.438C160.753 457.645 161.48 459.357 162.64 461.234C164.072 463.552 166.636 465.078 169.281 465.615C173.308 466.433 177.957 466.038 182.057 466.044L205.751 466.06L238.056 466.155C243.235 466.154 248.706 466.503 253.838 465.979C255.953 465.763 257.562 464.754 259.36 463.694C257.882 465.835 256.251 466.459 253.722 466.93C247.963 468.004 241.596 467.532 235.744 467.539L205.066 467.515C205.059 472.897 205.459 478.73 204.934 484.067C193.069 483.133 181.002 484.86 169.161 483.946C163.481 483.508 160.563 481.6 156.969 477.466Z"/>
	<path fill="#94D9F0" d="M168.515 280.459C197.023 280.531 225.511 280.938 254.019 280.524L254.484 392.3L254.533 420.485C254.54 424.839 254.971 429.793 254.33 434.079C225.908 434.448 197.418 434.123 168.992 434.067Q169.139 424.794 168.966 415.521C168.154 399.312 168.59 382.904 168.564 366.672L168.515 280.459Z"/>
	<path fill="#43B7FF" d="M168.966 415.521C197.455 394.003 226.626 372.846 254.011 349.941L254.012 406.228C254.001 415.271 253.183 425.149 254.33 434.079C225.908 434.448 197.418 434.123 168.992 434.067Q169.139 424.794 168.966 415.521Z"/>
	<path fill="#FDFDFD" d="M299.53 513.372C308.966 515.042 318.969 513.06 328.499 513.916C340.267 514.194 352.066 513.929 363.836 513.86C370.053 513.823 377.1 513.138 383.18 514.398Q383.977 514.566 384.76 514.791Q385.542 515.016 386.307 515.297Q387.072 515.577 387.814 515.912Q388.556 516.247 389.273 516.634Q389.99 517.021 390.677 517.458Q391.363 517.896 392.017 518.382Q392.671 518.867 393.288 519.399Q393.905 519.93 394.483 520.504C399.598 525.656 400.65 531.802 400.999 538.711L400.956 579.468C415.757 579.454 430.719 578.973 445.5 579.537L445.5 580.008C430.705 579.198 415.681 580.047 400.852 579.85Q400.553 592.9 400.614 605.953C400.616 621.642 399.69 639.527 400.893 655.028Q400.969 665.451 400.935 675.875L400.929 758.076C391.896 757.507 382.518 758.016 373.452 758.018L316.504 757.955C305.661 757.927 294.67 758.234 283.847 757.592C256.292 756.772 228.484 757.534 200.9 757.572C193.956 757.793 186.975 757.558 180.045 757.905L180.771 757.424C182.027 753.482 181.152 726.592 181.145 719.857L181.261 575.675L181.339 541.165C181.359 535.18 180.613 527.842 181.951 522.037C182.826 518.241 185.526 516.16 188.605 514.124C193.992 513.533 199.569 513.652 204.993 513.53Q236.327 513.13 267.663 513.082C278.095 513.051 289.195 512.251 299.53 513.372Z"/>
	<path fill="#2576B9" d="M299.53 513.372C308.966 515.042 318.969 513.06 328.499 513.916C340.267 514.194 352.066 513.929 363.836 513.86C370.053 513.823 377.1 513.138 383.18 514.398Q383.977 514.566 384.76 514.791Q385.542 515.016 386.307 515.297Q387.072 515.577 387.814 515.912Q388.556 516.247 389.273 516.634Q389.99 517.021 390.677 517.458Q391.363 517.896 392.017 518.382Q392.671 518.867 393.288 519.399Q393.905 519.93 394.483 520.504C399.598 525.656 400.65 531.802 400.999 538.711L400.956 579.468C415.757 579.454 430.719 578.973 445.5 579.537L445.5 580.008C430.705 579.198 415.681 580.047 400.852 579.85Q400.553 592.9 400.614 605.953C400.616 621.642 399.69 639.527 400.893 655.028Q400.969 665.451 400.935 675.875L400.929 758.076C391.896 757.507 382.518 758.016 373.452 758.018L316.504 757.955C305.661 757.927 294.67 758.234 283.847 757.592C294.851 757.16 305.974 757.493 316.989 757.503L379.015 757.574L378.973 541.106L200.562 541.047L200.9 757.572C193.956 757.793 186.975 757.558 180.045 757.905L180.771 757.424C182.027 753.482 181.152 726.592 181.145 719.857L181.261 575.675L181.339 541.165C181.359 535.18 180.613 527.842 181.951 522.037C182.826 518.241 185.526 516.16 188.605 514.124C193.992 513.533 199.569 513.652 204.993 513.53Q236.327 513.13 267.663 513.082C278.095 513.051 289.195 512.251 299.53 513.372Z"/>
	<path fill="#FDFDFD" d="M261.961 524.017C272.329 523.743 282.751 523.926 293.126 523.912C299.072 523.903 305.711 523.284 311.56 524.24C312.109 525.562 311.808 526.29 311.588 527.684C303.324 528.15 269.229 528.72 262.684 527.348C261.805 526.187 262.006 525.448 261.961 524.017Z"/>
	<path fill="#F8C034" d="M219.366 558.056L359.423 558.441L359.319 564.686L359.35 737.567L228.49 737.631L219.046 737.763C218.861 677.866 219.933 617.947 219.366 558.056Z"/>
	<path fill="#FDFDFD" d="M287.069 677.867C288.895 677.84 290.983 677.532 292.518 678.652C293.677 680.602 292.996 683.871 292.991 686.117L278.011 686.183L264.132 686.085L264.073 677.995L287.069 677.867Z"/>
	<path fill="#FDFDFD" d="M300.261 658.408L334.44 658.487L334.345 667.059L308.468 667.017C303.441 667.015 298.147 666.723 293.16 667.3Q268.4 667.362 243.641 667.126C243.609 664.222 243.65 661.312 243.659 658.408L300.261 658.408Z"/>
	<path fill="#FDFDFD" d="M243.885 638.511L312.288 638.671C319.735 639.07 327.228 638.937 334.686 638.941L334.61 647.554C325.606 647.557 316.483 647.238 307.494 647.608C286.295 648.06 265.062 647.209 243.86 647.792C243.717 644.7 243.827 641.604 243.885 638.511Z"/>
	<path fill="#FDFDFD" d="M325.397 619.032L334.688 619.06L334.835 628.356L320.512 628.273C311.989 627.751 303.182 628.141 294.623 628.117L243.762 628.032C243.664 625.154 243.759 622.263 243.794 619.384Q284.594 618.764 325.397 619.032Z"/>
	<path fill="#F9AF34" d="M325.397 619.032Q333.487 606.579 340.996 593.768C345.507 586.117 353.283 570.45 359.319 564.686L359.35 737.567L228.49 737.631C245.926 721.539 263.677 705.181 278.011 686.183L292.991 686.117C292.996 683.871 293.677 680.602 292.518 678.652C290.983 677.532 288.895 677.84 287.069 677.867C286.821 677.349 286.723 677.289 286.734 676.673C286.784 673.97 291.426 669.502 293.16 667.3C298.147 666.723 303.441 667.015 308.468 667.017L334.345 667.059L334.44 658.487L300.261 658.408C302.195 654.677 306.55 651.683 307.494 647.608C316.483 647.238 325.606 647.557 334.61 647.554L334.686 638.941C327.228 638.937 319.735 639.07 312.288 638.671C315.303 635.515 318.657 632.276 320.512 628.273L334.835 628.356L334.688 619.06L325.397 619.032Z"/>
	<path fill="#94D9F0" d="M596.815 194.397C596.788 196.339 596.553 198.32 597.421 200.108C602.854 202.74 609.132 203.9 614.83 205.932C623.601 209.06 632.292 212.925 640.76 216.794Q647.512 219.87 654.117 223.25Q660.723 226.631 667.167 230.308Q673.612 233.985 679.882 237.952Q686.152 241.919 692.236 246.167Q698.319 250.415 704.203 254.936Q710.087 259.457 715.758 264.241Q721.43 269.024 726.878 274.061Q732.327 279.098 737.54 284.378C746.324 293.272 754.214 302.933 762.771 312.005C763.95 306.697 761.352 295.892 764.297 292.076C765.384 291.707 766.141 291.472 766.944 290.619C767.137 290.414 767.322 290.202 767.51 289.993C777.238 289.444 787.278 289.908 797.039 289.9L851.593 289.908L851.551 310.473L851.605 406.336C852.013 406.793 852.444 406.926 852.992 407.179C854.54 407.111 855.299 406.532 856.515 405.68C856.638 412.971 858.24 424.624 855.038 431.094C853.298 433.38 851.839 435.095 849.163 436.232C844.145 438.172 819.549 436.883 812.383 436.953C813.356 442.089 813.541 447.324 814.188 452.504Q815.889 465.459 817.335 478.444L723.131 478.765C713.214 478.65 703.262 478.285 693.349 478.617L693.441 393.511L693.425 363.137C693.421 357.983 693.688 352.693 693.336 347.558C693.279 346.723 693.22 346.42 692.704 345.773C685.616 346.313 678.283 345.953 671.166 345.951C666.177 351.24 659.313 355.368 653.4 359.61Q637.545 371.034 621.549 382.258L510.976 460.439L431.386 517.304C421.699 524.113 411.308 533.208 400.999 538.711C400.65 531.802 399.598 525.656 394.483 520.504Q393.905 519.93 393.288 519.399Q392.671 518.867 392.017 518.382Q391.363 517.896 390.677 517.458Q389.99 517.021 389.273 516.634Q388.556 516.247 387.814 515.912Q387.072 515.577 386.307 515.297Q385.542 515.016 384.76 514.791Q383.977 514.566 383.18 514.398C377.1 513.138 370.053 513.823 363.836 513.86C352.066 513.929 340.267 514.194 328.499 513.916C318.969 513.06 308.966 515.042 299.53 513.372C289.195 512.251 278.095 513.051 267.663 513.082Q236.327 513.13 204.993 513.53L205.048 484.392L204.934 484.067C205.459 478.73 205.059 472.897 205.066 467.515L235.744 467.539C241.596 467.532 247.963 468.004 253.722 466.93C256.251 466.459 257.882 465.835 259.36 463.694C259.469 463.377 259.797 463.185 260.028 462.942C260.589 462.561 261.149 462.179 261.681 461.757C263.878 460.016 263.704 456.927 263.957 454.355C264.672 438.776 264 422.813 263.989 407.202L264.033 313.695Q266.936 309.579 269.984 305.568Q273.031 301.557 276.219 297.657Q279.407 293.757 282.731 289.972Q286.055 286.188 289.511 282.523Q292.967 278.859 296.551 275.32Q300.135 271.78 303.843 268.37Q307.55 264.96 311.376 261.683Q315.202 258.407 319.142 255.268Q323.081 252.129 327.13 249.132Q331.178 246.135 335.331 243.284Q339.483 240.432 343.734 237.73Q347.984 235.027 352.328 232.477Q356.672 229.927 361.104 227.532Q365.536 225.138 370.05 222.902Q374.563 220.667 379.154 218.592Q383.744 216.518 388.405 214.608C400.525 209.715 412.952 206.096 425.506 202.525Q425.26 221.566 425.291 240.608C425.272 245.133 424.501 250.576 427.836 254.147C431.149 257.695 435.885 258.114 440.443 258.118L473.684 257.977C478.009 257.962 483.21 257.356 487.403 258.082C492.79 265.014 499.404 276.704 508.862 277.907C513.583 278.507 518.287 277.548 521.968 274.43C526.678 270.441 530.897 264.238 534.481 259.223C538.141 255.775 581.237 259.823 590.189 257.83C591.395 257.561 592.345 256.776 593.274 256.005C594.43 254.434 595.528 252.799 595.926 250.861C597.244 244.428 596.514 237.078 596.505 230.504C596.489 218.475 596.353 206.418 596.815 194.397Z"/>
	<path fill="#43B7FF" d="M762.621 424.195C764.086 428.795 766.158 432.322 770.567 434.622C778.36 438.686 802.381 436.803 812.383 436.953C813.356 442.089 813.541 447.324 814.188 452.504C802.013 450.332 787.625 453.705 775.296 451.932C771.068 451.324 767.088 449.515 764.569 445.942C760.747 440.52 761.354 430.501 762.621 424.195Z"/>
	<path fill="#43B7FF" d="M263.957 454.355C263.99 462.081 266.335 475.248 260.389 481.093C258.875 482.581 256.937 483.484 254.877 483.931C250.483 484.885 245.217 484.31 240.71 484.304Q227.99 484.336 215.27 484.186C212.328 484.13 207.806 483.483 205.048 484.392L204.934 484.067C205.459 478.73 205.059 472.897 205.066 467.515L235.744 467.539C241.596 467.532 247.963 468.004 253.722 466.93C256.251 466.459 257.882 465.835 259.36 463.694C259.469 463.377 259.797 463.185 260.028 462.942C260.589 462.561 261.149 462.179 261.681 461.757C263.878 460.016 263.704 456.927 263.957 454.355Z"/>
	<path fill="#43B7FF" d="M489.376 271.4C478.158 270.893 437.998 272.676 430.674 270.179C428.575 269.464 426.601 267.11 425.681 265.156C423.872 261.313 423.877 244.688 425.291 240.608C425.272 245.133 424.501 250.576 427.836 254.147C431.149 257.695 435.885 258.114 440.443 258.118L473.684 257.977C478.009 257.962 483.21 257.356 487.403 258.082C492.79 265.014 499.404 276.704 508.862 277.907C513.583 278.507 518.287 277.548 521.968 274.43C526.678 270.441 530.897 264.238 534.481 259.223C538.141 255.775 581.237 259.823 590.189 257.83C591.395 257.561 592.345 256.776 593.274 256.005C594.164 258.103 594.324 261.158 593.946 263.41C593.35 266.965 591.373 268.857 588.564 270.874C581.786 271.741 574.696 271.282 567.863 271.231Q550.797 271.001 533.731 271.14C530.441 275.614 527.122 280.611 522.761 284.126C518.487 287.571 513.295 288.648 507.909 287.853C498.985 286.536 494.243 278.089 489.376 271.4Z"/>
	<defs>
		<linearGradient id="gradient_0" gradientUnits="userSpaceOnUse" x1="773.04431" y1="289.02167" x2="815.61414" y2="444.37439">
			<stop offset="0" stop-color="#1B151C"/>
			<stop offset="1" stop-color="#062A68"/>
		</linearGradient>
	</defs>
	<path fill="url(#gradient_0)" d="M762.771 312.005C763.95 306.697 761.352 295.892 764.297 292.076C765.384 291.707 766.141 291.472 766.944 290.619C767.137 290.414 767.322 290.202 767.51 289.993L767.495 384.08L767.491 407.013C795.435 406.993 823.464 406.62 851.397 407.31L851.605 406.336C852.013 406.793 852.444 406.926 852.992 407.179C854.54 407.111 855.299 406.532 856.515 405.68C856.638 412.971 858.24 424.624 855.038 431.094C853.298 433.38 851.839 435.095 849.163 436.232C844.145 438.172 819.549 436.883 812.383 436.953C802.381 436.803 778.36 438.686 770.567 434.622C766.158 432.322 764.086 428.795 762.621 424.195C761.739 401.718 762.573 378.877 762.579 356.362L762.53 328.568C762.518 323.101 762.226 317.445 762.771 312.005Z"/>
	<path fill="#052C7B" d="M851.605 406.336C852.013 406.793 852.444 406.926 852.992 407.179C854.54 407.111 855.299 406.532 856.515 405.68C856.638 412.971 858.24 424.624 855.038 431.094C853.298 433.38 851.839 435.095 849.163 436.232C849.261 435.381 849.127 435.529 849.513 434.954C850.805 433.027 852.694 431.038 853.553 428.869C854.433 426.644 854.439 411.001 854.273 407.819L851.397 407.31L851.605 406.336Z"/>
	<path fill="#FDFDFD" d="M809.108 414.494C810.191 414.467 811.317 414.426 812.379 414.672Q812.795 414.769 813.197 414.911Q813.6 415.052 813.986 415.235Q814.371 415.418 814.735 415.642Q815.099 415.865 815.437 416.126Q815.774 416.387 816.082 416.683Q816.39 416.978 816.665 417.305Q816.94 417.631 817.178 417.985Q817.417 418.339 817.616 418.717C818.654 420.694 818.742 423.126 818 425.217C816.892 428.344 814.826 429.731 811.91 431.019C810.754 430.975 809.676 430.913 808.561 430.58Q808.144 430.456 807.741 430.289Q807.339 430.123 806.956 429.917Q806.572 429.71 806.212 429.465Q805.852 429.221 805.519 428.94Q805.186 428.66 804.883 428.347Q804.58 428.034 804.311 427.692Q804.042 427.35 803.809 426.982Q803.577 426.614 803.383 426.224C802.358 424.139 802.333 421.719 803.21 419.58C804.345 416.812 806.484 415.625 809.108 414.494Z"/>
	<path fill="#0C151A" d="M509.971 318.778L646.419 318.818L682.363 318.845C689.08 318.846 696.194 318.341 702.825 319.332Q703.77 319.476 704.7 319.696Q705.63 319.916 706.538 320.212Q707.447 320.508 708.328 320.878Q709.21 321.247 710.058 321.687Q710.906 322.128 711.715 322.636Q712.525 323.144 713.289 323.717Q714.054 324.29 714.77 324.924Q715.485 325.558 716.146 326.248C719.13 329.316 721.46 333.138 722.228 337.383C723.434 344.053 723.034 351.114 723.035 357.873L723.037 383.491L723.131 478.765C713.214 478.65 703.262 478.285 693.349 478.617L693.441 393.511L693.425 363.137C693.421 357.983 693.688 352.693 693.336 347.558C693.279 346.723 693.22 346.42 692.704 345.773C687.853 344.673 681.389 345.355 676.385 345.358L643.028 345.418L509.961 345.462Q509.874 332.12 509.971 318.778Z"/>
	<path fill="#F9AF34" d="M767.51 289.993C777.238 289.444 787.278 289.908 797.039 289.9L851.593 289.908L851.551 310.473L851.605 406.336L851.397 407.31C823.464 406.62 795.435 406.993 767.491 407.013L767.495 384.08L767.51 289.993Z"/>
	<path fill="#F8C034" d="M767.51 289.993C777.238 289.444 787.278 289.908 797.039 289.9L851.593 289.908L851.551 310.473C849.513 311.446 847.901 312.773 846.188 314.223C830.762 327.281 816.021 341.267 800.827 354.608C797.022 357.949 768.762 381.972 767.495 384.08L767.51 289.993Z"/>
	<path fill="#34353F" d="M299.53 513.372L299.579 394.72L299.531 363.566C299.519 356.477 298.934 348.804 300.331 341.834C301.424 336.384 304.73 330.995 308.624 327.077C312.829 322.846 318.24 320.289 324.115 319.409C331.068 318.368 338.619 318.924 345.657 318.95L379.602 318.951L509.971 318.778Q509.874 332.12 509.961 345.462L643.028 345.418L676.385 345.358C681.389 345.355 687.853 344.673 692.704 345.773C685.616 346.313 678.283 345.953 671.166 345.951L450.426 345.795L372.1 345.74C357.603 345.728 342.923 345.254 328.447 345.836L328.499 513.916C318.969 513.06 308.966 515.042 299.53 513.372Z"/>
	<path fill="#94D9F0" d="M328.447 345.836C342.923 345.254 357.603 345.728 372.1 345.74L450.426 345.795L671.166 345.951C666.177 351.24 659.313 355.368 653.4 359.61Q637.545 371.034 621.549 382.258L510.976 460.439L431.386 517.304C421.699 524.113 411.308 533.208 400.999 538.711C400.65 531.802 399.598 525.656 394.483 520.504Q393.905 519.93 393.288 519.399Q392.671 518.867 392.017 518.382Q391.363 517.896 390.677 517.458Q389.99 517.021 389.273 516.634Q388.556 516.247 387.814 515.912Q387.072 515.577 386.307 515.297Q385.542 515.016 384.76 514.791Q383.977 514.566 383.18 514.398C377.1 513.138 370.053 513.823 363.836 513.86C352.066 513.929 340.267 514.194 328.499 513.916L328.447 345.836Z"/>
	<defs>
		<linearGradient id="gradient_1" gradientUnits="userSpaceOnUse" x1="659.80426" y1="799.6958" x2="807.84186" y2="464.20679">
			<stop offset="0" stop-color="#212023"/>
			<stop offset="1" stop-color="#323843"/>
		</linearGradient>
	</defs>
	<path fill="url(#gradient_1)" d="M692.704 345.773C693.22 346.42 693.279 346.723 693.336 347.558C693.688 352.693 693.421 357.983 693.425 363.137L693.441 393.511L693.349 478.617C703.262 478.285 713.214 478.65 723.131 478.765L817.335 478.444C825.794 478.433 834.35 478.153 842.798 478.511C845.379 480.233 846.926 481.09 847.519 484.37C848.995 492.534 847.788 504.254 847.756 512.735L847.87 569.151L847.904 701.108C847.922 725.101 848.548 749.303 847.849 773.278C847.757 776.403 847.823 780.416 845.953 783.056C844.156 785.591 841.248 786.666 838.247 786.97C835.632 787.235 832.902 787.154 830.272 787.176C821.191 786.97 812.052 787.297 802.962 787.334L745.544 787.488C710.956 787.522 676.245 786.787 641.673 787.508C635.305 790.844 629.196 794.283 623.413 798.575C613.869 802.979 603.093 805.898 592.994 808.743C549.054 821.118 500.229 822.63 455.473 813.924C439.26 810.77 423.521 806.105 407.884 800.837C406.012 797.761 403.982 797.192 400.744 796.038C401.966 787.039 400.97 768.062 400.929 758.076L400.935 675.875Q400.969 665.451 400.893 655.028C399.69 639.527 400.616 621.642 400.614 605.953Q400.553 592.9 400.852 579.85C415.681 580.047 430.705 579.198 445.5 580.008L445.5 579.537C430.719 578.973 415.757 579.454 400.956 579.468L400.999 538.711C411.308 533.208 421.699 524.113 431.386 517.304L510.976 460.439L621.549 382.258Q637.545 371.034 653.4 359.61C659.313 355.368 666.177 351.24 671.166 345.951C678.283 345.953 685.616 346.313 692.704 345.773Z"/>
	<path fill="#FDFDFD" d="M728.663 484.952C730.321 484.884 731.938 484.933 733.352 485.933C734.334 486.628 734.949 487.596 735.025 488.809C735.153 490.862 733.973 492.115 732.702 493.516C730.756 493.624 728.61 493.694 727.137 492.148C726.318 491.288 726.088 490.474 726.089 489.33C726.09 487.399 727.409 486.219 728.663 484.952Z"/>
	<path fill="#43B7FF" d="M619.518 777.501C620.653 781.041 621.895 783.809 625.338 785.609C630.006 788.049 636.506 787.479 641.673 787.508C635.305 790.844 629.196 794.283 623.413 798.575Q622.568 797.528 621.795 796.427C618.007 790.971 618.444 783.768 619.518 777.501Z"/>
	<path fill="#FDFDFD" d="M731.802 759.534C733.409 759.609 734.926 759.702 736.413 760.374Q736.87 760.583 737.304 760.837Q737.738 761.092 738.143 761.389Q738.549 761.686 738.922 762.023Q739.295 762.36 739.631 762.733Q739.968 763.106 740.265 763.512Q740.562 763.918 740.817 764.351Q741.071 764.785 741.279 765.242Q741.488 765.7 741.649 766.176Q741.818 766.664 741.937 767.167Q742.056 767.669 742.124 768.181Q742.191 768.693 742.207 769.209Q742.222 769.726 742.186 770.241Q742.149 770.756 742.06 771.265Q741.972 771.773 741.832 772.271Q741.693 772.768 741.504 773.248Q741.315 773.729 741.078 774.188C739.481 777.322 737.034 778.369 733.822 779.373C732.135 779.332 730.458 779.214 728.888 778.546Q728.43 778.354 727.996 778.114Q727.561 777.875 727.154 777.59Q726.748 777.305 726.374 776.978Q726.001 776.651 725.664 776.286Q725.328 775.921 725.032 775.522Q724.737 775.123 724.486 774.695Q724.235 774.267 724.031 773.814Q723.827 773.362 723.673 772.89Q723.515 772.394 723.409 771.885Q723.303 771.376 723.249 770.859Q723.195 770.342 723.193 769.821Q723.192 769.301 723.244 768.784Q723.296 768.266 723.4 767.757Q723.504 767.247 723.659 766.751Q723.814 766.255 724.019 765.777Q724.224 765.299 724.477 764.844C726.148 761.779 728.594 760.546 731.802 759.534Z"/>
	<path fill="#0C151A" d="M400.852 579.85C415.681 580.047 430.705 579.198 445.5 580.008C465.131 581.068 485.596 580.149 505.302 580.133L620.005 580.094C619.944 588.523 619.966 596.963 619.581 605.384C613.092 605.346 602.675 604.267 596.713 605.883L400.614 605.953Q400.553 592.9 400.852 579.85Z"/>
	<path fill="#FDFDFD" d="M400.614 605.953L596.713 605.883Q608.083 606.009 619.454 605.936L619.414 654.968C598.346 655.56 577.116 655.067 556.032 655.051L555.966 675.781L555.952 685.948C546.645 685.322 536.986 685.814 527.639 685.804L467.545 685.902C467.57 682.433 467.745 678.956 467.86 675.488C462.675 676.825 454.321 675.886 448.729 675.878C432.826 675.855 416.828 675.448 400.935 675.875Q400.969 665.451 400.893 655.028C399.69 639.527 400.616 621.642 400.614 605.953Z"/>
	<path fill="#0C151A" d="M509.093 619.546C510.557 619.556 511.903 619.662 513.32 620.067C515.899 620.805 518.191 622.585 519.454 624.961C520.705 627.313 520.793 629.995 519.878 632.475C518.625 635.87 516.176 637.315 513.036 638.764C511.495 638.893 509.972 638.977 508.463 638.563C505.924 637.868 503.757 636.246 502.566 633.879C501.382 631.524 501.287 628.815 502.129 626.335C503.369 622.681 505.733 621.113 509.093 619.546Z"/>
	<path fill="#43B7FF" d="M400.893 655.028L467.95 654.95L467.86 675.488C462.675 676.825 454.321 675.886 448.729 675.878C432.826 675.855 416.828 675.448 400.935 675.875Q400.969 665.451 400.893 655.028Z"/>
	<path fill="#C6C9CA" d="M467.95 654.95L525.935 654.992C535.918 654.997 546.067 654.626 556.032 655.051L555.966 675.781L555.952 685.948C546.645 685.322 536.986 685.814 527.639 685.804L467.545 685.902C467.57 682.433 467.745 678.956 467.86 675.488L467.95 654.95Z"/>
	<path fill="#94D9F0" d="M556.032 655.051C577.116 655.067 598.346 655.56 619.414 654.968L619.496 736.026C619.489 749.489 619.898 763.11 619.433 776.555L619.518 777.501C618.444 783.768 618.007 790.971 621.795 796.427Q622.568 797.528 623.413 798.575C613.869 802.979 603.093 805.898 592.994 808.743C549.054 821.118 500.229 822.63 455.473 813.924C439.26 810.77 423.521 806.105 407.884 800.837C406.012 797.761 403.982 797.192 400.744 796.038C401.966 787.039 400.97 768.062 400.929 758.076L400.935 675.875C416.828 675.448 432.826 675.855 448.729 675.878C454.321 675.886 462.675 676.825 467.86 675.488C467.745 678.956 467.57 682.433 467.545 685.902L527.639 685.804C536.986 685.814 546.645 685.322 555.952 685.948L555.966 675.781L556.032 655.051Z"/>
	<path fill="#43B7FF" d="M556.032 655.051C577.116 655.067 598.346 655.56 619.414 654.968L619.496 736.026C619.489 749.489 619.898 763.11 619.433 776.555C617.969 770.638 618.979 753.277 618.991 746.419L619.005 675.898C598.084 675.123 576.909 675.655 555.966 675.781L556.032 655.051Z"/>
	<path fill="#43B7FF" d="M588.135 737.415C566.983 738.341 545.448 737.549 524.258 737.545C498.672 737.541 473.005 738.195 447.436 737.897C444.123 737.859 438.759 738.225 436.387 735.566C433.488 732.317 434.183 726.32 434.525 722.299L475.793 722.37C482.829 722.372 489.975 722.635 497 722.329L559.638 722.457C570.394 722.479 581.3 722.116 592.04 722.574L592.205 723.002C592.923 724.936 592.896 728.049 592.651 730.09C592.24 733.527 590.649 735.247 588.135 737.415Z"/>
	<path fill="#0C151A" d="M434.525 722.299L475.793 722.37C482.829 722.372 489.975 722.635 497 722.329L559.638 722.457C570.394 722.479 581.3 722.116 592.04 722.574L592.205 723.002C592.229 723.431 592.3 724.401 592.255 724.807C592.175 725.523 591.964 725.864 591.319 726.15C588.665 727.326 569.304 726.459 565.144 726.45L460.665 726.307C456.248 726.291 438.737 727.087 435.841 726.152C434.524 724.922 434.744 724.05 434.525 722.299Z"/>
	<path fill="#FDFDFD" d="M467.545 685.902L527.639 685.804C536.986 685.814 546.645 685.322 555.952 685.948C555.849 691.408 555.858 696.626 559.852 700.886C568.717 710.341 592.297 701.078 592.34 718.259C592.343 719.694 592.337 721.169 592.04 722.574C581.3 722.116 570.394 722.479 559.638 722.457L497 722.329C491.287 721.123 483.771 721.999 477.817 722.005L434.783 721.992Q434.786 720.293 434.821 718.595C435.199 701.92 454.19 710.485 462.744 701.783C466.933 697.521 467.441 691.538 467.545 685.902Z"/>
	<path fill="#77D5DB" d="M692.704 345.773C693.22 346.42 693.279 346.723 693.336 347.558C693.688 352.693 693.421 357.983 693.425 363.137L693.441 393.511L693.349 478.617L692.891 478.668C686.819 479.287 680.475 478.981 674.368 478.98L645.321 478.978C639.499 478.952 632.649 478.256 627.021 479.639C624.88 480.165 623.064 481.367 621.706 483.107C620.318 484.886 619.797 486.99 619.567 489.194C618.558 498.897 619.392 509.538 619.393 519.326L619.43 579.609L501.972 579.584L464.752 579.607C458.37 579.611 451.86 579.901 445.5 579.537C430.719 578.973 415.757 579.454 400.956 579.468L400.999 538.711C411.308 533.208 421.699 524.113 431.386 517.304L510.976 460.439L621.549 382.258Q637.545 371.034 653.4 359.61C659.313 355.368 666.177 351.24 671.166 345.951C678.283 345.953 685.616 346.313 692.704 345.773Z"/>
	<path fill="#FDFDFD" d="M739.131 498.753L835.734 498.521C835.277 533.498 835.793 568.552 835.787 603.538L835.708 754.052L726.75 753.98L630.895 754.145L630.905 562.233C630.908 552.338 629.502 504.632 631.364 499.603C633.645 498.027 728.676 498.784 739.131 498.753Z"/>
	<path fill="#94D9F0" d="M672.359 673.012C671.8 639.347 672.551 605.6 672.404 571.919C672.38 566.344 671.94 562.248 676.118 558.034C677.931 557.31 679.735 557.118 681.671 557.018C693.342 556.412 705.31 556.979 717.021 556.997L786.89 557.288C749 596.141 709.911 633.831 672.359 673.012Z"/>
	<path fill="#43B7FF" d="M786.89 557.288C789.375 557.49 790.757 557.853 792.444 559.76C793.143 560.55 793.72 561.376 794.266 562.275L794.414 683.461C793.05 685.4 791.612 687.805 789.07 688.256C781.325 689.63 764.775 688.42 756.155 688.43C730.165 688.459 704.134 688.796 678.15 688.439C675.295 686.642 673.319 685.086 672.582 681.646C672.004 678.947 672.313 675.771 672.359 673.012C709.911 633.831 749 596.141 786.89 557.288Z"/>
</svg>
