<?xml version="1.0" encoding="utf-8" ?>
<svg xmlns="http://www.w3.org/2000/svg" xmlns:xlink="http://www.w3.org/1999/xlink" width="102" height="81">
	<path fill="#43B7FF" transform="scale(0.1275 0.1275)" d="M232.591 216.008L501.076 216C514.012 216.001 534.445 212.492 544.787 221.82C554.47 230.555 553.144 241.827 553.84 253.643L557.456 253.63C579.273 253.593 592.15 255.182 592.167 280.208L592.155 386.456C592.156 405.701 589.297 416.858 567.579 416.796L300.333 416.796C272.941 416.808 248.036 424.416 249.964 385.614C223.72 385.356 209.287 391.111 208.598 357.689C208.049 331.079 208.56 304.357 208.556 277.731L208.559 251.456C208.568 232.665 209.32 216.263 232.591 216.008ZM271.198 232.314L259.805 232.314C248.357 251.188 243.732 255.746 225.355 265.724L225.355 339.473C240.173 344.293 251.765 355.856 259.805 368.888L492.116 368.888L504.35 368.888C510.461 355.729 522.541 342.748 537.123 339.473C536.758 331.233 537.114 322.934 537.122 314.685L537.123 265.724C520.375 260.148 508.071 248.313 501.036 232.314L271.198 232.314ZM553.84 270.38L553.827 336.248C553.834 361.913 560.426 386.015 526.566 385.725L266.49 385.614C266.292 404.506 269.245 400.892 288.769 400.835C309.524 400.414 330.377 400.835 351.14 400.835L547.515 400.857C555.329 400.857 574.908 404.199 575.511 394.648C576.002 386.863 575.461 378.748 575.497 370.924L575.452 301.588C575.449 291.266 574.881 280.667 575.456 270.38C568.247 270.639 561.049 270.341 553.84 270.38ZM519.266 232.314C524.023 238.183 529.924 244.472 537.123 247.123C535.533 232.553 533.948 231.878 519.266 232.314ZM230.918 232.314C223.165 233.355 225.154 240.995 225.355 247.123C227.12 245.728 228.965 243.993 230.918 242.901C234.211 239.558 237.344 236.112 240.112 232.314C237.035 232.418 233.995 232.523 230.918 232.314ZM537.123 357.669C532.085 360.608 527.113 364.065 523.222 368.452L523.161 368.888C527.376 368.988 531.57 369.097 535.785 368.888C536.284 365.506 537.358 361.032 537.123 357.669ZM225.355 357.669C225.343 360.916 225.249 364.184 225.355 367.429C230.324 368.839 234.906 369.861 240.112 369.946C236.174 365.212 230.513 361.008 225.355 357.669Z"/>
	<path fill="#43B7FF" transform="scale(0.1275 0.1275)" d="M485.694 278.663C514.881 276.825 521.251 317.146 492.116 323.075C461.989 326.539 455.999 284.452 485.694 278.663ZM487.23 295.375C480.928 299.081 481.763 306.089 489.958 306.233C496.222 302.688 495.4 295.038 487.23 295.375Z"/>
	<path fill="#43B7FF" transform="scale(0.1275 0.1275)" d="M271.198 278.663C299.947 275.626 306.792 316.924 278.022 323.075C247.669 327.178 241.459 284.624 271.198 278.663ZM272.83 295.375C266.73 299.009 267.075 306.61 275.45 306.233C281.398 302.59 281.049 295.175 272.83 295.375Z"/>
	<path fill="#43B7FF" transform="scale(0.1275 0.1275)" d="M375.439 253.643C388.24 254.526 399.111 255.995 409.919 263.685C446.334 289.596 432.616 345.725 386.136 353.559C344.937 354.67 317.203 317.043 337.074 280.438C345.878 264.218 358.767 258.664 375.439 253.643ZM379.633 270.38C331.694 280.505 342.244 336.424 382.467 336.473C416.633 335.362 431.032 280.118 379.633 270.38Z"/>
</svg>
